<svg xmlns="http://www.w3.org/2000/svg" width="298.313" height="251.044" viewBox="0 0 298.313 251.044">
  <g id="Group_134074" data-name="Group 134074" transform="translate(-147.935 -140.936)" opacity="0.13">
    <path id="Path_146983" data-name="Path 146983" d="M607.729-5371.471a12.8,12.8,0,0,1-3.545-1.357,78.491,78.491,0,0,1-10.376-5.962,48.129,48.129,0,0,1-14.411-15.343,42.189,42.189,0,0,1-5.549-20.038,60.906,60.906,0,0,1,2.692-19.266,97.531,97.531,0,0,1,10.257-22.5,157.052,157.052,0,0,1,15.387-20.988,208.368,208.368,0,0,1,15.721-16.359c4.45-4.16,9.07-8.134,13.8-11.978q9.959-8.091,20.611-15.228,9.937-6.689,20.348-12.634,11.785-6.721,24.028-12.549,12.912-6.133,26.274-11.228c7-2.677,14.072-5.173,21.225-7.406,10.764-3.363,21.635-6.349,32.688-8.627,4.183-.863,8.353-1.8,12.557-2.547,5.1-.908,10.225-1.667,15.342-2.468,5.6-.876,11.254-1.39,16.9-1.952,2.368-.241,4.746-.384,7.122-.53,4.472-.282,8.959-.4,13.414-.834a5.375,5.375,0,0,1,5.808,5.475,8.857,8.857,0,0,1-.769,3.673,15.2,15.2,0,0,1-4.612,5.9,31.3,31.3,0,0,1-10.615,5.394,27.878,27.878,0,0,1-5.559,1.023c-5.64.555-11.277,1.15-16.9,1.891q-12.184,1.607-24.251,3.907c-6.674,1.266-13.3,2.741-19.908,4.325a403.457,403.457,0,0,0-39.865,11.811q-11.2,3.944-22.124,8.611c-8.383,3.577-16.638,7.411-24.733,11.592q-11.208,5.782-21.934,12.428c-6.722,4.191-13.287,8.606-19.624,13.361q-6.389,4.785-12.457,9.984A181.385,181.385,0,0,0,609.5-5467.37a121.755,121.755,0,0,0-19.262,26.665,68.306,68.306,0,0,0-7.008,20.382,44.056,44.056,0,0,0,2.431,23.947,45.132,45.132,0,0,0,7.031,11.653,61.316,61.316,0,0,0,12.964,11.574c.575.4,1.154.791,1.728,1.19A4.115,4.115,0,0,1,607.729-5371.471Z" transform="translate(-425.892 5763.451)" fill="#fff"/>
    <path id="Path_146984" data-name="Path 146984" d="M1206.717-5965.474a7.625,7.625,0,0,1-2.228,5.776,21.472,21.472,0,0,1-8.823,5.884c-1.629.622-3.335,1.044-5.011,1.543-1.216.361-2.494.207-3.741.469-1.633.339-3.327.389-4.993.571-1.528.165-3.06.307-4.581.521q-5.39.765-10.771,1.6c-2.484.39-4.962.817-7.436,1.268q-5.357.977-10.7,2.013-11.941,2.306-23.733,5.288-12.1,3.067-24.032,6.737-8.131,2.494-16.148,5.318c-5.013,1.765-9.987,3.646-14.945,5.572-6.265,2.429-12.408,5.144-18.6,7.731-1.679.7-3.32,1.492-4.973,2.255q-10.5,4.832-20.745,10.184c-6.014,3.137-11.936,6.45-17.8,9.863q-9.166,5.333-18.077,11.071-9.537,6.127-18.729,12.756-6.643,4.781-13.18,9.694c-2.9,2.193-5.713,4.5-8.566,6.754a4.786,4.786,0,0,1-.68.484.4.4,0,0,1-.353-.1.5.5,0,0,1-.053-.378,1.426,1.426,0,0,1,.2-.363,124.172,124.172,0,0,1,7.591-11.327c2.07-2.727,4.286-5.34,6.526-7.937a171.606,171.606,0,0,1,12.354-12.591c2.69-2.535,5.527-4.931,8.381-7.3,4.578-3.8,9.312-7.391,14.158-10.832,3.365-2.39,6.758-4.748,10.232-6.976q8.216-5.265,16.682-10.131c9.474-5.466,19.273-10.291,29.105-15.046,4.659-2.253,9.442-4.256,14.206-6.283,4.506-1.918,9.044-3.758,13.6-5.561,3.187-1.262,6.42-2.4,9.635-3.594,6.565-2.428,13.21-4.631,19.879-6.75,5.064-1.61,10.141-3.185,15.3-4.483,2.034-.512,4.036-1.149,6.069-1.663,3.93-.989,7.857-2,11.814-2.876,4.434-.979,8.891-1.853,13.352-2.706,3.017-.579,6.051-1.07,9.088-1.54,2.828-.437,5.664-.837,8.506-1.173,2.081-.244,4.2-.221,6.26-.566,3.4-.571,6.841-.252,10.253-.644a22.785,22.785,0,0,1,6.282.122,17.214,17.214,0,0,0,3.143.138,5.16,5.16,0,0,1,3.769,1.574C1205.83-5969.563,1207.033-5967.8,1206.717-5965.474Z" transform="translate(-760.52 6114.041)" fill="#fff"/>
    <path id="Path_146999" data-name="Path 146999" d="M859.893-4332.951a19.987,19.987,0,0,1-4.544-1.617,56.861,56.861,0,0,1-11.147-6.246,49.083,49.083,0,0,1-9.44-8.9,52.663,52.663,0,0,1-6.573-10.467c-.489-1.006-.886-2.056-1.329-3.084a1.776,1.776,0,0,1,.046-1.62c.132-.247.243-.505.391-.741q2.889-4.633,5.789-9.259a2.623,2.623,0,0,1,.386-.5.483.483,0,0,1,.353-.139.4.4,0,0,1,.271.257,8.945,8.945,0,0,1,.072,1.462,38.708,38.708,0,0,0,.481,7.324,39.41,39.41,0,0,0,2.855,10.492,39.211,39.211,0,0,0,8.124,12.135,56.072,56.072,0,0,0,13.22,9.914C859.227-4333.73,859.812-4333.7,859.893-4332.951Z" transform="translate(-652.15 4684.528)" fill="#fff"/>
  </g>
</svg>
