<svg xmlns="http://www.w3.org/2000/svg" xmlns:xlink="http://www.w3.org/1999/xlink" width="120" height="79" viewBox="0 0 120 79">
  <defs>
    <clipPath id="clip-path">
      <rect id="Rectangle_110450" data-name="Rectangle 110450" width="120" height="79" transform="translate(272.59 60.601)" fill="#fff" stroke="#707070" stroke-width="1"/>
    </clipPath>
  </defs>
  <g id="Mask_Group_91" data-name="Mask Group 91" transform="translate(-272.59 -60.601)" clip-path="url(#clip-path)">
    <g id="Group_133608" data-name="Group 133608" transform="translate(273.281 60.866)">
      <g id="Group_133607" data-name="Group 133607" transform="translate(0 0)">
        <path id="Path_147055" data-name="Path 147055" d="M38.287-6171.92c0-.162.011-.325.011-.486,0-2.547-.007-5.094.006-7.641a5.66,5.66,0,0,1,.309-1.9,4.187,4.187,0,0,1,.778-1.311,4.433,4.433,0,0,1,1.471-1.132,5.153,5.153,0,0,1,1.211-.362,6.309,6.309,0,0,1,1.228-.069q44.829,0,89.657,0a4.917,4.917,0,0,1,1.651.255,4.409,4.409,0,0,1,1.611.989,4.509,4.509,0,0,1,1.177,1.922,3.7,3.7,0,0,1,.164,1.139q-.008,4.046,0,8.09a1.045,1.045,0,0,0,.072.514.794.794,0,0,0-.066.473q0,16.912,0,33.82c0,.087,0,.176,0,.263a.315.315,0,0,1-.094.237c-.053.052-.105.1-.159.159q-2.19,2.178-4.381,4.356-3.241,3.223-6.484,6.438c-.15.15-.271.357-.47.42a2.066,2.066,0,0,1-.594.028H42.948a5.907,5.907,0,0,1-.895-.064,4.419,4.419,0,0,1-3.545-3.159,5.422,5.422,0,0,1-.163-1.446q0-20.447,0-40.9c0-.089,0-.176,0-.261A.9.9,0,0,0,38.287-6171.92Zm16.074,35.78a.7.7,0,0,0-.062-.086c-.1-.072-.205-.142-.308-.213a10.92,10.92,0,0,1-2.309-2.061,8.042,8.042,0,0,1-1.252-2.077,7.847,7.847,0,0,1-.433-4.265,12.162,12.162,0,0,1,1.248-3.63,21.725,21.725,0,0,1,3.431-4.75,32.5,32.5,0,0,1,2.7-2.587q1.082-.926,2.219-1.778c1.129-.846,2.3-1.634,3.5-2.38Q65-6161.156,67-6162.183c1.442-.745,2.913-1.428,4.406-2.064q1.947-.831,3.941-1.535a71.773,71.773,0,0,1,7.1-2.1c1.177-.284,2.357-.545,3.546-.772q2.15-.406,4.32-.695c1-.132,2.006-.238,3.01-.336a5.114,5.114,0,0,0,.99-.184,5.568,5.568,0,0,0,1.891-.961,2.7,2.7,0,0,0,.822-1.051,1.585,1.585,0,0,0,.137-.655.959.959,0,0,0-1.035-.976c-.794.08-1.593.1-2.389.15-.423.025-.847.052-1.269.094-1,.1-2.011.191-3.009.346-.912.145-1.825.279-2.733.44-.749.134-1.492.3-2.237.455a59.887,59.887,0,0,0-5.823,1.537c-1.274.4-2.533.841-3.781,1.318q-2.379.91-4.68,2-2.182,1.036-4.28,2.234-1.855,1.058-3.625,2.251-1.894,1.274-3.671,2.711c-.843.685-1.666,1.395-2.459,2.134a37.509,37.509,0,0,0-2.8,2.913,28.012,28.012,0,0,0-2.741,3.738,17.417,17.417,0,0,0-1.827,4.011,10.838,10.838,0,0,0-.479,3.43,7.507,7.507,0,0,0,.988,3.569,8.576,8.576,0,0,0,2.567,2.733,13.741,13.741,0,0,0,1.848,1.063A2.288,2.288,0,0,0,54.361-6136.14Zm47.09-43.359A1.152,1.152,0,0,0,101-6180.5a.923.923,0,0,0-.671-.28,3.058,3.058,0,0,1-.56-.022,4.021,4.021,0,0,0-1.119-.023c-.608.07-1.22.012-1.826.116-.367.06-.744.057-1.115.1-.506.06-1.011.131-1.515.209-.541.085-1.081.171-1.619.274-.794.152-1.589.309-2.378.482-.7.156-1.4.335-2.1.513-.362.092-.719.2-1.081.3-.919.231-1.823.512-2.725.8-1.188.378-2.372.771-3.541,1.2-.573.21-1.149.414-1.716.639q-1.216.482-2.422.992c-.849.36-1.7.717-2.531,1.118-1.751.846-3.5,1.707-5.185,2.679q-1.507.871-2.972,1.806c-.619.4-1.223.817-1.823,1.243-.863.614-1.706,1.252-2.522,1.928-.508.424-1.014.849-1.493,1.3a30.614,30.614,0,0,0-2.2,2.242c-.4.464-.794.929-1.163,1.415a21.562,21.562,0,0,0-1.352,2.018.234.234,0,0,0-.036.063.093.093,0,0,0,.01.069.069.069,0,0,0,.063.017.7.7,0,0,0,.121-.085c.508-.4,1.009-.811,1.526-1.2q1.163-.876,2.348-1.726,1.64-1.178,3.336-2.273,1.589-1.02,3.22-1.972c1.045-.606,2.1-1.2,3.171-1.756q1.825-.954,3.7-1.813c.294-.138.587-.277.886-.4,1.1-.461,2.2-.944,3.314-1.378.883-.344,1.769-.677,2.662-.991q1.428-.5,2.876-.948,2.126-.654,4.281-1.2,2.1-.531,4.227-.942.952-.184,1.907-.357.661-.123,1.324-.225c.639-.1,1.278-.2,1.919-.288.271-.036.544-.062.816-.092.3-.031.6-.04.889-.1.222-.048.45-.02.666-.084.3-.089.6-.164.893-.275a3.831,3.831,0,0,0,1.572-1.046A1.362,1.362,0,0,0,101.452-6179.5Zm-33.085,19.716H66.982c-.175,0-.349,0-.524.005a.1.1,0,0,0-.1.151c.113.264.228.526.347.786.359.783.721,1.566,1.08,2.348q.789,1.716,1.575,3.437c.3.646.583,1.3.885,1.941a.733.733,0,0,1,.033.573c-.505,1.595-1,3.192-1.5,4.788a3.371,3.371,0,0,1-.466,1.093c-.07.092-.022.175.092.175,1.011,0,2.022,0,3.033,0,.156,0,.205-.051.2-.2a2.3,2.3,0,0,1,.091-.664q.751-2.607,1.493-5.217a1.218,1.218,0,0,1,.36-.6c.432-.4.855-.8,1.281-1.207l4-3.783c.716-.677,1.435-1.351,2.151-2.03q.735-.694,1.466-1.391c.054-.052.107-.1.157-.159a.068.068,0,0,0-.033-.116c-.074-.005-.149-.009-.224-.009-.587,0-1.174.01-1.76-.005a.687.687,0,0,0-.557.234c-.619.635-1.25,1.257-1.877,1.884l-4.819,4.818c-.062.062-.125.123-.192.178a.113.113,0,0,1-.185-.043c-.031-.055-.057-.112-.083-.168l-.543-1.191c-.569-1.251-1.129-2.5-1.715-3.746a2.114,2.114,0,0,1-.238-1.074,6.188,6.188,0,0,0,0-.638c0-.108-.057-.156-.165-.165-.087-.006-.175-.006-.262-.006Zm31.486,6.3h0c.612,0,1.224,0,1.835,0,.457,0,.509.066.394.5-.136.52-.268,1.041-.414,1.556a25.987,25.987,0,0,1-1.379,4.075c-.061.127-.024.194.117.194q.9.005,1.8,0c.16,0,.2-.044.2-.2a2.431,2.431,0,0,1,.074-.665c.334-1.085.656-2.174.981-3.263q.193-.646.376-1.294a2.091,2.091,0,0,0,.076-.742,1.14,1.14,0,0,0-.932-1.077,2.149,2.149,0,0,0-.484-.037c-1.3,0-2.6.009-3.9,0a1.932,1.932,0,0,0-1.045.215,1.033,1.033,0,0,1-.1.044.178.178,0,0,1-.209-.019,1.052,1.052,0,0,0-.8-.237q-2.229,0-4.457,0c-.1,0-.2,0-.3.006-.118,0-.2.092-.31.123-.122.035-.165-.15-.293-.129a.425.425,0,0,1-.075,0c-.474,0-.949,0-1.423,0-.179,0-.224.04-.241.218a5.378,5.378,0,0,1-.211.985q-.666,2.3-1.336,4.6a4.757,4.757,0,0,1-.5,1.286c-.007.01-.011.022-.016.032-.039.086,0,.147.1.149.612,0,1.223,0,1.835,0,.159,0,.206-.048.219-.239a4.969,4.969,0,0,1,.165-.994c.213-.759.417-1.519.625-2.273s.411-1.494.616-2.241a.8.8,0,0,1,.13-.306.732.732,0,0,1,.621-.276c1.186.006,2.372,0,3.558,0a1.368,1.368,0,0,1,.224.012.2.2,0,0,1,.178.206,1.324,1.324,0,0,1-.091.476c-.4,1.234-.8,2.47-1.211,3.7-.182.544-.4,1.077-.6,1.615a1.272,1.272,0,0,0-.063.214.069.069,0,0,0,.058.082,1.355,1.355,0,0,0,.222.021q.768,0,1.536,0c.329,0,.335-.006.331-.337a2.963,2.963,0,0,1,.11-.886c.423-1.422.832-2.852,1.249-4.276a3.1,3.1,0,0,1,.14-.387.651.651,0,0,1,.636-.439c.1,0,.2,0,.3,0Zm-16.959,3.168h3.3c.087,0,.175,0,.262,0,.158-.009.2-.037.241-.185.06-.228.107-.462.16-.694.172-.74.347-1.48.514-2.224a.757.757,0,0,0-.516-.948,1.38,1.38,0,0,0-.515-.071h-6.1c-.075,0-.15,0-.225,0a1.923,1.923,0,0,0-1.319.63,2.928,2.928,0,0,0-.684,1.275q-.462,1.89-.91,3.787a2.292,2.292,0,0,0-.054.406,1,1,0,0,0,.5.941,1.6,1.6,0,0,0,.886.247c2.222-.008,4.444,0,6.667,0h.225a.248.248,0,0,0,.236-.154c.14-.279.282-.556.423-.834a.238.238,0,0,0,.02-.072c.009-.057-.02-.106-.073-.108a1.776,1.776,0,0,0-.3.028,5.634,5.634,0,0,1-1.191.1c-.773-.015-1.547,0-2.321-.025-1.035-.034-2.071-.034-3.107-.049a1.4,1.4,0,0,1-.187-.012.117.117,0,0,1-.11-.125.923.923,0,0,1,.025-.185c.113-.474.227-.945.342-1.419.015-.06.029-.122.049-.181a.171.171,0,0,1,.168-.124c.1,0,.2,0,.3,0Zm26.01,3.161H112.2a1.638,1.638,0,0,1,.224,0,.307.307,0,0,0,.345-.221c.116-.25.243-.491.365-.736a.574.574,0,0,0,.04-.107c.014-.056-.014-.105-.069-.105a1.548,1.548,0,0,0-.3.029,5.627,5.627,0,0,1-1.19.1c-.786-.016-1.571,0-2.357-.025-1.035-.034-2.071-.034-3.106-.049a2.579,2.579,0,0,1-.261-.016.109.109,0,0,1-.095-.134,1.141,1.141,0,0,1,.033-.146c.123-.445.245-.889.369-1.334.131-.467.084-.418.547-.418q3.257,0,6.514,0c.1,0,.2,0,.3,0,.138-.007.177-.035.21-.167.053-.206.1-.414.144-.62.184-.791.36-1.582.554-2.369a.7.7,0,0,0-.486-.883,1.432,1.432,0,0,0-.514-.083q-3.126,0-6.252,0a1.961,1.961,0,0,0-.371.036,2,2,0,0,0-1.237.845,3.243,3.243,0,0,0-.471,1.132c-.205.863-.41,1.723-.619,2.585-.1.425-.227.843-.317,1.269a.964.964,0,0,0,.577,1.234,1.587,1.587,0,0,0,.755.183C106.658-6147.16,107.781-6147.156,108.9-6147.156Zm-20.81,3.724c.049.073.007.143-.014.213q-.375,1.235-.75,2.471c-.242.8-.483,1.6-.723,2.4a1.577,1.577,0,0,0-.058.254.11.11,0,0,0,.107.126.777.777,0,0,0,.112.006c.375,0,.749,0,1.123,0,.249,0,.3-.04.34-.3a3.49,3.49,0,0,1,.134-.582c.279-.855.555-1.708.835-2.562q.443-1.351.891-2.7c.031-.1.064-.19.089-.286s-.015-.175-.12-.185c-.087-.005-.175-.005-.262-.005H88.675c-.54,0-.538,0-.9.39q-1.218,1.32-2.438,2.637-.9.978-1.807,1.95c-.221.239-.446.471-.673.7-.082.083-.162.068-.2-.042-.1-.306-.195-.616-.3-.924q-.567-1.707-1.138-3.408c-.111-.333-.217-.665-.332-.994-.107-.309-.111-.311-.423-.312H78.826a1.493,1.493,0,0,0-.187.008.169.169,0,0,0-.16.132c-.032.133-.059.269-.089.4-.167.743-.317,1.49-.505,2.227q-.446,1.739-1.009,3.448a2.027,2.027,0,0,0-.07.25.12.12,0,0,0,.127.148c.2.005.4.009.6,0,.15,0,.2-.045.219-.2a3.792,3.792,0,0,1,.135-.62q.351-1.088.7-2.174t.7-2.174c.03-.093.065-.188.1-.28a.079.079,0,0,1,.057-.04.069.069,0,0,1,.06.027c.052.113.106.226.147.342q.448,1.291.891,2.583.365,1.063.731,2.124c.1.289.1.292.393.292.337,0,.675-.009,1.011.005a.581.581,0,0,0,.49-.211q.914-.99,1.841-1.969,1.336-1.413,2.678-2.825c.094-.1.191-.2.286-.295A.131.131,0,0,1,88.094-6143.433Zm32.5-10.055h1.984c.087,0,.175,0,.262,0,.239.015.306.092.274.338a2.292,2.292,0,0,1-.093.4c-.16.5-.328.993-.49,1.494-.385,1.186-.737,2.382-1.214,3.538-.052.126-.1.256-.141.387-.036.108.006.16.126.169.05,0,.1,0,.15,0,.512,0,1.023,0,1.535,0,.325,0,.341-.005.326-.338a2.732,2.732,0,0,1,.167-1.062c.021-.059.036-.12.053-.181q.594-2.027,1.189-4.058a1.974,1.974,0,0,0,.09-.627.889.889,0,0,0-.54-.829,1.857,1.857,0,0,0-.612-.163,7.578,7.578,0,0,0-.822-.012c-1.223.006-2.446,0-3.669,0-.175,0-.349-.006-.524-.012a1,1,0,0,0-.353.105c-.138.045-.224-.118-.375-.113-.473.018-.948.008-1.422.008-.153,0-.212.036-.23.222a4.331,4.331,0,0,1-.157.807c-.482,1.642-.968,3.279-1.441,4.921a3.261,3.261,0,0,1-.531,1.185.091.091,0,0,0,.067.139.424.424,0,0,0,.075.005c.6,0,1.2,0,1.8,0,.2,0,.226-.037.234-.25,0-.075,0-.15,0-.225a1.968,1.968,0,0,1,.079-.627c.443-1.5.879-2.993,1.318-4.49a3.083,3.083,0,0,1,.108-.317.619.619,0,0,1,.606-.418H120.6Zm-34.526,24.528c.8,0,1.6,0,2.4,0,.075,0,.15,0,.225-.007a1.506,1.506,0,0,0,1.409-1.146c.009-.037.016-.072.026-.108a.224.224,0,0,1,.214-.178c.1-.006.2,0,.3,0h5.843c.112,0,.225,0,.337-.006.091-.006.142-.07.1-.154a.693.693,0,0,1-.043-.366c.055-.62.113-1.241.167-1.864a1.766,1.766,0,0,0-.021-.595.66.66,0,0,0-.5-.507,1.8,1.8,0,0,0-.483-.049c-.724,0-1.448-.005-2.172,0a1.233,1.233,0,0,1-.682-.15.8.8,0,0,0-.1-.046c-.091-.04-.14-.012-.155.083-.008.051-.012.1-.016.15q-.078,1.176-.156,2.354c0,.063,0,.125-.014.187-.018.124-.066.164-.2.176-.037,0-.075,0-.112,0h-1.8a.946.946,0,0,1-.186-.017.113.113,0,0,1-.094-.1.881.881,0,0,1,.011-.185c.087-.645.176-1.288.263-1.93.028-.211.055-.42.077-.63a.117.117,0,0,0-.041-.095.11.11,0,0,0-.1.01.881.881,0,0,1-.7.192c-.7-.005-1.4,0-2.1,0a2.859,2.859,0,0,0-.559.042,1.463,1.463,0,0,0-.755.388,1.649,1.649,0,0,0-.424.739,3.688,3.688,0,0,0-.143.849c-.019.36-.041.721-.06,1.083-.008.148-.015.3-.014.45a.121.121,0,0,0,.114.125c.1.009.2.01.3.01.7,0,1.4,0,2.1,0,.381,0,.5-.025.313.479a1.58,1.58,0,0,1-.077.171.557.557,0,0,1-.469.324c-.41.04-.82.08-1.227.141A2.272,2.272,0,0,0,86.072-6128.959Zm20.288-2.226c-.736,0-1.473,0-2.209,0-.51,0-.439-.018-.4-.459.028-.286.074-.568.108-.854.029-.24,0-.277-.227-.256-.3.026-.6.061-.893.1-.186.02-.214.048-.24.225-.072.468-.139.937-.207,1.407-.038.258-.071.52-.111.779-.057.366-.059.366-.417.368h-.674a1.712,1.712,0,0,1-.224-.012.12.12,0,0,1-.112-.126.647.647,0,0,1,.008-.111c.081-.682.164-1.362.243-2.043.011-.092.077-.211-.042-.27-.1-.051-.193.031-.269.089a1.819,1.819,0,0,0-.3.277,2.076,2.076,0,0,0-.5,1.111c-.075.582-.131,1.167-.195,1.75a.915.915,0,0,0-.007.111.133.133,0,0,0,.14.141c.037,0,.075,0,.112,0,.886,0,1.773,0,2.659,0a.839.839,0,0,0,.842-.615,2.792,2.792,0,0,0,.079-.4c.078-.457.044-.426.479-.426,1.548,0,3.1.006,4.643-.006.265,0,.44.034.535.326a.577.577,0,0,0,.612.4c.611-.012,1.223-.009,1.835,0a.805.805,0,0,0,.679-.329,1.978,1.978,0,0,0,.171-.245.28.28,0,0,1,.28-.146c.075,0,.15,0,.225,0H115.5c.1,0,.2,0,.3-.006a.152.152,0,0,0,.152-.138c.011-.049.019-.1.026-.146q.214-1.388.426-2.775a1.315,1.315,0,0,0,.015-.187.124.124,0,0,0-.143-.132c-.373.033-.745.07-1.117.108a.205.205,0,0,0-.19.2c-.005.037-.011.072-.015.111-.053.482-.1.966-.16,1.451-.022.185-.055.369-.092.552-.027.132-.074.176-.2.176q-.768.008-1.535,0c-.15,0-.193-.052-.191-.214s.015-.325.024-.485a1.41,1.41,0,0,0-.136-.693.773.773,0,0,0-.72-.507c-.624,0-1.248,0-1.872,0a.867.867,0,0,0-.728.392,1.637,1.637,0,0,0-.274.769c-.018.136-.024.273-.044.409-.047.317-.061.332-.373.332Zm-33.732.783H74.95c.275,0,.282-.012.326-.292q.071-.464.142-.925c.1-.653.2-1.307.3-1.962.024-.164-.023-.218-.176-.2-.323.031-.645.065-.967.108-.156.021-.185.059-.215.213-.009.049-.014.1-.021.148-.054.435-.107.866-.162,1.3-.028.222-.058.446-.092.667a.17.17,0,0,1-.178.158c-.05,0-.1,0-.15,0h-3.3a1.029,1.029,0,0,1-.186-.011.127.127,0,0,1-.107-.132,1.512,1.512,0,0,1,.015-.187c.044-.382.09-.767.134-1.152q.18-1.54.36-3.085c.02-.172.035-.347.046-.52a.091.091,0,0,0-.123-.1c-.239.071-.478.145-.714.225-.563.192-.484.067-.578.673-.141.913-.287,1.824-.406,2.738-.107.817-.276,1.625-.348,2.446a1.119,1.119,0,0,1-.05.22.23.23,0,0,1-.215.18c-.324.008-.648.005-.972,0-.082,0-.123-.064-.117-.158,0-.063.017-.122.024-.185.079-.645.159-1.288.237-1.932.006-.049.011-.107-.05-.124a.156.156,0,0,0-.1.013,1.734,1.734,0,0,0-.789.871,3.377,3.377,0,0,0-.287,1.2c-.014.348-.009.7-.006,1.049,0,.162.037.2.2.2.774,0,1.548,0,2.322,0a1.058,1.058,0,0,0,.716-.28,1.415,1.415,0,0,0,.387-.544c.05-.129.091-.259.135-.388.073-.216.079-.221.321-.227h2.322Zm29.215-7.556c1.06,0,2.121-.005,3.181,0a1.43,1.43,0,0,0,1.437-1.121c.183-.827.419-1.643.631-2.463.025-.1.048-.193.067-.292a.741.741,0,0,0-.623-.871,2.975,2.975,0,0,0-.374-.012h-4.529c-.112,0-.225,0-.337,0s-.159-.054-.124-.168q.128-.412.265-.818a3.574,3.574,0,0,0,.144-.693.137.137,0,0,0-.145-.175c-.224-.006-.449-.006-.674-.005-.419,0-.416-.057-.5.408a21.17,21.17,0,0,1-.6,2.391q-.413,1.342-.8,2.69a1.777,1.777,0,0,1-.24.543c-.093.132-.179.27-.264.408a.1.1,0,0,0,.073.169c.1.009.2.01.3.01Q100.29-6137.957,101.843-6137.958Zm15.845,0h0q1.5,0,3,0c.284,0,.3-.021.4-.292.02-.059.041-.118.056-.178.022-.092-.044-.167-.119-.13a1.8,1.8,0,0,1-.954.111c-.847-.045-1.695-.082-2.544-.074-.749.006-1.5,0-2.247,0a2.019,2.019,0,0,1-.3-.018.165.165,0,0,1-.141-.188,1.368,1.368,0,0,1,.056-.218c.07-.212.144-.425.215-.637.16-.485.139-.439.594-.439h5.543c.1,0,.2,0,.3,0a.2.2,0,0,0,.213-.168c.019-.071.045-.143.066-.216.155-.539.311-1.077.463-1.618a.559.559,0,0,0-.415-.75,1.936,1.936,0,0,0-.518-.068q-2.6.005-5.206,0a2.775,2.775,0,0,0-.631.07,1.3,1.3,0,0,0-.894.625,2.865,2.865,0,0,0-.257.538c-.272.856-.531,1.717-.792,2.576a1.76,1.76,0,0,0-.059.292.474.474,0,0,0,.173.433.887.887,0,0,0,.283.179,2.3,2.3,0,0,0,.836.175C115.766-6137.967,116.727-6137.958,117.688-6137.958ZM80.43-6130.4h3.519l.3,0a.17.17,0,0,0,.181-.154c.01-.062.019-.124.028-.186q.209-1.348.418-2.7c.01-.061.024-.123.03-.185.01-.107-.043-.159-.155-.159-.05,0-.1.005-.149.01-.223.024-.446.052-.669.077-.372.042-.372.042-.436.424-.094.566-.186,1.134-.286,1.7-.066.375,0,.4-.469.394H78.287a2.59,2.59,0,0,1-.261-.009.116.116,0,0,1-.107-.129c0-.085.012-.174.022-.26q.092-.8.186-1.6.134-1.134.269-2.268c.032-.272.063-.544.09-.817a.093.093,0,0,0-.119-.1c-.37.114-.738.23-1.106.346a.215.215,0,0,0-.149.2c-.008.063-.014.125-.022.187q-.312,2.412-.625,4.823c-.053.41-.053.413.372.413ZM94.7-6142.718h0c-.923,0-1.846-.007-2.768,0a1.357,1.357,0,0,0-1.357,1.015c-.242.785-.475,1.575-.71,2.363-.029.095-.057.192-.077.288a.834.834,0,0,0,.687,1.053,2.069,2.069,0,0,0,.333.033q2.656,0,5.312,0a1.543,1.543,0,0,0,1.14-.475,1.6,1.6,0,0,0,.407-.747c.121-.468.245-.938.366-1.409.1-.387.2-.773.288-1.162a.713.713,0,0,0-.42-.86,1.162,1.162,0,0,0-.544-.1Q96.026-6142.716,94.7-6142.718Zm16.542,4.756h.562a.191.191,0,0,0,.2-.144c.046-.141.092-.284.132-.428q.8-2.865,1.606-5.73c.013-.047.031-.093.041-.142a.128.128,0,0,0-.139-.171c-.275,0-.549,0-.824,0-.312,0-.337-.022-.406.3-.032.145-.1.284-.137.428-.467,1.682-.93,3.366-1.4,5.047a1.99,1.99,0,0,1-.251.7c-.052.068,0,.139.1.143C110.89-6137.958,111.065-6137.962,111.24-6137.962Zm-52.264-5.376c-.014-.134-.118-.139-.186-.176a9.969,9.969,0,0,1-2.355-1.765,6.961,6.961,0,0,1-1.447-2.163,7.023,7.023,0,0,1-.508-1.867,6.894,6.894,0,0,1-.086-1.3,1.608,1.608,0,0,0-.013-.261.07.07,0,0,0-.048-.046.083.083,0,0,0-.063.024.5.5,0,0,0-.069.089c-.344.551-.688,1.1-1.031,1.649-.026.042-.046.087-.07.133a.314.314,0,0,0-.008.288c.079.183.15.37.237.548a9.358,9.358,0,0,0,1.171,1.865,8.7,8.7,0,0,0,1.681,1.586,10.209,10.209,0,0,0,1.986,1.114A3.547,3.547,0,0,0,58.976-6143.338Zm49.289,5.254h.561a.2.2,0,0,0,.215-.167c.014-.049.025-.1.038-.145q.433-1.627.866-3.25c.08-.3.164-.6.242-.9.023-.091-.022-.162-.1-.165q-.542-.005-1.083,0c-.088,0-.129.064-.132.15a1.4,1.4,0,0,1-.053.368c-.232.763-.46,1.526-.69,2.289q-.247.823-.494,1.647c-.036.119-.007.168.111.171C107.916-6138.081,108.09-6138.084,108.265-6138.084Zm-35.58,8.5a.742.742,0,0,0-.611.256.516.516,0,0,0-.006.683.762.762,0,0,0,1.037.11,1.182,1.182,0,0,1,.11-.1.1.1,0,0,1,.134.009.612.612,0,0,1,.081.076.756.756,0,0,0,1.065-.1.508.508,0,0,0,.005-.651.767.767,0,0,0-1.037-.134c-.036.034-.07.071-.108.1a.109.109,0,0,1-.163-.007A.634.634,0,0,0,72.684-6129.579Zm41.39.32a.532.532,0,0,1-.206-.159.7.7,0,0,0-1,.1.467.467,0,0,0-.075.555.707.707,0,0,0,1.026.258c.05-.034.092-.083.14-.121.114-.1.117-.1.25.007a1.628,1.628,0,0,0,.147.114.8.8,0,0,0,.536.123.608.608,0,0,0,.528-.587.6.6,0,0,0-.54-.609.814.814,0,0,0-.535.125C114.25-6129.391,114.188-6129.287,114.074-6129.259Zm-11.94-6.447a2.286,2.286,0,0,0-.306.08.463.463,0,0,0-.3.394.6.6,0,0,0,.293.637.721.721,0,0,0,.913-.149.552.552,0,0,0-.285-.912C102.352-6135.681,102.252-6135.688,102.134-6135.706ZM83.5-6128.985a1.268,1.268,0,0,0-.046-.176.736.736,0,0,0-.874-.389.628.628,0,0,0-.429.556.583.583,0,0,0,.367.557.716.716,0,0,0,.951-.4A1.275,1.275,0,0,0,83.5-6128.985Zm26.24-14.3v0h.187c.393,0,.4.021.481-.437a.446.446,0,0,0,0-.075.151.151,0,0,0-.157-.169c-.2-.009-.4-.009-.6-.007-.285,0-.3.017-.4.29-.021.059-.042.118-.058.177-.038.141.01.209.165.217C109.491-6143.277,109.616-6143.283,109.74-6143.283Z" transform="translate(-28.545 6184.827)" fill="#fed6ab"/>
        <path id="Path_147056" data-name="Path 147056" d="M-471.819-5496.051a.9.9,0,0,1,.06.367c0,.087,0,.173,0,.261q0,20.451,0,40.9a5.422,5.422,0,0,0,.163,1.445,4.421,4.421,0,0,0,3.545,3.16,6.035,6.035,0,0,0,.895.063h82.435a1.984,1.984,0,0,0,.594-.028c.2-.064.32-.269.47-.418q3.244-3.216,6.484-6.438l4.381-4.357c.053-.052.105-.107.159-.16a.311.311,0,0,0,.094-.236c0-.087,0-.175,0-.263q0-16.908,0-33.82a.793.793,0,0,1,.066-.473l6.7,0a2.941,2.941,0,0,1,1.988.747,2.947,2.947,0,0,1,1.036,2.09c.01.149.008.3.008.449q0,24.816,0,49.63a1.46,1.46,0,0,0,0,.149.58.58,0,0,1-.155.442c-.471.583-.935,1.171-1.4,1.757l-4.517,5.691-3.285,4.134c-.1.128-.2.253-.3.383a.383.383,0,0,1-.351.172c-.137-.009-.275,0-.412,0H-477.323c-.474,0-.949.013-1.422-.031a2.922,2.922,0,0,1-2.6-1.905,2.787,2.787,0,0,1-.217-1.17c0-.112,0-.226,0-.336q0-29.479,0-58.958a3.6,3.6,0,0,1,.2-1.283,3.012,3.012,0,0,1,2.8-1.96q3.259-.005,6.517,0C-471.969-5496.047-471.894-5496.048-471.819-5496.051Zm18.915,55.45c-.15.042-.235.172-.348.265a1.562,1.562,0,0,0-.645,1.134c-.012.175-.052.187-.209.2-.311.033-.616-.057-.928-.03a.448.448,0,0,1-.327-.165.167.167,0,0,1-.052-.168c.026-.1.056-.194.087-.288.069-.215.143-.425.209-.641a1.42,1.42,0,0,0,.079-.44c0-.036,0-.083-.047-.087a.137.137,0,0,0-.1.03,9.342,9.342,0,0,0-.751.783.646.646,0,0,0-.158.408,1.867,1.867,0,0,1-.069.4.247.247,0,0,1-.248.191l-.15,0c-.874,0-1.748,0-2.622,0-.28,0-.339-.03-.185-.319.077-.142.138-.292.2-.441a6.569,6.569,0,0,0,.411-1.165,3.28,3.28,0,0,0,.108-.889.194.194,0,0,0-.256-.193,1.184,1.184,0,0,0-.375.167,8.729,8.729,0,0,0-1.612,1.274,3.687,3.687,0,0,0-.887,1.372.25.25,0,0,1-.273.194c-.424,0-.849,0-1.273,0a1.644,1.644,0,0,1-.3-.036.315.315,0,0,1-.263-.28c-.008-.049-.012-.1-.017-.149-.046-.521-.089-1.043-.136-1.566q-.12-1.325-.245-2.648a1.8,1.8,0,0,0-.071-.425c-.109-.012-.151.06-.195.115-.17.216-.344.429-.5.654a.874.874,0,0,0-.217.908c.13.963.264,1.928.393,2.892.068.508.125,1.017.2,1.523a.485.485,0,0,1-.261.53,1.218,1.218,0,0,1-.165.088,3.654,3.654,0,0,1-2.307.221,2.172,2.172,0,0,1-.419-.157,1.028,1.028,0,0,1-.587-.774,1.231,1.231,0,0,1,.026-.592,5.225,5.225,0,0,1,.344-.87,2.025,2.025,0,0,0,.113-.276.108.108,0,0,0-.039-.1.118.118,0,0,0-.105,0,1.248,1.248,0,0,0-.426.512,6.259,6.259,0,0,0-.531,1.357,3.264,3.264,0,0,0-.093.741,1.36,1.36,0,0,0,.59,1.188,2.262,2.262,0,0,0,.42.246,2.992,2.992,0,0,0,2.052.1,2.744,2.744,0,0,0,1.8-1.419,3.321,3.321,0,0,0,.158-.3.32.32,0,0,1,.346-.218c.374.011.749,0,1.124,0,.411,0,.383-.022.448.367a2.707,2.707,0,0,0,.5,1.2,1.517,1.517,0,0,0,2.325.141,2.169,2.169,0,0,0,.239-.333c.128-.212.243-.435.37-.651.1-.172.21-.34.319-.506a.429.429,0,0,1,.41-.209c.312.012.625-.009.936.008a.9.9,0,0,0,.745-.271c.1-.1.135-.1.243.028a.677.677,0,0,0,.562.24c.412-.009.824-.005,1.236,0a.564.564,0,0,0,.411-.144c.113-.1.126-.093.27.031a.294.294,0,0,0,.2.085q.711.007,1.423.019a.286.286,0,0,0,.286-.2c.1-.229.205-.455.294-.688a1.087,1.087,0,0,0,.079-.364c.009-.562.005-1.122,0-1.685a.122.122,0,0,0-.046-.093c-.048-.023-.094.006-.129.045a8.267,8.267,0,0,0-.652.771.367.367,0,0,0-.073.316c.029.133.053.269.069.4.02.165-.017.21-.171.216s-.3,0-.449,0c-.333.007-.386-.017-.342-.392a2.367,2.367,0,0,1,.048-.257c.059-.256.121-.509.183-.764A.223.223,0,0,0-452.9-5440.6Zm63.547,1.6v0c-.35,0-.7,0-1.049,0-.161,0-.2-.074-.116-.217.091-.163.194-.32.281-.486a.674.674,0,0,0-.051-.746,1.743,1.743,0,0,0-1.421-.779,3.635,3.635,0,0,0-1.092.237.509.509,0,0,0-.326.285c-.122.245-.254.486-.38.731a1.079,1.079,0,0,0-.075.169.076.076,0,0,0,.073.1c.087.007.174,0,.262,0a1.169,1.169,0,0,1,.971.547c.052.074.013.146-.08.154-.037,0-.075,0-.112,0q-1.1,0-2.21,0a3.185,3.185,0,0,1-.373-.029.592.592,0,0,1-.179-.05.441.441,0,0,1-.259-.493c.015-.187.061-.371.074-.556.036-.5,0-.783-.062-.751a2.179,2.179,0,0,0-.532.514,1.1,1.1,0,0,0-.311.854.987.987,0,0,1-.036.371.181.181,0,0,1-.159.137c-.062.005-.125.005-.187.005-.587,0-1.174,0-1.76,0a1.669,1.669,0,0,1-.512-.092.453.453,0,0,1-.37-.446c-.043-.5-.126-.99-.177-1.487-.092-.893-.171-1.788-.257-2.683-.019-.2-.038-.4-.059-.6-.008-.072.007-.169-.071-.2-.1-.041-.155.058-.21.118-.16.174-.305.364-.473.532a.68.68,0,0,0-.187.61c.142,1.392.269,2.783.4,4.174.037.386.074.771.115,1.155.017.158.05.183.215.192.037,0,.075,0,.112,0,1.011,0,2.023-.007,3.034,0a.379.379,0,0,0,.406-.252,2.446,2.446,0,0,1,.186-.325.088.088,0,0,1,.152,0c.041.063.075.129.114.194a.719.719,0,0,0,.649.373c1.024,0,2.048,0,3.071,0a.308.308,0,0,0,.306-.168c.072-.131.148-.26.228-.387.046-.076.129-.072.179.008a3.3,3.3,0,0,1,.187.324.37.37,0,0,0,.386.226c.662-.01,1.323,0,1.985,0,.212,0,.424,0,.637,0a.3.3,0,0,0,.279-.157c.057-.1.1-.2.158-.3a2.257,2.257,0,0,1,.185-.323c.153-.2.25-.22.451-.144.386.144.776.277,1.164.416.294.1.586.213.882.313.147.051.2.034.282-.1.191-.294.374-.591.563-.885a.914.914,0,0,0,.1-.755c-.056-.217-.12-.433-.187-.647-.128-.4-.255-.81-.394-1.211-.069-.2-.146-.242-.341-.2a4.921,4.921,0,0,0-1.548.643,1.343,1.343,0,0,0-.257.217,3.532,3.532,0,0,0-.748,1.111c-.066.162-.139.321-.195.487a.321.321,0,0,1-.359.25C-388.708-5439.006-389.033-5439-389.357-5439Zm-32.851,1.278h4.9c.087,0,.175,0,.262,0,.189-.008.216-.023.263-.2.086-.326.17-.652.245-.98a3,3,0,0,0-.358-2.271,2.658,2.658,0,0,0-.384-.5c-.067-.07-.149-.072-.191,0-.2.332-.4.665-.591,1a.172.172,0,0,0,.031.206c.114.148.231.294.334.45a2.659,2.659,0,0,1,.342.827.131.131,0,0,1-.13.179c-.062.006-.125,0-.187,0q-1.086,0-2.172,0c-.062,0-.125,0-.187-.005-.09-.009-.138-.077-.1-.155.079-.17.157-.34.252-.5a.571.571,0,0,0-.016-.635,2.091,2.091,0,0,0-.226-.3,4.024,4.024,0,0,0-.636-.521,1.443,1.443,0,0,0-1.614-.139c-.6.287-1.168.619-1.741.95q-.908.524-1.818,1.043a1.611,1.611,0,0,1-.37.178.814.814,0,0,1-.719-.009c-.151-.1-.185-.165-.132-.342.078-.263.167-.523.245-.786a1.634,1.634,0,0,0,.1-.511c0-.034,0-.082-.054-.08a.113.113,0,0,0-.068.016q-.366.376-.729.754a.648.648,0,0,0-.2.469,1.571,1.571,0,0,1-.059.367.26.26,0,0,1-.265.22c-.05,0-.1,0-.15,0-.437,0-.874-.007-1.31,0a1.708,1.708,0,0,1-.688-.152.309.309,0,0,1-.213-.278c0-.05-.01-.1-.017-.149-.17-1.261-.276-2.53-.4-3.8-.032-.335-.067-.671-.1-1.006a.14.14,0,0,0-.064-.125c-.056-.028-.1.012-.13.047a8.92,8.92,0,0,0-.648.725.479.479,0,0,0-.1.385c.039.321.069.644.1.968q.21,2.2.419,4.4c0,.037,0,.075.011.111a.153.153,0,0,0,.144.145c.037,0,.075.005.112.005.836,0,1.672,0,2.509,0a.707.707,0,0,0,.48-.173c.047-.042.093-.083.141-.124a.119.119,0,0,1,.192.021.606.606,0,0,0,.357.256,1.874,1.874,0,0,0,.335.018Q-424.7-5437.716-422.208-5437.72Zm-12.709-6.565c-.077-.006-.112.048-.146.1a10,10,0,0,0-.635,1.1c-.081.164-.082.2.082.31a.951.951,0,0,1,.39.65c.157.733.3,1.468.416,2.208a2.786,2.786,0,0,1,.041.634c-.017.246-.05.283-.292.284-.449,0-.9,0-1.348,0-.162,0-.325,0-.486-.009-.243-.019-.3-.077-.325-.323-.05-.485-.1-.967-.139-1.454-.062-.721-.115-1.442-.178-2.163-.031-.348-.076-.7-.118-1.042-.005-.042,0-.106-.064-.112a.18.18,0,0,0-.116.091c-.228.313-.452.628-.685.938a.61.61,0,0,0-.116.489c.149,1.062.278,2.129.43,3.19.057.4.025.4-.346.395-1.673,0-3.346,0-5.019,0a1.817,1.817,0,0,1-.827-.2.967.967,0,0,1-.49-1.235c.033-.094.081-.182.118-.274a.673.673,0,0,0,.038-.145.132.132,0,0,0-.176-.131.421.421,0,0,0-.216.2,3.032,3.032,0,0,0-.445,1.6,1.34,1.34,0,0,0,.509,1.118,1.5,1.5,0,0,0,.93.338c1.748-.006,3.5,0,5.243,0,.05,0,.1,0,.15,0a.283.283,0,0,0,.277-.154c.071-.117.145-.232.222-.346a.075.075,0,0,1,.12.026c.024.11.042.22.065.33a.172.172,0,0,0,.183.15c.05,0,.1,0,.15,0q1.536,0,3.071,0a2.142,2.142,0,0,0,.224-.01.284.284,0,0,0,.271-.261c.057-.333.116-.666.191-.992a2.2,2.2,0,0,0,.029-.781c-.065-.5-.115-.993-.2-1.485a.764.764,0,0,1,.182-.691c.191-.212.362-.445.539-.67.207-.264.2-.278-.07-.449-.3-.186-.59-.375-.886-.56a.991.991,0,0,1-.528-.642C-434.895-5444.271-434.91-5444.278-434.917-5444.285Zm21.359,4.261c-.007-.137-.013-.274-.023-.411q-.115-1.546-.232-3.094c-.01-.138-.026-.273-.042-.409,0-.037-.018-.082-.061-.081a.2.2,0,0,0-.093.051.222.222,0,0,0-.048.057c-.246.346-.458.713-.669,1.08a.659.659,0,0,0-.071.433q.086.649.164,1.3c.117.977.231,1.955.35,2.933.013.105-.026.276.076.3.148.04.168-.146.228-.244a1.832,1.832,0,0,0,.152-.34A4.257,4.257,0,0,0-413.558-5440.024Zm-34.816-.052c-.005-.1-.008-.2-.016-.3q-.129-1.658-.26-3.315c-.007-.088-.018-.175-.031-.261-.006-.037-.027-.071-.07-.069a.09.09,0,0,0-.062.037,11,11,0,0,0-.665,1.038.969.969,0,0,0-.124.642c.085.6.145,1.212.219,1.818q.149,1.225.3,2.448a.825.825,0,0,0,.031.145.082.082,0,0,0,.046.051.078.078,0,0,0,.065-.023,1.564,1.564,0,0,0,.117-.189A4.062,4.062,0,0,0-448.374-5440.076Zm6.512.3c.085-.009.247-.019.407-.044a.7.7,0,0,0,.244-.085,2,2,0,0,0,.625-.583,1.215,1.215,0,0,0,.193-.561.415.415,0,0,0-.254-.454c-.067-.034-.139-.054-.209-.082a2.138,2.138,0,0,1-.207-.085c-.152-.083-.164-.213-.025-.327a1.851,1.851,0,0,1,.25-.165c.075-.043.157-.077.235-.116a.44.44,0,0,0,.219-.2q.137-.286.263-.577c.027-.063-.025-.116-.1-.121a.436.436,0,0,0-.285.072,2.707,2.707,0,0,0-.3.223,6,6,0,0,0-.879,1.017,1.846,1.846,0,0,0-.283.566.393.393,0,0,0,.193.512,2.343,2.343,0,0,0,.27.128c.068.031.138.058.2.093a.052.052,0,0,1,.005.09.792.792,0,0,1-.164.088c-.265.109-.532.214-.8.324a1.342,1.342,0,0,0-.193.11c-.036.023-.014.112.028.125A2.078,2.078,0,0,0-441.862-5439.778Zm24.736-2.666a.354.354,0,0,0,.11-.045,3.951,3.951,0,0,0,.605-.656.114.114,0,0,0-.047-.186c-.256-.128-.517-.246-.772-.375a.258.258,0,0,0-.308.041c-.136.108-.28.208-.419.313a.249.249,0,0,1-.311.012c-.073-.048-.146-.093-.217-.145-.1-.071-.2-.148-.3-.219a.13.13,0,0,0-.171-.009,4.482,4.482,0,0,0-.613.649.091.091,0,0,0,.024.133c.148.09.3.183.45.261.455.231.439.236.786-.064a.325.325,0,0,1,.407-.062c.2.1.406.189.609.283C-417.238-5442.489-417.18-5442.465-417.126-5442.444Zm-31.9-3.162a2.007,2.007,0,0,1-.728-.025,1.017,1.017,0,0,1-.245-.085.137.137,0,0,1,0-.243c.02-.013.041-.028.063-.04a.572.572,0,0,1,.569-.015c.17.093.2.075.289-.092a.738.738,0,0,0,.036-.064.221.221,0,0,0-.15-.345.858.858,0,0,0-.514.028,1.216,1.216,0,0,0-.754,1.03.168.168,0,0,0,.107.178c.115.048.233.089.348.137.065.027.074.092.022.15-.091.1-.217.17-.271.3a.146.146,0,0,0,.014.1.072.072,0,0,0,.1.03.943.943,0,0,0,.161-.089,2.2,2.2,0,0,1,1.126-.462.253.253,0,0,0,.209-.138,1.934,1.934,0,0,0,.1-.2c.037-.084,0-.157-.09-.16C-448.774-5445.611-448.911-5445.606-449.026-5445.606Zm35.662,9.9a3.575,3.575,0,0,1-.707-.05,1.672,1.672,0,0,1-.323-.088.119.119,0,0,1-.052-.185.531.531,0,0,1,.6-.193c.058.02.109.06.166.084a.165.165,0,0,0,.1.012.293.293,0,0,0,.118-.436.431.431,0,0,0-.256-.141.56.56,0,0,0-.364.056,1.55,1.55,0,0,0-.728.773.773.773,0,0,0-.051.217.189.189,0,0,0,.135.235c.115.048.236.08.352.125a.076.076,0,0,1,.029.124c-.062.077-.139.141-.2.218a.722.722,0,0,0-.093.158.076.076,0,0,0,.015.066.083.083,0,0,0,.064.02.2.2,0,0,0,.067-.03,2.925,2.925,0,0,1,1.3-.535.187.187,0,0,0,.147-.1,2.18,2.18,0,0,0,.119-.232.072.072,0,0,0-.062-.107C-413.115-5435.726-413.239-5435.713-413.364-5435.708Zm17.751-7a.508.508,0,0,0-.063-.136,5.556,5.556,0,0,0-.707-.665.233.233,0,0,0-.308,0,4.306,4.306,0,0,0-.654.611.219.219,0,0,0,.008.334,2.86,2.86,0,0,0,.682.518.239.239,0,0,0,.251.007,2.847,2.847,0,0,0,.717-.533A.605.605,0,0,0-395.613-5442.711Zm-10.029,4.977a.589.589,0,0,0,.113-.034,2.553,2.553,0,0,0,.655-.549.21.21,0,0,0-.02-.33,5.208,5.208,0,0,0-.722-.588.16.16,0,0,0-.207,0,3.771,3.771,0,0,0-.6.613.2.2,0,0,0,.018.3,3.467,3.467,0,0,0,.63.524A1.078,1.078,0,0,0-405.643-5437.734Zm-2.662-.724a.375.375,0,0,0-.039-.115,3.371,3.371,0,0,0-.827-.688.12.12,0,0,0-.14.022,4.6,4.6,0,0,0-.628.637.177.177,0,0,0,0,.241,3.162,3.162,0,0,0,.715.593.193.193,0,0,0,.213-.006,2.726,2.726,0,0,0,.648-.557A.613.613,0,0,0-408.3-5438.458Z" transform="translate(481.561 5508.958)" fill="#b42d4b"/>
        <path id="Path_147057" data-name="Path 147057" d="M579.865-5543.92a2.288,2.288,0,0,1-.631-.241,13.946,13.946,0,0,1-1.848-1.062,8.559,8.559,0,0,1-2.567-2.734,7.505,7.505,0,0,1-.988-3.57,10.856,10.856,0,0,1,.479-3.431,17.391,17.391,0,0,1,1.827-4.007,27.912,27.912,0,0,1,2.741-3.738,37.165,37.165,0,0,1,2.8-2.915c.793-.74,1.616-1.448,2.459-2.133q1.774-1.441,3.671-2.711,1.77-1.193,3.625-2.251,2.1-1.2,4.28-2.235,2.3-1.093,4.68-2c1.248-.477,2.507-.922,3.781-1.32,1.917-.6,3.854-1.131,5.823-1.536.745-.155,1.488-.32,2.237-.454.908-.162,1.821-.3,2.733-.44,1-.155,2-.246,3.009-.347.422-.042.845-.069,1.269-.095.8-.049,1.6-.071,2.389-.148a.957.957,0,0,1,1.035.976,1.579,1.579,0,0,1-.137.654,2.72,2.72,0,0,1-.822,1.051,5.568,5.568,0,0,1-1.891.961,4.934,4.934,0,0,1-.99.181c-1,.1-2.009.2-3.01.337q-2.17.287-4.32.7c-1.189.226-2.369.488-3.546.771a71.633,71.633,0,0,0-7.1,2.1q-1.995.7-3.941,1.534c-1.493.636-2.964,1.319-4.406,2.064-1.331.688-2.635,1.421-3.907,2.213-1.2.748-2.367,1.533-3.5,2.38q-1.138.853-2.219,1.778a32.279,32.279,0,0,0-2.7,2.587,21.686,21.686,0,0,0-3.431,4.75,12.155,12.155,0,0,0-1.248,3.632,7.843,7.843,0,0,0,.433,4.264,8.052,8.052,0,0,0,1.252,2.076,10.918,10.918,0,0,0,2.309,2.061l.308.212A.628.628,0,0,1,579.865-5543.92Z" transform="translate(-554.049 5592.605)" fill="#4270a8"/>
        <path id="Path_147058" data-name="Path 147058" d="M993.918-5971.745a1.361,1.361,0,0,1-.4,1.03,3.835,3.835,0,0,1-1.572,1.048c-.29.11-.594.186-.892.273-.217.064-.444.037-.667.084-.291.06-.592.068-.889.1-.272.029-.545.054-.816.092q-.96.136-1.919.286-.664.105-1.325.226-.954.174-1.906.357-2.127.413-4.228.943-2.156.546-4.281,1.2-1.449.445-2.876.949c-.893.313-1.779.649-2.662.992-1.116.434-2.21.917-3.314,1.378-.3.125-.591.265-.886.4q-1.87.862-3.7,1.814c-1.071.558-2.126,1.15-3.171,1.757q-1.633.947-3.22,1.972-1.7,1.093-3.336,2.273-1.183.849-2.348,1.726c-.517.391-1.017.8-1.526,1.2a.75.75,0,0,1-.121.084.064.064,0,0,1-.063-.018.087.087,0,0,1-.01-.067.242.242,0,0,1,.036-.064,22.049,22.049,0,0,1,1.352-2.018c.369-.486.764-.951,1.162-1.414a30.847,30.847,0,0,1,2.2-2.245c.479-.45.984-.876,1.493-1.3.816-.678,1.659-1.316,2.522-1.929.6-.427,1.2-.847,1.823-1.244q1.463-.939,2.972-1.8c1.688-.975,3.433-1.834,5.185-2.681.83-.4,1.682-.758,2.53-1.119.8-.343,1.611-.671,2.422-.992.568-.224,1.144-.427,1.716-.639,1.169-.434,2.353-.826,3.541-1.2.9-.287,1.806-.567,2.725-.8.362-.091.719-.207,1.081-.3.7-.175,1.4-.357,2.1-.513.79-.173,1.583-.33,2.378-.482.537-.1,1.078-.19,1.619-.274.5-.075,1.009-.147,1.515-.209.371-.043.748-.039,1.115-.1.606-.1,1.219-.044,1.826-.116a4.118,4.118,0,0,1,1.119.022,3.145,3.145,0,0,0,.56.025.914.914,0,0,1,.671.28A1.147,1.147,0,0,1,993.918-5971.745Z" transform="translate(-921.012 5977.071)" fill="#8699c1"/>
        <path id="Path_147059" data-name="Path 147059" d="M1537.535-4852.826h1.61c.087,0,.175,0,.262.006.108.009.161.057.165.165a6.07,6.07,0,0,1,0,.636,2.122,2.122,0,0,0,.238,1.076c.586,1.241,1.146,2.5,1.715,3.744l.543,1.193c.026.057.052.112.083.167a.112.112,0,0,0,.185.042c.067-.056.13-.115.192-.177l4.819-4.819c.627-.626,1.258-1.25,1.877-1.883a.7.7,0,0,1,.557-.236c.586.017,1.173.006,1.76.008.074,0,.149,0,.224.008a.067.067,0,0,1,.032.114c-.05.056-.1.109-.157.16q-.732.7-1.466,1.393-1.074,1.015-2.151,2.029l-4,3.783c-.426.4-.849.81-1.28,1.206a1.229,1.229,0,0,0-.36.6q-.739,2.612-1.493,5.219a2.293,2.293,0,0,0-.091.662c0,.153-.049.2-.2.2q-1.517.006-3.033,0c-.115,0-.162-.082-.092-.173a3.367,3.367,0,0,0,.466-1.1c.5-1.594,1-3.191,1.5-4.785a.732.732,0,0,0-.033-.573c-.3-.644-.589-1.294-.885-1.941q-.786-1.72-1.575-3.437c-.359-.784-.721-1.563-1.08-2.347-.12-.262-.234-.524-.347-.789-.036-.083.008-.146.1-.15.174-.006.349,0,.524,0Z" transform="translate(-1497.713 4877.87)" fill="#3c3755"/>
        <path id="Path_147060" data-name="Path 147060" d="M2664.7-4562.479h-1.686c-.1,0-.2.006-.3.006a.65.65,0,0,0-.636.436,3.432,3.432,0,0,0-.139.388c-.417,1.426-.825,2.854-1.249,4.278a2.925,2.925,0,0,0-.109.885c0,.334,0,.335-.332.337-.512,0-1.024,0-1.535,0a1.689,1.689,0,0,1-.222-.021.072.072,0,0,1-.057-.084,1.206,1.206,0,0,1,.062-.212c.2-.54.415-1.072.6-1.617.413-1.23.811-2.467,1.21-3.7a1.314,1.314,0,0,0,.093-.476.2.2,0,0,0-.178-.206,1.564,1.564,0,0,0-.224-.013c-1.186,0-2.372,0-3.559,0a.729.729,0,0,0-.621.276.788.788,0,0,0-.13.307q-.308,1.119-.617,2.238c-.208.758-.413,1.518-.625,2.274a4.938,4.938,0,0,0-.164.994c-.015.191-.061.239-.22.24-.612,0-1.223,0-1.836,0-.1,0-.135-.062-.094-.147a.3.3,0,0,1,.015-.034,4.718,4.718,0,0,0,.5-1.285q.67-2.3,1.336-4.6a5.379,5.379,0,0,0,.209-.987c.017-.178.062-.216.241-.219.474,0,.949,0,1.423,0a.488.488,0,0,0,.075,0c.126-.021.171.163.292.128.106-.03.192-.118.31-.123.1,0,.2-.006.3-.006q2.229,0,4.457,0a1.051,1.051,0,0,1,.8.237.173.173,0,0,0,.209.019.919.919,0,0,0,.1-.046,1.944,1.944,0,0,1,1.046-.213c1.3.01,2.6,0,3.894,0a2.12,2.12,0,0,1,.484.036,1.137,1.137,0,0,1,.931,1.077,2.061,2.061,0,0,1-.075.741q-.183.649-.376,1.295c-.324,1.088-.647,2.177-.98,3.263a2.4,2.4,0,0,0-.074.666c0,.158-.043.2-.2.2q-.9.006-1.8,0c-.141,0-.178-.065-.117-.193a25.869,25.869,0,0,0,1.379-4.074c.146-.517.278-1.036.414-1.557.113-.437.062-.5-.394-.5H2664.7Z" transform="translate(-2593.397 4593.82)" fill="#3d3856"/>
        <path id="Path_147061" data-name="Path 147061" d="M2112.057-4559.231h-3.3c-.1,0-.2,0-.3,0a.17.17,0,0,0-.167.125c-.02.058-.035.12-.05.18q-.172.709-.341,1.419a.977.977,0,0,0-.026.185.118.118,0,0,0,.111.126,1.079,1.079,0,0,0,.186.011c1.036.016,2.073.016,3.108.049.774.027,1.548.011,2.321.026a5.727,5.727,0,0,0,1.191-.1,1.446,1.446,0,0,1,.3-.027c.052,0,.081.05.072.107a.245.245,0,0,1-.02.072c-.141.277-.283.555-.423.833a.247.247,0,0,1-.235.154h-.225c-2.222,0-4.444,0-6.667,0a1.6,1.6,0,0,1-.886-.249.994.994,0,0,1-.5-.94,2.314,2.314,0,0,1,.053-.406q.45-1.895.91-3.787a2.938,2.938,0,0,1,.685-1.274,1.924,1.924,0,0,1,1.319-.63c.074-.006.15,0,.224,0h6.105a1.392,1.392,0,0,1,.515.071.759.759,0,0,1,.516.949c-.167.743-.343,1.483-.514,2.224-.053.232-.1.464-.16.694-.038.148-.082.176-.241.185-.087,0-.175,0-.262,0Zm-3.348-.9a.917.917,0,0,0,.359.028c1.41,0,2.82.019,4.229-.048.3-.014.6-.02.9-.028a.211.211,0,0,0,.224-.16c.021-.072.044-.143.065-.215q.206-.719.411-1.44c.1-.352.054-.417-.32-.418-.762,0-1.523,0-2.285,0q-1.385,0-2.771,0c-.285,0-.287,0-.355.271q-.222.871-.437,1.744A.365.365,0,0,0,2108.709-4560.136Z" transform="translate(-2057.708 4593.741)" fill="#3f3a57"/>
        <path id="Path_147062" data-name="Path 147062" d="M3558.275-4556.057c-1.123,0-2.246,0-3.37,0a1.578,1.578,0,0,1-.754-.183.964.964,0,0,1-.578-1.232c.09-.428.215-.847.317-1.271q.313-1.291.619-2.583a3.245,3.245,0,0,1,.472-1.134,1.993,1.993,0,0,1,1.237-.845,1.812,1.812,0,0,1,.37-.036l6.252,0a1.411,1.411,0,0,1,.514.086.7.7,0,0,1,.486.883c-.194.786-.37,1.578-.554,2.368-.048.207-.091.414-.143.619-.034.133-.073.159-.21.168-.1,0-.2,0-.3,0h-6.515c-.463,0-.416-.049-.546.421-.125.443-.247.889-.37,1.335a1.153,1.153,0,0,0-.033.145.107.107,0,0,0,.095.134,1.956,1.956,0,0,0,.262.016c1.035.014,2.071.014,3.105.049.787.029,1.572.01,2.358.025a5.729,5.729,0,0,0,1.191-.1,1.761,1.761,0,0,1,.3-.029c.055,0,.083.05.069.106a.5.5,0,0,1-.039.1c-.122.247-.25.49-.365.739a.31.31,0,0,1-.345.222,1.552,1.552,0,0,0-.224,0Zm.753-4.037c.712-.021,1.6-.048,2.479-.076a1.068,1.068,0,0,0,.111-.009.163.163,0,0,0,.137-.112,1.863,1.863,0,0,0,.067-.213c.129-.507.256-1.016.384-1.521.016-.061.032-.12.042-.182a.142.142,0,0,0-.11-.169,1.762,1.762,0,0,0-.3-.024q-2.449,0-4.9,0c-.037,0-.075,0-.112,0-.2.009-.23.028-.289.226-.182.621-.357,1.245-.535,1.868a.513.513,0,0,0-.015.072c-.008.071.02.125.094.133a2.585,2.585,0,0,0,.261.009Z" transform="translate(-3477.917 4593.727)" fill="#3f3a58"/>
        <path id="Path_147063" data-name="Path 147063" d="M2104.96-4035.983a.133.133,0,0,0-.129.053c-.095.1-.191.2-.286.3q-1.339,1.412-2.678,2.825-.925.98-1.842,1.967a.577.577,0,0,1-.489.212c-.337-.015-.674,0-1.011,0-.291,0-.293,0-.393-.293q-.367-1.061-.731-2.123-.445-1.293-.891-2.583a3.515,3.515,0,0,0-.147-.344.069.069,0,0,0-.06-.026.08.08,0,0,0-.057.041c-.038.092-.073.186-.1.28q-.349,1.088-.7,2.175t-.7,2.174a3.853,3.853,0,0,0-.135.621c-.023.155-.07.2-.22.2-.2,0-.4,0-.6-.005a.12.12,0,0,1-.127-.147,2.094,2.094,0,0,1,.07-.252c.378-1.137.711-2.288,1.009-3.447.189-.737.338-1.484.505-2.226.03-.134.056-.269.089-.4a.168.168,0,0,1,.161-.133c.062-.005.125-.007.187-.007.549,0,1.1,0,1.647,0,.313,0,.316,0,.423.31.115.331.221.663.332,1q.569,1.7,1.138,3.407c.1.308.2.619.3.926.036.109.115.125.2.041.227-.232.452-.466.673-.7q.906-.97,1.807-1.948,1.22-1.318,2.438-2.638c.358-.389.356-.391.9-.391h1.123c.087,0,.175,0,.262.006.1.008.148.074.12.184s-.058.191-.09.286q-.446,1.351-.891,2.7c-.28.853-.556,1.708-.835,2.562a3.555,3.555,0,0,0-.134.582c-.039.256-.091.3-.34.3-.375,0-.749,0-1.124,0a.719.719,0,0,1-.112-.007c-.071-.012-.116-.056-.106-.126a1.633,1.633,0,0,1,.058-.255q.36-1.2.722-2.4.374-1.236.75-2.471C2104.967-4035.84,2105.008-4035.91,2104.96-4035.983Z" transform="translate(-2045.411 4077.377)" fill="#b7334e"/>
        <path id="Path_147064" data-name="Path 147064" d="M4091.9-4562.6h-2.171a.619.619,0,0,0-.606.417,3.032,3.032,0,0,0-.108.319q-.658,2.244-1.317,4.489a1.973,1.973,0,0,0-.08.627c0,.075,0,.149,0,.225-.008.211-.038.248-.234.25q-.9,0-1.8,0a.55.55,0,0,1-.075-.006.09.09,0,0,1-.067-.138,3.258,3.258,0,0,0,.53-1.186c.474-1.642.959-3.281,1.441-4.922a4.4,4.4,0,0,0,.157-.807c.018-.186.077-.222.229-.222.474,0,.949.01,1.421-.006.151-.007.237.157.375.113a.978.978,0,0,1,.353-.107c.174.006.349.012.524.012,1.223,0,2.446,0,3.668,0a7.234,7.234,0,0,1,.823.01,1.809,1.809,0,0,1,.611.164.891.891,0,0,1,.541.829,1.95,1.95,0,0,1-.091.626q-.6,2.029-1.189,4.059c-.018.06-.032.121-.052.18a2.738,2.738,0,0,0-.168,1.062c.014.335,0,.339-.327.34-.512,0-1.023,0-1.535,0-.05,0-.1,0-.15,0-.12-.009-.161-.061-.126-.17.043-.129.088-.259.141-.385.477-1.156.829-2.354,1.214-3.54.162-.5.33-.995.49-1.493a2.322,2.322,0,0,0,.093-.4c.032-.246-.036-.323-.274-.337-.087-.006-.175,0-.262,0Z" transform="translate(-3999.846 4593.938)" fill="#3d3856"/>
        <path id="Path_147065" data-name="Path 147065" d="M2575.158-3475.55a2.266,2.266,0,0,1,.8-.184c.407-.061.817-.1,1.227-.142a.556.556,0,0,0,.468-.324,1.4,1.4,0,0,0,.077-.17c.186-.5.068-.482-.312-.48-.7,0-1.4,0-2.1,0-.1,0-.2,0-.3-.011a.12.12,0,0,1-.113-.126c0-.15.006-.3.014-.45.019-.361.041-.722.059-1.083a3.711,3.711,0,0,1,.144-.847,1.646,1.646,0,0,1,.424-.739,1.451,1.451,0,0,1,.755-.387,2.82,2.82,0,0,1,.559-.043c.7,0,1.4,0,2.1,0a.886.886,0,0,0,.7-.193.109.109,0,0,1,.1-.009.115.115,0,0,1,.042.093c-.022.21-.048.421-.077.631q-.131.965-.263,1.929a.957.957,0,0,0-.011.186.115.115,0,0,0,.095.1.97.97,0,0,0,.185.016h1.8c.037,0,.075,0,.112,0,.134-.011.182-.051.2-.175.008-.062.009-.125.013-.187q.077-1.177.155-2.354a1.444,1.444,0,0,1,.016-.148c.014-.1.064-.124.155-.085a.735.735,0,0,1,.1.048,1.221,1.221,0,0,0,.682.149c.725-.009,1.449,0,2.173,0a1.77,1.77,0,0,1,.483.048.663.663,0,0,1,.5.508,1.791,1.791,0,0,1,.021.6c-.054.621-.111,1.242-.167,1.863a.7.7,0,0,0,.043.367c.037.083-.013.146-.1.152-.112.007-.224.007-.336.007h-5.843c-.1,0-.2,0-.3,0a.221.221,0,0,0-.215.177c-.01.036-.017.072-.026.109a1.5,1.5,0,0,1-1.41,1.145c-.074.007-.149.008-.224.008Zm2.055-2.37h0c.175,0,.35.006.524,0a.294.294,0,0,0,.324-.292c.039-.31.071-.62.092-.931a.288.288,0,0,0-.311-.337c-.362-.011-.724-.009-1.086,0a.283.283,0,0,0-.3.275c-.038.309-.071.619-.087.93-.013.268.078.348.359.356C2576.888-3477.915,2577.052-3477.92,2577.213-3477.92Zm6.716.143v0c.161,0,.323,0,.484,0,.223-.006.264-.046.281-.254s.035-.42.049-.631.027-.4.031-.6c0-.176-.041-.225-.215-.229q-.521-.007-1.043,0c-.176,0-.219.044-.236.22-.035.384-.064.767-.094,1.151a.948.948,0,0,0,0,.149c.01.129.057.184.182.188C2583.556-3477.773,2583.742-3477.777,2583.929-3477.777Z" transform="translate(-2517.632 3531.418)" fill="#3f3a57"/>
        <path id="Path_147066" data-name="Path 147066" d="M3322.032-3458.513c.761,0,1.523,0,2.285,0,.311,0,.325-.015.373-.332.02-.135.026-.273.043-.409a1.634,1.634,0,0,1,.275-.768.865.865,0,0,1,.728-.393q.935,0,1.872,0a.766.766,0,0,1,.72.507,1.4,1.4,0,0,1,.136.691c-.01.162-.023.323-.024.485s.042.214.192.215q.768.007,1.535,0c.127,0,.174-.045.2-.177.037-.183.071-.367.093-.553.057-.483.107-.967.16-1.451,0-.037.009-.074.015-.111a.2.2,0,0,1,.19-.2q.559-.059,1.118-.108a.123.123,0,0,1,.143.132,1.212,1.212,0,0,1-.015.186q-.212,1.388-.426,2.775c-.008.049-.016.1-.027.147a.154.154,0,0,1-.152.137c-.1,0-.2,0-.3,0h-2.509c-.075,0-.15,0-.225,0a.279.279,0,0,0-.28.146,2.129,2.129,0,0,1-.171.246.8.8,0,0,1-.679.326c-.612-.009-1.223-.011-1.835,0a.576.576,0,0,1-.612-.4c-.094-.291-.27-.327-.534-.325-1.548.01-3.1,0-4.644.005-.435,0-.4-.031-.479.425a2.769,2.769,0,0,1-.079.4.838.838,0,0,1-.841.614c-.886.006-1.772,0-2.659,0a1.077,1.077,0,0,1-.112,0,.134.134,0,0,1-.14-.141,1.075,1.075,0,0,1,.008-.112c.064-.583.12-1.166.195-1.748a2.086,2.086,0,0,1,.5-1.114,1.96,1.96,0,0,1,.3-.275c.076-.057.168-.14.269-.089.118.059.052.177.042.269-.079.682-.161,1.363-.243,2.044a.614.614,0,0,0-.008.112.121.121,0,0,0,.112.126,2.132,2.132,0,0,0,.223.012q.337,0,.674,0c.358,0,.36,0,.417-.369.039-.259.073-.519.11-.779.068-.469.136-.938.208-1.407.027-.176.055-.2.24-.225.3-.037.6-.071.893-.1.227-.021.256.015.227.256-.034.285-.08.568-.108.855-.043.442-.115.463.4.46C3320.559-3458.516,3321.3-3458.513,3322.032-3458.513Zm5.142-.286a2.114,2.114,0,0,0-.061-.554c-.077-.234-.129-.278-.369-.285-.1,0-.2.009-.3,0a.4.4,0,0,0-.448.311,2.074,2.074,0,0,0-.005,1.352.275.275,0,0,0,.276.21c.112,0,.223,0,.335,0a.442.442,0,0,0,.471-.339A1.9,1.9,0,0,0,3327.174-3458.8Z" transform="translate(-3244.217 3512.155)" fill="#3f3a57"/>
        <path id="Path_147067" data-name="Path 147067" d="M1535.42-3593.3h-2.135c-.062,0-.125,0-.187,0-.242.006-.248.011-.322.226-.044.13-.085.261-.135.388a1.4,1.4,0,0,1-.387.544,1.07,1.07,0,0,1-.716.282c-.773.006-1.547,0-2.321,0-.163,0-.2-.035-.2-.2,0-.349-.008-.7.007-1.048a3.374,3.374,0,0,1,.287-1.2,1.727,1.727,0,0,1,.79-.87.156.156,0,0,1,.1-.016c.062.017.057.076.051.124q-.117.966-.237,1.931c-.008.062-.021.123-.024.186-.006.092.035.157.117.158.324,0,.649.006.972,0a.23.23,0,0,0,.215-.181,1.109,1.109,0,0,0,.05-.218c.072-.822.241-1.629.348-2.446.12-.916.265-1.827.406-2.74.094-.606.016-.481.578-.673.236-.081.475-.153.714-.225a.091.091,0,0,1,.123.1c-.011.174-.026.349-.046.521q-.179,1.543-.36,3.085-.067.576-.135,1.152a1.488,1.488,0,0,0-.015.186.125.125,0,0,0,.107.131.989.989,0,0,0,.187.012h3.3c.049,0,.1,0,.149,0a.172.172,0,0,0,.178-.159c.034-.222.064-.444.092-.667.055-.434.108-.867.162-1.3.006-.049.011-.1.021-.148.029-.155.059-.193.215-.213.321-.043.644-.079.967-.109.153-.014.2.041.176.2-.1.654-.2,1.308-.3,1.961q-.071.463-.142.926c-.043.28-.051.292-.325.292-.637,0-1.274,0-1.91,0Z" transform="translate(-1491.337 3647.727)" fill="#3f3a57"/>
        <path id="Path_147068" data-name="Path 147068" d="M3246.74-4030.534h-3.106a2.758,2.758,0,0,1-.3-.011.1.1,0,0,1-.073-.169c.085-.139.171-.275.264-.408a1.808,1.808,0,0,0,.24-.542c.258-.9.521-1.8.8-2.69a21.254,21.254,0,0,0,.6-2.393c.085-.465.083-.4.5-.407.225,0,.45,0,.674.005a.135.135,0,0,1,.145.172,3.569,3.569,0,0,1-.143.694q-.137.407-.266.819c-.035.113,0,.162.123.168s.225,0,.337,0h4.529a3.394,3.394,0,0,1,.374.012.741.741,0,0,1,.623.871c-.019.1-.042.195-.068.292-.212.82-.447,1.636-.63,2.462a1.431,1.431,0,0,1-1.437,1.122C3248.862-4030.538,3247.8-4030.534,3246.74-4030.534Zm.625-.564c.711,0,1.422,0,2.133,0,.381,0,.472-.086.583-.449.211-.691.426-1.382.64-2.073.085-.274.173-.547.25-.823a.293.293,0,0,0-.268-.4,2.214,2.214,0,0,0-.261-.005h-3.856a1.9,1.9,0,0,0-.224,0,.526.526,0,0,0-.54.425c-.012.062-.037.12-.054.179l-.7,2.407c-.045.155-.093.311-.132.468a.188.188,0,0,0,.181.261,2.652,2.652,0,0,0,.3.009Z" transform="translate(-3173.443 4077.402)" fill="#b8344f"/>
        <path id="Path_147069" data-name="Path 147069" d="M4056.637-3939.572c-.96,0-1.922-.007-2.883,0a2.312,2.312,0,0,1-.836-.174.883.883,0,0,1-.282-.179.471.471,0,0,1-.172-.433,1.746,1.746,0,0,1,.058-.292c.262-.859.52-1.719.792-2.576a2.857,2.857,0,0,1,.257-.54,1.309,1.309,0,0,1,.893-.625,2.876,2.876,0,0,1,.631-.07q2.6.005,5.206,0a1.881,1.881,0,0,1,.518.066.559.559,0,0,1,.415.75c-.152.54-.308,1.08-.462,1.62-.021.072-.047.141-.066.214a.2.2,0,0,1-.213.167c-.1,0-.2,0-.3,0h-5.542c-.455,0-.434-.043-.595.439-.07.213-.145.425-.214.639a1.243,1.243,0,0,0-.055.216.164.164,0,0,0,.141.188,2.019,2.019,0,0,0,.3.018c.749,0,1.5.005,2.248,0,.849-.006,1.7.028,2.543.074a1.839,1.839,0,0,0,.955-.11c.075-.038.14.038.119.128-.014.06-.036.119-.057.179-.093.272-.113.292-.4.293-1,0-2,0-3,0Zm.276-2.6h.973c.486,0,.973,0,1.46,0,.2,0,.253-.04.289-.218.083-.415.16-.832.238-1.249a.525.525,0,0,0,.008-.111.118.118,0,0,0-.108-.127,1.915,1.915,0,0,0-.224-.011h-1.5c-.936,0-1.872,0-2.808,0a.507.507,0,0,0-.561.391c-.026.07-.045.142-.066.214-.089.312-.181.623-.267.936-.031.111.014.165.129.172.075,0,.149,0,.225,0Z" transform="translate(-3967.496 3986.438)" fill="#b8344f"/>
        <path id="Path_147070" data-name="Path 147070" d="M2078.278-3593.217h-3.594c-.425,0-.426,0-.372-.413q.312-2.412.625-4.823c.008-.062.015-.125.023-.187a.216.216,0,0,1,.148-.2c.368-.117.737-.233,1.106-.347a.094.094,0,0,1,.12.1c-.028.273-.059.546-.091.818-.089.756-.18,1.511-.269,2.267q-.1.8-.186,1.6c-.01.087-.021.174-.022.261a.115.115,0,0,0,.108.128c.086.008.174.011.261.011q2.228,0,4.455,0c.473,0,.4-.02.469-.395.1-.565.191-1.131.286-1.7.063-.383.063-.383.435-.425.223-.024.446-.051.669-.077a1.382,1.382,0,0,1,.149-.009c.112,0,.165.052.155.158-.006.063-.02.123-.03.186q-.21,1.348-.418,2.7c-.01.063-.018.124-.029.185a.169.169,0,0,1-.18.153c-.1,0-.2,0-.3,0Z" transform="translate(-2026.393 3647.641)" fill="#3f3a57"/>
        <path id="Path_147071" data-name="Path 147071" d="M2790.209-3937.778c.885,0,1.771,0,2.656,0a1.152,1.152,0,0,1,.544.106.711.711,0,0,1,.42.86c-.087.389-.189.775-.288,1.162-.121.47-.245.941-.366,1.411a1.6,1.6,0,0,1-.407.745,1.538,1.538,0,0,1-1.139.476q-2.656.005-5.312,0a2.058,2.058,0,0,1-.333-.034.835.835,0,0,1-.688-1.053c.02-.1.048-.194.077-.289.236-.788.468-1.577.711-2.363a1.357,1.357,0,0,1,1.357-1.015c.923-.01,1.846,0,2.768,0Zm-1.255,4.195h2.1a1.837,1.837,0,0,0,.3-.014.469.469,0,0,0,.416-.368c.155-.564.336-1.123.506-1.683.126-.417.253-.834.374-1.253.086-.3,0-.417-.309-.433h-.075c-1.408,0-2.818.007-4.227-.005a.682.682,0,0,0-.686.505c-.264.91-.56,1.809-.843,2.713-.015.048-.03.095-.041.144-.06.289.017.381.323.394.076,0,.15,0,.224,0Z" transform="translate(-2724.058 3979.887)" fill="#b8344f"/>
        <path id="Path_147072" data-name="Path 147072" d="M3897.705-4030.488c-.174,0-.349,0-.523,0-.1,0-.15-.075-.1-.144a1.972,1.972,0,0,0,.251-.7c.472-1.681.935-3.365,1.4-5.048.039-.144.1-.281.137-.427.07-.321.094-.3.407-.3.274,0,.549,0,.823,0a.128.128,0,0,1,.14.17c-.01.05-.028.1-.042.145q-.8,2.864-1.606,5.729c-.04.144-.087.287-.131.43a.193.193,0,0,1-.2.142h-.562Z" transform="translate(-3815.011 4077.353)" fill="#b7334e"/>
        <path id="Path_147073" data-name="Path 147073" d="M832.6-4367.939a3.547,3.547,0,0,1-.81-.288,10.137,10.137,0,0,1-1.986-1.113,8.714,8.714,0,0,1-1.681-1.585,9.4,9.4,0,0,1-1.171-1.864c-.087-.18-.158-.366-.237-.551a.316.316,0,0,1,.008-.288c.023-.044.043-.089.07-.131q.515-.826,1.031-1.65a.548.548,0,0,1,.069-.089.1.1,0,0,1,.063-.024.077.077,0,0,1,.048.046,1.626,1.626,0,0,1,.013.262,6.878,6.878,0,0,0,.086,1.3,7.028,7.028,0,0,0,.508,1.869,6.968,6.968,0,0,0,1.447,2.161,9.9,9.9,0,0,0,2.355,1.766C832.483-4368.079,832.587-4368.073,832.6-4367.939Z" transform="translate(-802.171 4409.428)" fill="#8699c1"/>
        <path id="Path_147074" data-name="Path 147074" d="M3738.645-3932.782c-.174,0-.349,0-.524,0-.117,0-.146-.051-.11-.171q.245-.824.494-1.646.344-1.146.689-2.289a1.377,1.377,0,0,0,.054-.369c0-.085.043-.149.131-.149q.542-.005,1.084,0c.083,0,.126.072.1.163-.078.3-.162.6-.242.9l-.866,3.248c-.012.048-.024.1-.038.144a.207.207,0,0,1-.215.17c-.187,0-.374,0-.561,0Z" transform="translate(-3658.926 3979.524)" fill="#b7334e"/>
        <path id="Path_147075" data-name="Path 147075" d="M1834.985-3236.759a.642.642,0,0,1,.507.241.107.107,0,0,0,.163.007c.038-.032.072-.069.108-.1a.766.766,0,0,1,1.037.134.508.508,0,0,1-.006.651.756.756,0,0,1-1.064.1.647.647,0,0,0-.081-.077.1.1,0,0,0-.134-.007,1.383,1.383,0,0,0-.11.1.761.761,0,0,1-1.037-.111.513.513,0,0,1,.006-.681A.747.747,0,0,1,1834.985-3236.759Z" transform="translate(-1790.846 3292.005)" fill="#3f3a58"/>
        <path id="Path_147076" data-name="Path 147076" d="M4012.4-3236.492c.114-.029.176-.133.271-.192a.818.818,0,0,1,.535-.126.6.6,0,0,1,.54.611.606.606,0,0,1-.528.587.8.8,0,0,1-.535-.123,1.646,1.646,0,0,1-.147-.114c-.132-.1-.136-.1-.249-.009-.048.04-.091.086-.14.124a.709.709,0,0,1-1.026-.258.469.469,0,0,1,.074-.557.7.7,0,0,1,1-.1A.544.544,0,0,0,4012.4-3236.492Z" transform="translate(-3926.869 3292.06)" fill="#3f3a58"/>
        <path id="Path_147077" data-name="Path 147077" d="M3413.17-3563.612c.118.019.218.027.313.052a.551.551,0,0,1,.285.911.719.719,0,0,1-.913.149.6.6,0,0,1-.292-.637.462.462,0,0,1,.3-.393A2.726,2.726,0,0,1,3413.17-3563.612Z" transform="translate(-3339.582 3612.731)" fill="#3f3a58"/>
        <path id="Path_147078" data-name="Path 147078" d="M2380.388-3236.2a1.254,1.254,0,0,1-.031.152.716.716,0,0,1-.951.4.586.586,0,0,1-.367-.558.625.625,0,0,1,.429-.554.734.734,0,0,1,.873.387A1.336,1.336,0,0,1,2380.388-3236.2Z" transform="translate(-2325.434 3292.038)" fill="#3f3a58"/>
        <path id="Path_147079" data-name="Path 147079" d="M3822.5-4003.721c-.124,0-.249.005-.373,0-.155-.008-.2-.076-.165-.217.017-.06.038-.118.058-.177.1-.273.113-.287.4-.29.2,0,.4,0,.6.007a.15.15,0,0,1,.157.169.473.473,0,0,1,0,.074c-.078.459-.088.44-.481.438h-.187Z" transform="translate(-3741.305 4045.266)" fill="#b8344f"/>
        <path id="Path_147080" data-name="Path 147080" d="M198.545-2720.612a.222.222,0,0,1,.009.191q-.093.382-.183.765a2.369,2.369,0,0,0-.048.258c-.044.375.009.4.342.391.15,0,.3,0,.449,0s.19-.051.171-.215c-.016-.136-.041-.271-.069-.406a.365.365,0,0,1,.073-.315,8.574,8.574,0,0,1,.652-.772c.036-.037.081-.068.129-.045a.121.121,0,0,1,.046.094c0,.561.006,1.123,0,1.685a1.1,1.1,0,0,1-.079.364c-.089.233-.195.459-.294.688a.283.283,0,0,1-.286.2c-.474-.009-.948-.012-1.423-.018a.292.292,0,0,1-.2-.086c-.144-.125-.157-.131-.27-.029a.572.572,0,0,1-.411.142c-.412,0-.824-.007-1.236,0a.682.682,0,0,1-.562-.24c-.109-.124-.148-.129-.244-.029a.892.892,0,0,1-.745.27c-.311-.015-.624,0-.936-.006a.43.43,0,0,0-.41.208c-.109.167-.218.334-.319.506-.127.215-.241.438-.37.652a2.173,2.173,0,0,1-.239.334,1.518,1.518,0,0,1-2.325-.142,2.715,2.715,0,0,1-.5-1.2c-.065-.389-.037-.366-.448-.366-.375,0-.749.008-1.123,0a.319.319,0,0,0-.347.217,3.29,3.29,0,0,1-.158.3,2.742,2.742,0,0,1-1.8,1.419,2.984,2.984,0,0,1-2.052-.1,2.17,2.17,0,0,1-.42-.244,1.363,1.363,0,0,1-.59-1.189,3.247,3.247,0,0,1,.093-.74,6.262,6.262,0,0,1,.531-1.358,1.25,1.25,0,0,1,.426-.511.121.121,0,0,1,.105,0,.11.11,0,0,1,.039.1,2.017,2.017,0,0,1-.113.275,5.279,5.279,0,0,0-.345.869,1.234,1.234,0,0,0-.026.592,1.029,1.029,0,0,0,.587.775,2.189,2.189,0,0,0,.419.157,3.669,3.669,0,0,0,2.307-.221,1.285,1.285,0,0,0,.165-.088.485.485,0,0,0,.261-.531c-.073-.507-.13-1.016-.2-1.522-.13-.965-.263-1.93-.393-2.894a.871.871,0,0,1,.217-.906c.156-.225.33-.438.5-.653.044-.056.086-.128.195-.116a1.785,1.785,0,0,1,.071.426q.126,1.322.245,2.646c.047.522.091,1.044.136,1.566,0,.05.009.1.017.149a.317.317,0,0,0,.263.28,1.485,1.485,0,0,0,.3.035c.424.005.849,0,1.273.005a.252.252,0,0,0,.273-.2,3.7,3.7,0,0,1,.887-1.372,8.851,8.851,0,0,1,1.612-1.274,1.222,1.222,0,0,1,.375-.166.2.2,0,0,1,.256.193,3.3,3.3,0,0,1-.108.89,6.588,6.588,0,0,1-.411,1.163c-.065.148-.126.3-.2.442-.155.289-.1.32.185.32.874,0,1.748,0,2.622,0l.15,0a.247.247,0,0,0,.248-.191,1.87,1.87,0,0,0,.069-.4.644.644,0,0,1,.158-.408,9.021,9.021,0,0,1,.751-.784.14.14,0,0,1,.1-.029c.044,0,.047.051.047.087a1.417,1.417,0,0,1-.079.44c-.066.215-.14.427-.21.64-.031.1-.061.191-.087.287a.166.166,0,0,0,.052.169.445.445,0,0,0,.327.165c.312-.027.617.063.928.03.156-.017.2-.029.209-.205a1.565,1.565,0,0,1,.645-1.135C198.31-2720.439,198.395-2720.571,198.545-2720.612Zm-6.9,3.831c.017,0,.116,0,.216,0a.137.137,0,0,0,.141-.141.526.526,0,0,0-.246-.474,2.93,2.93,0,0,0-1.406-.651,1.8,1.8,0,0,0-.372-.011.146.146,0,0,0-.13.214.77.77,0,0,0,.129.224c.115.13.239.253.367.372A1.7,1.7,0,0,0,191.64-2716.781Zm.419-3.8a.648.648,0,0,0,0-.074c-.027-.236-.151-.245-.3-.14a7.476,7.476,0,0,0-1.221,1.041,2.245,2.245,0,0,0-.219.3.082.082,0,0,0,.087.121,1.618,1.618,0,0,0,.327-.068c.269-.1.534-.208.8-.316A.842.842,0,0,0,192.059-2720.578Z" transform="translate(-169.889 2788.968)" fill="#fcf7f6"/>
        <path id="Path_147081" data-name="Path 147081" d="M3840.107-2740.224c.324,0,.649-.009.973,0a.321.321,0,0,0,.359-.251c.055-.166.129-.325.195-.487a3.515,3.515,0,0,1,.749-1.112,1.4,1.4,0,0,1,.257-.217,4.954,4.954,0,0,1,1.548-.642c.195-.044.272,0,.341.2.139.4.266.805.394,1.211q.1.321.188.647a.923.923,0,0,1-.1.756c-.189.294-.372.591-.562.884-.087.134-.135.15-.282.1-.3-.1-.587-.21-.882-.315-.388-.138-.778-.271-1.163-.416-.2-.075-.3-.053-.451.143a2.344,2.344,0,0,0-.185.324c-.053.1-.1.2-.158.3a.3.3,0,0,1-.279.155c-.212,0-.425,0-.637,0-.662,0-1.324-.006-1.985,0a.369.369,0,0,1-.385-.226,3.4,3.4,0,0,0-.187-.323c-.05-.079-.132-.083-.179-.008q-.119.189-.228.387a.31.31,0,0,1-.306.169c-1.024,0-2.047,0-3.071,0a.717.717,0,0,1-.648-.373c-.039-.064-.074-.131-.115-.194a.088.088,0,0,0-.152,0,2.543,2.543,0,0,0-.185.324.381.381,0,0,1-.406.253c-1.011-.01-2.022,0-3.034,0-.038,0-.075,0-.112,0-.166-.009-.2-.034-.215-.193-.042-.384-.079-.769-.116-1.155-.133-1.391-.26-2.783-.4-4.174a.688.688,0,0,1,.188-.612c.168-.167.313-.356.473-.531.056-.06.111-.158.211-.118.077.031.063.128.07.2.022.2.041.4.06.6.085.9.165,1.79.256,2.684.051.5.135.989.177,1.486a.453.453,0,0,0,.37.446,1.746,1.746,0,0,0,.512.093c.586,0,1.174,0,1.76,0,.063,0,.125,0,.187-.006a.182.182,0,0,0,.159-.138.983.983,0,0,0,.036-.371,1.1,1.1,0,0,1,.312-.853,2.172,2.172,0,0,1,.531-.514c.063-.032.1.25.063.751-.014.186-.06.37-.074.557a.442.442,0,0,0,.258.493.6.6,0,0,0,.18.049,3,3,0,0,0,.373.03c.737,0,1.473,0,2.209,0a1.07,1.07,0,0,0,.112,0c.093-.006.133-.08.081-.151a1.17,1.17,0,0,0-.97-.548c-.088,0-.176,0-.262,0a.076.076,0,0,1-.073-.1,1.043,1.043,0,0,1,.076-.17c.126-.245.258-.485.38-.731a.5.5,0,0,1,.325-.283,3.617,3.617,0,0,1,1.093-.239,1.74,1.74,0,0,1,1.42.78.671.671,0,0,1,.051.744c-.086.166-.19.323-.28.487-.08.145-.044.215.116.216.35.005.7,0,1.049,0Zm3.241-1.442a2,2,0,0,0-.671.267.09.09,0,0,0,.02.17c.3.122.6.242.9.355.1.036.208.147.3.056.075-.072-.02-.184-.036-.279a.963.963,0,0,0-.153-.378A.409.409,0,0,0,3843.349-2741.666Z" transform="translate(-3747.903 2810.185)" fill="#fcf8f7"/>
        <path id="Path_147082" data-name="Path 147082" d="M2173.363-2738.929h-4.979a2.009,2.009,0,0,1-.336-.017.615.615,0,0,1-.356-.257.121.121,0,0,0-.192-.022c-.048.04-.093.083-.14.124a.7.7,0,0,1-.48.174c-.835,0-1.672,0-2.508,0-.038,0-.075,0-.112-.006a.153.153,0,0,1-.145-.144c-.006-.037-.007-.074-.01-.112q-.209-2.2-.419-4.4c-.031-.323-.061-.646-.1-.968a.48.48,0,0,1,.1-.384,8.716,8.716,0,0,1,.648-.726c.034-.035.074-.075.13-.047a.142.142,0,0,1,.064.126q.053.5.1,1c.122,1.267.229,2.535.4,3.8q.01.074.017.149a.312.312,0,0,0,.214.278,1.714,1.714,0,0,0,.688.153c.436-.01.874,0,1.31,0l.15,0a.262.262,0,0,0,.265-.219,1.6,1.6,0,0,0,.059-.369.653.653,0,0,1,.2-.469q.361-.378.729-.752a.1.1,0,0,1,.068-.018c.054,0,.053.047.054.08a1.627,1.627,0,0,1-.1.511c-.077.264-.167.523-.245.786-.052.178-.019.243.132.343a.815.815,0,0,0,.719.008,1.709,1.709,0,0,0,.371-.178q.91-.519,1.817-1.044c.573-.329,1.143-.662,1.741-.949a1.443,1.443,0,0,1,1.614.14,4.023,4.023,0,0,1,.635.52,2.173,2.173,0,0,1,.226.3.573.573,0,0,1,.017.636,5.542,5.542,0,0,0-.252.5c-.037.079.011.147.1.155.061.006.124.006.187.006h2.171a1.781,1.781,0,0,0,.188,0,.131.131,0,0,0,.13-.179,2.669,2.669,0,0,0-.343-.826c-.1-.156-.221-.3-.334-.451a.173.173,0,0,1-.031-.206c.2-.333.392-.667.591-1,.042-.068.123-.066.191,0a2.634,2.634,0,0,1,.384.506,3,3,0,0,1,.358,2.27c-.075.328-.159.655-.245.98-.047.178-.074.194-.262.2-.087,0-.175,0-.262,0Zm-.761-1.277c.424,0,.847,0,1.271,0a1.19,1.19,0,0,0,.3-.02c.155-.041.329-.085.371-.271.039-.168-.084-.28-.194-.38a2.846,2.846,0,0,0-.7-.433.889.889,0,0,0-.761-.023,4.986,4.986,0,0,0-.568.284c-.364.217-.719.447-1.077.673a.662.662,0,0,0-.087.068c-.009.007-.019.025-.016.032s.025.052.04.053a1.589,1.589,0,0,0,.223.016Z" transform="translate(-2114.01 2810.168)" fill="#fcf8f7"/>
        <path id="Path_147083" data-name="Path 147083" d="M1449.768-2733.663c.007.006.022.013.024.023a.989.989,0,0,0,.528.642c.3.185.59.374.886.56.273.171.277.186.071.45-.177.226-.348.458-.539.671a.763.763,0,0,0-.183.689c.081.492.131.99.2,1.485a2.2,2.2,0,0,1-.029.781c-.074.329-.134.661-.19.993a.285.285,0,0,1-.271.261,1.765,1.765,0,0,1-.224.01h-3.071l-.149,0a.174.174,0,0,1-.184-.151c-.023-.11-.041-.22-.065-.33a.075.075,0,0,0-.12-.025c-.076.113-.152.228-.222.346a.283.283,0,0,1-.277.155c-.05,0-.1,0-.15,0-1.748,0-3.5,0-5.244,0a1.511,1.511,0,0,1-.93-.337,1.343,1.343,0,0,1-.509-1.118,3.039,3.039,0,0,1,.444-1.6.423.423,0,0,1,.216-.2.132.132,0,0,1,.177.131.689.689,0,0,1-.038.144c-.037.092-.085.181-.118.275a.965.965,0,0,0,.49,1.235,1.808,1.808,0,0,0,.827.2c1.673-.007,3.346,0,5.019,0,.372,0,.4,0,.346-.395-.153-1.062-.281-2.129-.43-3.191a.609.609,0,0,1,.116-.489c.233-.309.457-.625.685-.937a.177.177,0,0,1,.116-.091c.069.006.059.069.064.112.042.346.087.693.117,1.041.064.721.116,1.444.179,2.165.042.484.09.969.139,1.453.025.246.083.3.325.323.161.012.324.007.487.008.45,0,.9,0,1.348,0,.242,0,.275-.038.291-.283a2.781,2.781,0,0,0-.041-.634c-.118-.74-.259-1.475-.417-2.208a.946.946,0,0,0-.39-.65c-.164-.11-.163-.147-.081-.31a9.975,9.975,0,0,1,.635-1.1C1449.657-2733.617,1449.691-2733.671,1449.768-2733.663Z" transform="translate(-1403.124 2798.336)" fill="#fcf7f6"/>
        <path id="Path_147084" data-name="Path 147084" d="M3082.054-2715.421a4.272,4.272,0,0,1-.268,1.576,1.931,1.931,0,0,1-.153.341c-.06.1-.08.283-.228.244-.1-.027-.063-.2-.077-.3-.119-.977-.232-1.955-.35-2.932q-.078-.65-.163-1.3a.658.658,0,0,1,.071-.433c.211-.368.423-.734.668-1.081a.239.239,0,0,1,.048-.056.2.2,0,0,1,.093-.05c.043,0,.057.043.061.08.015.136.031.272.041.409q.118,1.546.232,3.094C3082.042-2715.7,3082.046-2715.559,3082.054-2715.421Z" transform="translate(-3014.051 2784.354)" fill="#fbf3f2"/>
        <path id="Path_147085" data-name="Path 147085" d="M1224.552-2715.576a4.055,4.055,0,0,1-.447,2.021,1.591,1.591,0,0,1-.117.19.076.076,0,0,1-.065.022.08.08,0,0,1-.046-.051.79.79,0,0,1-.031-.145q-.152-1.224-.3-2.448c-.074-.606-.134-1.213-.219-1.817a.975.975,0,0,1,.124-.644,11.2,11.2,0,0,1,.665-1.037.094.094,0,0,1,.061-.037c.042,0,.065.033.07.071.013.086.024.172.031.259q.131,1.658.26,3.316C1224.544-2715.776,1224.547-2715.676,1224.552-2715.576Z" transform="translate(-1191.365 2784.458)" fill="#fbf3f2"/>
        <path id="Path_147086" data-name="Path 147086" d="M1605.234-2670.983a2.07,2.07,0,0,1-.559-.047c-.043-.013-.064-.1-.028-.125a1.149,1.149,0,0,1,.193-.111c.264-.111.532-.216.8-.325a.787.787,0,0,0,.164-.087.053.053,0,0,0-.005-.09c-.064-.036-.135-.062-.2-.094a2.1,2.1,0,0,1-.27-.128.391.391,0,0,1-.193-.51,1.821,1.821,0,0,1,.283-.567,5.961,5.961,0,0,1,.879-1.017,2.765,2.765,0,0,1,.3-.223.438.438,0,0,1,.285-.072c.074,0,.126.058.1.121q-.127.29-.263.578a.443.443,0,0,1-.22.2c-.078.038-.159.072-.235.115a1.822,1.822,0,0,0-.25.163c-.138.115-.127.246.025.328a1.882,1.882,0,0,0,.207.085c.07.028.143.049.209.081a.416.416,0,0,1,.254.455,1.215,1.215,0,0,1-.194.561,2,2,0,0,1-.625.582.687.687,0,0,1-.244.086C1605.481-2671,1605.319-2670.991,1605.234-2670.983Z" transform="translate(-1565.535 2740.162)" fill="#fbf3f2"/>
        <path id="Path_147087" data-name="Path 147087" d="M2828-2703.367c-.054-.023-.112-.045-.167-.071-.2-.092-.411-.179-.61-.282a.328.328,0,0,0-.407.06c-.346.3-.331.3-.785.066-.155-.078-.3-.171-.45-.263a.088.088,0,0,1-.023-.131,4.368,4.368,0,0,1,.612-.65.128.128,0,0,1,.171.01c.1.072.2.147.3.219.071.051.145.1.217.145a.252.252,0,0,0,.311-.014c.139-.1.282-.2.419-.312a.258.258,0,0,1,.308-.041c.255.129.515.246.771.375a.114.114,0,0,1,.047.185,3.962,3.962,0,0,1-.606.657A.407.407,0,0,1,2828-2703.367Z" transform="translate(-2763.57 2769.881)" fill="#fbf3f2"/>
        <path id="Path_147088" data-name="Path 147088" d="M1179.379-2853.208c.115,0,.252,0,.388,0a.1.1,0,0,1,.09.159,2.05,2.05,0,0,1-.1.2.252.252,0,0,1-.208.137,2.21,2.21,0,0,0-1.126.462.887.887,0,0,1-.161.09.073.073,0,0,1-.1-.03.146.146,0,0,1-.014-.1c.054-.132.18-.2.271-.3.052-.057.043-.124-.022-.15-.115-.047-.233-.089-.348-.136a.168.168,0,0,1-.107-.178,1.216,1.216,0,0,1,.754-1.031.853.853,0,0,1,.514-.028.222.222,0,0,1,.151.345c-.011.022-.024.044-.037.065-.094.165-.12.184-.289.091a.574.574,0,0,0-.569.015.589.589,0,0,0-.063.041.136.136,0,0,0,0,.242,1.028,1.028,0,0,0,.245.085A2,2,0,0,0,1179.379-2853.208Z" transform="translate(-1146.843 2916.56)" fill="#fbf3f2"/>
        <path id="Path_147089" data-name="Path 147089" d="M3079.185-2328.552c.124-.006.249-.017.373-.014a.071.071,0,0,1,.062.107,1.981,1.981,0,0,1-.119.232.189.189,0,0,1-.146.1,2.927,2.927,0,0,0-1.3.534.157.157,0,0,1-.067.03.084.084,0,0,1-.064-.018.082.082,0,0,1-.015-.067.73.73,0,0,1,.094-.158c.063-.076.141-.141.2-.219a.075.075,0,0,0-.028-.122c-.116-.046-.237-.077-.352-.125a.19.19,0,0,1-.135-.235.806.806,0,0,1,.051-.218,1.549,1.549,0,0,1,.728-.772.575.575,0,0,1,.364-.055.421.421,0,0,1,.256.142.293.293,0,0,1-.117.436.172.172,0,0,1-.1-.012c-.057-.024-.108-.064-.166-.085a.534.534,0,0,0-.6.193.119.119,0,0,0,.052.185,1.78,1.78,0,0,0,.323.089A3.6,3.6,0,0,0,3079.185-2328.552Z" transform="translate(-3010.987 2401.802)" fill="#fbf3f2"/>
        <path id="Path_147090" data-name="Path 147090" d="M4010.439-2694.714a.592.592,0,0,1-.073.134,2.877,2.877,0,0,1-.717.533.241.241,0,0,1-.251-.007,2.867,2.867,0,0,1-.682-.518.218.218,0,0,1-.007-.333,4.3,4.3,0,0,1,.653-.612.232.232,0,0,1,.308,0,5.44,5.44,0,0,1,.707.666A.448.448,0,0,1,4010.439-2694.714Z" transform="translate(-3924.492 2760.96)" fill="#fbf3f2"/>
        <path id="Path_147091" data-name="Path 147091" d="M3525.841-2464.642a.815.815,0,0,1-.131-.059,3.358,3.358,0,0,1-.63-.524.2.2,0,0,1-.018-.3,3.64,3.64,0,0,1,.6-.614.16.16,0,0,1,.208,0,5.32,5.32,0,0,1,.722.589.211.211,0,0,1,.02.33,2.57,2.57,0,0,1-.655.549A.447.447,0,0,1,3525.841-2464.642Z" transform="translate(-3449.922 2535.864)" fill="#fbf3f2"/>
        <path id="Path_147092" data-name="Path 147092" d="M3339.632-2465.483a.609.609,0,0,1-.061.128,2.71,2.71,0,0,1-.648.558.193.193,0,0,1-.212.005,3.189,3.189,0,0,1-.716-.593.177.177,0,0,1,0-.241,4.593,4.593,0,0,1,.628-.637.123.123,0,0,1,.14-.024,3.37,3.37,0,0,1,.826.69A.4.4,0,0,1,3339.632-2465.483Z" transform="translate(-3266.375 2535.982)" fill="#fbf3f2"/>
        <path id="Path_147093" data-name="Path 147093" d="M2239.032-4510.979a.371.371,0,0,1,.02-.266q.215-.872.437-1.743c.068-.267.07-.27.355-.27.924,0,1.847,0,2.771,0,.761,0,1.523,0,2.284,0,.374,0,.421.066.32.417q-.206.721-.412,1.441c-.021.072-.044.143-.065.214a.209.209,0,0,1-.224.16c-.3.008-.6.014-.9.029-1.408.064-2.819.045-4.229.047A.938.938,0,0,1,2239.032-4510.979Z" transform="translate(-2188.031 4544.583)" fill="#f9d3a9"/>
        <path id="Path_147094" data-name="Path 147094" d="M3688.043-4510.939h-2.677a2.6,2.6,0,0,1-.262-.009.1.1,0,0,1-.093-.132.488.488,0,0,1,.015-.074c.178-.622.353-1.246.534-1.867.059-.2.093-.217.289-.226h5.009a1.926,1.926,0,0,1,.3.026.141.141,0,0,1,.11.168c-.01.061-.027.121-.042.181-.128.508-.255,1.017-.384,1.522a2.011,2.011,0,0,1-.067.214.167.167,0,0,1-.138.111.944.944,0,0,1-.111.01Z" transform="translate(-3606.931 4544.572)" fill="#f9d3a9"/>
        <path id="Path_147095" data-name="Path 147095" d="M2653.681-3412.162c-.162,0-.325,0-.487,0-.28-.009-.372-.09-.358-.357.016-.311.048-.621.087-.931a.283.283,0,0,1,.3-.276c.362-.009.725-.01,1.085,0a.288.288,0,0,1,.311.337c-.021.312-.052.622-.092.931a.294.294,0,0,1-.323.293c-.174.008-.349,0-.523,0Z" transform="translate(-2594.099 3465.66)" fill="#f9d3a9"/>
        <path id="Path_147096" data-name="Path 147096" d="M3017.313-3411.96c-.186,0-.373,0-.558,0-.126,0-.172-.058-.183-.187a1.13,1.13,0,0,1,0-.149c.031-.383.059-.768.095-1.151.017-.175.06-.217.236-.22.347-.006.695,0,1.042,0,.173,0,.218.052.215.229,0,.2-.018.4-.031.6s-.032.421-.049.631-.058.248-.28.255c-.161.005-.323,0-.485,0Z" transform="translate(-2951.017 3465.602)" fill="#f9d3a9"/>
        <path id="Path_147097" data-name="Path 147097" d="M3877.7-3381.816a1.894,1.894,0,0,1-.1.695.441.441,0,0,1-.472.339c-.112-.008-.224,0-.335,0a.277.277,0,0,1-.277-.21,2.078,2.078,0,0,1,.006-1.352.4.4,0,0,1,.448-.31c.1.011.2,0,.3,0,.239.008.292.052.369.286A2.072,2.072,0,0,1,3877.7-3381.816Z" transform="translate(-3794.742 3435.172)" fill="#f9d3a9"/>
        <path id="Path_147098" data-name="Path 147098" d="M3335.686-3910.436h-1.946a2.782,2.782,0,0,1-.3-.009.188.188,0,0,1-.181-.26c.039-.158.087-.312.132-.468l.7-2.406c.017-.06.042-.119.054-.179a.529.529,0,0,1,.54-.427c.074-.006.15,0,.225,0h3.855a2.115,2.115,0,0,1,.261.007.294.294,0,0,1,.269.4c-.077.276-.165.55-.251.824-.213.691-.429,1.381-.639,2.072-.111.363-.2.446-.583.449C3337.109-3910.431,3336.4-3910.436,3335.686-3910.436Z" transform="translate(-3261.764 3956.739)" fill="#fdd4a9"/>
        <path id="Path_147099" data-name="Path 147099" d="M4155.467-3912.465q-1.1,0-2.207,0c-.076,0-.15,0-.226,0-.116-.007-.16-.061-.129-.172.085-.312.177-.623.266-.935.022-.072.042-.145.066-.214a.507.507,0,0,1,.563-.39q1.4,0,2.808,0h1.5a2.125,2.125,0,0,1,.222.01.121.121,0,0,1,.109.128.525.525,0,0,1-.009.111c-.078.417-.153.833-.238,1.249-.036.178-.087.215-.289.217-.486,0-.973,0-1.459,0Z" transform="translate(-4066.05 3956.731)" fill="#f9d3a9"/>
        <path id="Path_147100" data-name="Path 147100" d="M2850.161-3910.64h-1.945c-.075,0-.149,0-.225,0-.306-.012-.382-.1-.323-.395.011-.048.026-.1.042-.143.283-.9.579-1.8.843-2.713a.679.679,0,0,1,.685-.506c1.409.012,2.818,0,4.227,0,.025,0,.05,0,.075,0,.309.017.4.132.309.434-.12.419-.248.836-.374,1.253-.169.56-.352,1.118-.506,1.682a.465.465,0,0,1-.415.368,1.683,1.683,0,0,1-.3.015Z" transform="translate(-2785.262 3956.944)" fill="#fdd4a9"/>
        <path id="Path_147101" data-name="Path 147101" d="M584.377-2399.8a1.7,1.7,0,0,1-1.3-.468,5.212,5.212,0,0,1-.367-.372.77.77,0,0,1-.129-.224.146.146,0,0,1,.13-.214,1.749,1.749,0,0,1,.372.011,2.94,2.94,0,0,1,1.406.65.527.527,0,0,1,.246.475.139.139,0,0,1-.141.141C584.494-2399.8,584.394-2399.8,584.377-2399.8Z" transform="translate(-562.625 2471.986)" fill="#b8344f"/>
        <path id="Path_147102" data-name="Path 147102" d="M609.765-2549.834a.841.841,0,0,1-.528.864c-.266.108-.53.218-.8.317a1.685,1.685,0,0,1-.327.068.083.083,0,0,1-.087-.121,2.215,2.215,0,0,1,.219-.3,7.47,7.47,0,0,1,1.221-1.041c.15-.1.274-.1.3.14A.667.667,0,0,1,609.765-2549.834Z" transform="translate(-587.594 2618.225)" fill="#b8344f"/>
        <path id="Path_147103" data-name="Path 147103" d="M4573.943-2528.4a.412.412,0,0,1,.364.191.974.974,0,0,1,.152.377c.017.095.111.208.037.279-.095.091-.2-.019-.3-.056-.3-.113-.6-.233-.9-.355a.09.09,0,0,1-.018-.169A1.988,1.988,0,0,1,4573.943-2528.4Z" transform="translate(-4478.499 2596.915)" fill="#b8344f"/>
        <path id="Path_147104" data-name="Path 147104" d="M2568.66-2514.25h-1.2a1.739,1.739,0,0,1-.223-.014c-.016,0-.031-.033-.041-.054s.007-.024.015-.031a.718.718,0,0,1,.088-.068c.358-.226.713-.457,1.077-.674a4.844,4.844,0,0,1,.568-.283.884.884,0,0,1,.761.022,2.821,2.821,0,0,1,.7.432c.111.1.232.212.195.38-.042.185-.215.23-.371.271a1.184,1.184,0,0,1-.3.02C2569.507-2514.249,2569.083-2514.25,2568.66-2514.25Z" transform="translate(-2510.067 2584.213)" fill="#b8344f"/>
      </g>
    </g>
  </g>
</svg>
