<svg xmlns="http://www.w3.org/2000/svg" width="20" height="20" viewBox="0 0 20 20">
  <g id="vuesax_twotone_flash-circle" data-name="vuesax/twotone/flash-circle" transform="translate(-748 -316)">
    <g id="flash-circle" transform="translate(748 316)">
      <path id="Vector" d="M16.667,8.333A8.333,8.333,0,1,1,8.333,0,8.333,8.333,0,0,1,16.667,8.333Z" transform="translate(1.667 1.667)" fill="none" stroke="#b42c4b" stroke-linecap="round" stroke-linejoin="round" stroke-width="1.3"/>
      <path id="Vector-2" data-name="Vector" d="M.524,4.16,1.9,4.5,1.107,7.7c-.183.75.183,1,.817.558L6.241,5.268c.525-.367.45-.792-.175-.95L4.69,3.977l.792-3.2c.183-.75-.183-1-.817-.558L.349,3.21C-.176,3.577-.1,4,.524,4.16Z" transform="translate(6.709 5.765)" fill="none" stroke="#ffd7ac" stroke-linecap="round" stroke-linejoin="round" stroke-width="1.3"/>
      <path id="Vector-3" data-name="Vector" d="M0,0H20V20H0Z" fill="none" opacity="0"/>
    </g>
  </g>
</svg>
