<svg xmlns="http://www.w3.org/2000/svg" width="228.903" height="192.633" viewBox="0 0 228.903 192.633">
  <g id="Group_133460" data-name="Group 133460" transform="translate(-147.935 -140.936)" opacity="0.13">
    <path id="Path_146983" data-name="Path 146983" d="M599.84-5420.292a9.787,9.787,0,0,1-2.72-1.042,60.192,60.192,0,0,1-7.962-4.575,36.913,36.913,0,0,1-11.058-11.773,32.372,32.372,0,0,1-4.258-15.375,46.73,46.73,0,0,1,2.065-14.783,74.818,74.818,0,0,1,7.871-17.267,120.523,120.523,0,0,1,11.807-16.1,159.8,159.8,0,0,1,12.063-12.552c3.415-3.191,6.959-6.241,10.591-9.19q7.642-6.209,15.816-11.685,7.625-5.134,15.614-9.695,9.042-5.156,18.437-9.629,9.907-4.707,20.161-8.615c5.374-2.054,10.8-3.97,16.287-5.684,8.26-2.58,16.6-4.871,25.083-6.619,3.21-.663,6.41-1.38,9.635-1.956,3.912-.7,7.846-1.278,11.773-1.894,4.3-.672,8.635-1.066,12.964-1.5,1.817-.185,3.642-.3,5.465-.407,3.432-.216,6.875-.305,10.293-.64a4.124,4.124,0,0,1,4.457,4.2,6.8,6.8,0,0,1-.59,2.818,11.667,11.667,0,0,1-3.539,4.527,24.019,24.019,0,0,1-8.145,4.138,21.332,21.332,0,0,1-4.265.786c-4.328.426-8.653.883-12.968,1.451q-9.349,1.233-18.608,3c-5.121.972-10.207,2.1-15.276,3.319a309.29,309.29,0,0,0-30.59,9.063q-8.591,3.025-16.976,6.606c-6.432,2.746-12.767,5.687-18.978,8.9q-8.6,4.437-16.83,9.536c-5.158,3.217-10.2,6.6-15.058,10.252q-4.9,3.672-9.559,7.662a139.19,139.19,0,0,0-11.643,11.143,93.4,93.4,0,0,0-14.78,20.461,52.4,52.4,0,0,0-5.377,15.638A33.807,33.807,0,0,0,582.9-5439.4a34.6,34.6,0,0,0,5.395,8.941,47.031,47.031,0,0,0,9.948,8.882c.441.3.885.606,1.326.914A3.157,3.157,0,0,1,599.84-5420.292Z" transform="translate(-425.892 5753.86)" fill="#d6d6d6"/>
    <path id="Path_146984" data-name="Path 146984" d="M1146.473-5967.25a5.844,5.844,0,0,1-1.71,4.431,16.46,16.46,0,0,1-6.77,4.517c-1.249.478-2.559.8-3.845,1.185-.933.275-1.914.158-2.871.359-1.254.261-2.553.3-3.832.438-1.172.126-2.348.235-3.515.4q-4.136.586-8.265,1.227c-1.906.3-3.807.626-5.705.973q-4.111.749-8.213,1.544-9.163,1.77-18.21,4.057-9.287,2.355-18.44,5.169-6.239,1.915-12.39,4.081c-3.847,1.354-7.664,2.8-11.467,4.277-4.807,1.863-9.521,3.945-14.276,5.931-1.288.537-2.547,1.144-3.816,1.731q-8.056,3.706-15.918,7.814c-4.615,2.407-9.159,4.949-13.66,7.567q-7.033,4.093-13.871,8.5-7.318,4.7-14.372,9.788-5.1,3.669-10.113,7.439c-2.226,1.684-4.383,3.453-6.573,5.182a3.535,3.535,0,0,1-.521.372.3.3,0,0,1-.271-.079.384.384,0,0,1-.041-.291,1.086,1.086,0,0,1,.157-.279,95.381,95.381,0,0,1,5.825-8.691c1.589-2.093,3.289-4.1,5.008-6.091a131.654,131.654,0,0,1,9.48-9.661c2.064-1.945,4.241-3.783,6.431-5.6,3.513-2.917,7.146-5.67,10.864-8.31,2.582-1.835,5.186-3.644,7.851-5.354q6.3-4.042,12.8-7.774c7.27-4.2,14.789-7.9,22.333-11.546,3.575-1.728,7.246-3.265,10.9-4.821,3.457-1.472,6.94-2.883,10.433-4.268,2.446-.968,4.926-1.844,7.393-2.757,5.038-1.862,10.136-3.553,15.253-5.18,3.886-1.236,7.781-2.443,11.739-3.439,1.561-.393,3.1-.882,4.657-1.275,3.016-.76,6.029-1.536,9.065-2.209,3.4-.75,6.822-1.421,10.245-2.075,2.315-.443,4.643-.822,6.973-1.183,2.17-.332,4.346-.641,6.527-.9,1.6-.187,3.223-.169,4.8-.434,2.61-.438,5.249-.194,7.867-.494a17.466,17.466,0,0,1,4.82.095,13.424,13.424,0,0,0,2.412.105,3.956,3.956,0,0,1,2.892,1.208C1145.792-5970.386,1146.715-5969.035,1146.473-5967.25Z" transform="translate(-769.674 6114.04)" fill="#d6d6d6"/>
    <path id="Path_146999" data-name="Path 146999" d="M852.167-4342.856a15.332,15.332,0,0,1-3.487-1.24,43.687,43.687,0,0,1-8.554-4.794,37.648,37.648,0,0,1-7.243-6.829,40.442,40.442,0,0,1-5.043-8.031c-.375-.772-.68-1.579-1.02-2.367a1.365,1.365,0,0,1,.036-1.244c.1-.189.186-.388.3-.568q2.217-3.554,4.442-7.1a1.992,1.992,0,0,1,.3-.379.368.368,0,0,1,.271-.107.3.3,0,0,1,.208.2,6.869,6.869,0,0,1,.055,1.122,29.679,29.679,0,0,0,.369,5.619,30.223,30.223,0,0,0,2.19,8.051,30.1,30.1,0,0,0,6.234,9.313,43.053,43.053,0,0,0,10.144,7.607C851.656-4343.454,852.1-4343.43,852.167-4342.856Z" transform="translate(-658.339 4645.423)" fill="#d6d6d6"/>
  </g>
</svg>
