<svg xmlns="http://www.w3.org/2000/svg" width="160.05" height="132.61" viewBox="0 0 160.05 132.61">
  <g id="Group_133688" data-name="Group 133688" transform="translate(-3002.145 -991.931)">
    <path id="Path_147208" data-name="Path 147208" d="M3067.571,1113.423c1.773-4.3,3.532-8.613,5.327-12.908.66-1.579,0-1.886-1.468-1.864-3.658.053-7.317-.015-10.977-.027-4.824-.016-4.951-.191-3.178-4.5,1.892-4.6,3.7-9.229,5.709-13.774.984-2.228.723-2.9-1.9-2.881-16.973.1-33.946.021-50.919.076a7.5,7.5,0,0,1-7.015-4.009,7.1,7.1,0,0,1,.349-7.794,7.485,7.485,0,0,1,6.1-3.5c1.207-.068,2.421-.012,3.917-.012-.649-3.572-1.919-6.877-1.241-10.463,2.1-11.121,11.1-17.65,22.184-15.629,2.272.414,2.388-.216,2.668-2.072a48.782,48.782,0,0,1,38.756-41.165c21.107-4.4,43.462,6.519,53.189,26.13,1.115,2.249,2.14,3.18,4.886,3.094,14.725-.463,27.544,11.9,28.21,25.951.812,17.138-13.2,29.637-27.428,29.477-13.718-.155-27.441.039-41.161-.093-2.674-.026-3.611,1.1-3.988,4.069,5.743,0,11.307-.028,16.871.025,1.031.01,2.493-.565,2.969.783.456,1.292-.949,1.878-1.738,2.583q-15.229,13.588-30.493,27.138a4.679,4.679,0,0,0-.549.718c-2.068,3.725-5.742,5.806-8.805,8.5a1.868,1.868,0,0,1-2.518-.012,1.844,1.844,0,0,1-.5-2.2C3065.555,1117.1,3065.952,1114.959,3067.571,1113.423Z" fill="#868686"/>
    <path id="Path_147209" data-name="Path 147209" d="M3075.2,1190.362c-.6,1.708-1.211,3.411-1.784,5.126-.271.809-1.031,1.734.067,2.428,1.021.645,1.7-.293,2.349-.846,2.839-2.423,5.631-4.9,8.44-7.358.9.986,2.09.6,3.161.6q9.743.05,19.488.011,13.81-.067,27.563,1.153c1.736.156,3.639.648,5.311-.5a.8.8,0,0,1,1.234.074c-.346,2.115,1.3.981,1.951,1.056,4.8.558,9.661.742,14.325,2.152.86.26,2.385.15,2.275,1.523-.089,1.112-1.46,1.347-2.362,1.611a72.277,72.277,0,0,1-12.828,2.048c-26.276,2.741-52.653,2.025-78.987,1.713-13.485-.159-27.048-.813-40.367-3.528a2.089,2.089,0,0,1-.6-.1c-.919-.528-2.6-.229-2.684-1.585-.1-1.677,1.723-1.593,2.738-1.8a170.919,170.919,0,0,1,22.213-2.672C3056.2,1190.838,3065.677,1190.2,3075.2,1190.362Z" transform="translate(-7.626 -76.939)" fill="#f0f0f0"/>
    <path id="Path_147210" data-name="Path 147210" d="M3039.184,1172.437c-.531-1.32-3.108-.981-2.639-2.833.387-1.532,2.256-1.565,3.551-1.9,1.552-.4,3.686-2.76,4.6-.524.786,1.918-2.53,1.54-3.623,2.742,2.2,3.157,2.047,3.7-1.62,5.4-2.016.935-4.029,1.882-6.082,2.729-.938.387-2.251,1.524-2.908.126-.775-1.649,1.12-1.834,2.079-2.327,2.061-1.061,4.2-1.964,6.3-2.952C3039,1172.826,3039.08,1172.585,3039.184,1172.437Z" transform="translate(-10.947 -67.806)" fill="#868686"/>
    <path id="Path_147211" data-name="Path 147211" d="M3207.986,1183.915l-1.234-.074q-3.844-1.8-7.688-3.609c-3.309-1.564-3.486-2.274-1.154-5.26-1.017-.445-1.988-.867-2.957-1.3-.693-.307-1.3-.729-.987-1.6.319-.9,1.047-.8,1.766-.538,1.138.42,2.3.8,3.4,1.3,1.152.525,2.938.489,3.18,1.956.271,1.644-1.936,1.488-2.654,2.8,2.058,1.683,4.759,2.277,7.117,3.516C3207.945,1181.732,3209.437,1182.178,3207.986,1183.915Z" transform="translate(-74.588 -69.798)" fill="#868686"/>
    <path id="Path_147212" data-name="Path 147212" d="M3175.466,1175.065a4.4,4.4,0,0,1-4.295,4.244,4.308,4.308,0,1,1,.129-8.613A4.388,4.388,0,0,1,3175.466,1175.065Z" transform="translate(-64.063 -69.539)" fill="#979797"/>
    <path id="Path_147213" data-name="Path 147213" d="M3057.989,1145.668c.041-2.116,1.132-3.536,3.23-3.593a3.193,3.193,0,0,1,3.563,3.291,3.4,3.4,0,1,1-6.794.3Z" transform="translate(-21.724 -58.406)" fill="#868686"/>
    <path id="Path_147214" data-name="Path 147214" d="M3077.775,1178.683c-.056.83-.434,1.26-.939,1.291-1.453.089-2.187.715-2.2,2.233a.958.958,0,0,1-1.069.862,1.045,1.045,0,0,1-1.047-.929c-.106-1.275-.526-2.127-1.984-2.077a1.047,1.047,0,0,1-.543-.249c-.452-.314-.761-1.161-.438-1.212,2.291-.362,2.48-2.988,4.242-3.755.607-.264.988.6.951,1.238-.079,1.378.662,1.744,1.866,1.727A1.036,1.036,0,0,1,3077.775,1178.683Z" transform="translate(-26.172 -71.137)" fill="#868686"/>
    <path id="Path_147215" data-name="Path 147215" d="M3196.839,1147.189c-2.072,1.43-1.08,2.91-.223,4.489.217.4-.736,1.088-.914.846-1.635-2.239-4.555,1.226-5.346-.876-.395-1.05.967-2.993-.151-4.714-.292-.45.872-1.322,1.465-.706,1.294,1.342,2.223,1.091,3.486-.038C3195.848,1145.574,3196.344,1146.417,3196.839,1147.189Z" transform="translate(-73.139 -59.925)" fill="#868686"/>
    <path id="Path_147216" data-name="Path 147216" d="M3014.252,1060.779c.007,1.017-.454,1.518-1.121,1.243a7.254,7.254,0,0,1-3.594-3.492.879.879,0,0,1,.971-1.169C3012.325,1057.933,3013.313,1059.485,3014.252,1060.779Z" transform="translate(-2.848 -25.442)" fill="#979797"/>
    <path id="Path_147217" data-name="Path 147217" d="M3028,1051.761c.326-.94-.591-2.562,1.152-2.628,1.4-.053,1.274,1.345,1.237,2.307-.043,1.119.357,2.834-1.361,2.811C3027.74,1054.233,3028.184,1052.688,3028,1051.761Z" transform="translate(-10.058 -22.251)" fill="#969696"/>
    <path id="Path_147218" data-name="Path 147218" d="M3004.612,1078.359c-1.088,0-2.2.11-2.115-.991.13-1.721,1.714-1.381,2.846-1.494.846-.085,2.2-.318,1.993,1.03C3007.1,1078.435,3005.409,1077.985,3004.612,1078.359Z" transform="translate(-0.135 -32.627)" fill="#9b9b9b"/>
    <path id="Path_147219" data-name="Path 147219" d="M3130.041,1080.343c-7.924.039-15.848.108-23.771.111q-46.792.019-93.583,0c-3.78,0-5.771-1.236-6.415-3.874a5.311,5.311,0,0,1,4.923-6.627,37.6,37.6,0,0,1,4.875.034c2.377.13,2.963-.7,1.834-2.859a15.59,15.59,0,0,1-1.413-11.488,16.231,16.231,0,0,1,20.01-11.743c4.017,1.113,3.963,1.108,4.421-3.062a42.97,42.97,0,0,1,11.11-25.134c17.012-16.772,49.949-12.921,63.423,13.008,1.672,3.218,3.463,4.532,7.171,4.49,11.293-.129,21.563,10.5,22.305,22.474.565,9.118-2.81,16.39-9.775,22.18C3133.616,1079.133,3131.787,1079.6,3130.041,1080.343Z" transform="translate(-1.542 -5.304)" fill="#f6f6f6"/>
    <path id="Path_147220" data-name="Path 147220" d="M3159.279,1076.591c5.079-3.283,9.774-7,12.15-12.777,5.973-14.539-2.007-29.706-16.254-33.442a2.112,2.112,0,0,0-.9-.133c-6.012,1.264-8.794-1.707-11.606-6.878-6.44-11.844-17.069-18.658-30.4-20.37a38.53,38.53,0,0,0-29.173,7.965,3.37,3.37,0,0,1-1.83.993c7.962-9.521,18.319-14.647,30.5-15.81a46.308,46.308,0,0,1,47.068,27.775c.791,1.846,1.708,2.449,3.908,2.2,12.958-1.47,25.537,8.191,27.571,20.935a25.573,25.573,0,0,1-20.1,29.311C3166.636,1077.052,3162.934,1076.741,3159.279,1076.591Z" transform="translate(-30.781 -1.552)" fill="#eaecee"/>
    <path id="Path_147221" data-name="Path 147221" d="M3122.664,1137.158c-.431,1.922.435,2.5,2.277,2.47,5.272-.074,10.546-.026,16.843-.026l-35.235,31.447-.54-.318c1.736-4.468,3.449-8.944,5.213-13.4,1.978-5,2-4.989-3.441-4.991h-12.692l6.277-15.2C3104.478,1135.6,3119.817,1135.608,3122.664,1137.158Z" transform="translate(-36.155 -56.04)" fill="#ffd7ac"/>
    <path id="Path_147222" data-name="Path 147222" d="M3126.66,1135.5l-21.3-.016c.559-2.865,2.193-3.855,5.171-3.686,4.745.269,9.517.04,14.276.1,1.06.013,2.582-.6,3.091.416C3128.431,1133.374,3127.348,1134.516,3126.66,1135.5Z" transform="translate(-40.152 -54.379)" fill="#e4ba8e"/>
    <path id="Path_147223" data-name="Path 147223" d="M3172.743,1178.428a1.946,1.946,0,0,1-2.248-1.713,1.775,1.775,0,0,1,2-2.073,1.9,1.9,0,0,1,.243,3.786Z" transform="translate(-65.485 -71.076)" fill="#f4f4f4"/>
    <path id="Path_147224" data-name="Path 147224" d="M3062.85,1148.164c-.806-.091-1.258-.465-1.211-1.164a1.079,1.079,0,0,1,1.208-1.05.919.919,0,0,1,.933.957A1.253,1.253,0,0,1,3062.85,1148.164Z" transform="translate(-23.142 -59.914)" fill="#e2e2e2"/>
    <path id="Path_147225" data-name="Path 147225" d="M3137.789,1090.919c1.716,0,3.431-.016,5.147.007.84.011,1.732.154,1.687,1.244-.035.848-.778,1.121-1.534,1.123-3.733.011-7.467.014-11.2-.021-.758-.007-1.449-.368-1.392-1.246s.784-1.088,1.54-1.094c1.917-.013,3.834,0,5.752,0Z" transform="translate(-49.929 -38.505)" fill="#999"/>
    <path id="Path_147226" data-name="Path 147226" d="M3094.907,1067.371c-.2,1.353-.951,2.3-2.336,2.267a2.127,2.127,0,0,1-2.292-2.263,2.184,2.184,0,0,1,2.288-2.285C3094.049,1065.043,3094.624,1066.085,3094.907,1067.371Z" transform="translate(-34.284 -28.459)" fill="#9b9b9b"/>
    <path id="Path_147227" data-name="Path 147227" d="M3189.4,1067.153c-.016,1.477-.706,2.484-2.114,2.476a2.075,2.075,0,0,1-2.264-2.275,2.163,2.163,0,0,1,2.318-2.25C3188.676,1065.084,3189.292,1065.944,3189.4,1067.153Z" transform="translate(-71.14 -28.465)" fill="#999"/>
  </g>
</svg>
