<svg xmlns="http://www.w3.org/2000/svg" width="20.159" height="20.158" viewBox="0 0 20.159 20.158">
  <g id="Group_134101" data-name="Group 134101" transform="translate(5359 -8604)">
    <g id="Group_134100" data-name="Group 134100" transform="translate(-43 276)">
      <path id="Vector" d="M5.659,2.829A2.829,2.829,0,1,1,2.829,0a3.171,3.171,0,0,1,.74.1A2.785,2.785,0,0,1,5.659,2.829Z" transform="translate(-5302.5 8341.5)" fill="#b42c4b" stroke="#b42c4b" stroke-linecap="round" stroke-linejoin="round" stroke-width="2"/>
      <rect id="Rectangle_110740" data-name="Rectangle 110740" width="5" height="1.5" transform="translate(-5302.171 8343.579)" fill="#ffd7ac"/>
    </g>
    <g id="user-edit" transform="translate(-5359 8604)">
      <path id="Vector-2" data-name="Vector" d="M8.306,4.153A4.153,4.153,0,1,1,4.153,0,4.153,4.153,0,0,1,8.306,4.153Z" transform="translate(5.847 1.661)" fill="none" stroke="#b42c4b" stroke-linecap="round" stroke-linejoin="round" stroke-width="1.3"/>
      <path id="Vector-3" data-name="Vector" d="M0,5.815C0,2.6,3.2,0,7.135,0A8.557,8.557,0,0,1,9.6.357" transform="translate(2.832 12.524)" fill="none" stroke="#ffd7ac" stroke-linecap="round" stroke-linejoin="round" stroke-width="1.5"/>
      <path id="Vector-4" data-name="Vector" d="M0,0H20V20H0Z" fill="none" opacity="0"/>
    </g>
  </g>
</svg>
