<svg xmlns="http://www.w3.org/2000/svg" width="16.889" height="29.553" viewBox="0 0 16.889 29.553">
  <g id="_3g" data-name="3g" transform="translate(-6)">
    <path id="Path_148038" data-name="Path 148038" d="M11.074,24.258H7.555a1.055,1.055,0,1,1,0-2.111h3.518a.352.352,0,0,0,.352-.352V15.463a.352.352,0,0,0-.352-.352H7.555a1.055,1.055,0,1,1,0-2.111h3.518a2.465,2.465,0,0,1,2.463,2.463V21.8A2.465,2.465,0,0,1,11.074,24.258Z" transform="translate(0.204 5.295)" fill="#b42c4b"/>
    <path id="Path_148039" data-name="Path 148039" d="M12.481,18.361H7.555a1.055,1.055,0,0,1,0-2.111h4.926a1.055,1.055,0,0,1,0,2.111Z" transform="translate(0.204 6.619)" fill="#b42c4b"/>
    <path id="Path_148040" data-name="Path 148040" d="M18.481,24.258H14.963A2.465,2.465,0,0,1,12.5,21.8V15.463A2.465,2.465,0,0,1,14.963,13h3.518a1.055,1.055,0,1,1,0,2.111H14.963a.352.352,0,0,0-.352.352V21.8a.352.352,0,0,0,.352.352h2.463V20.037H16.37a1.055,1.055,0,1,1,0-2.111h2.111a1.056,1.056,0,0,1,1.055,1.055V23.2A1.056,1.056,0,0,1,18.481,24.258Z" transform="translate(2.648 5.295)" fill="#b42c4b"/>
    <path id="Path_148041" data-name="Path 148041" d="M13.389,5.625a1.059,1.059,0,0,1-.785-.349L10.222,2.629,7.841,5.276A1.056,1.056,0,0,1,6.27,3.863L9.437.345a1.09,1.09,0,0,1,1.569,0l3.166,3.518a1.055,1.055,0,0,1-.784,1.762Z" transform="translate(0 0.004)" fill="#ffd7ac"/>
    <path id="Path_148042" data-name="Path 148042" d="M16.222,12.629a1.058,1.058,0,0,1-.785-.349L12.27,8.762a1.056,1.056,0,1,1,1.571-1.413L16.222,10,18.6,7.349a1.056,1.056,0,1,1,1.571,1.413L17.007,12.28a1.058,1.058,0,0,1-.785.349Z" transform="translate(2.444 2.851)" fill="#ffd7ac"/>
    <path id="Path_148043" data-name="Path 148043" d="M9.305,0A1.056,1.056,0,0,0,8.25,1.055V14.425a1.055,1.055,0,1,0,2.111,0V1.055A1.056,1.056,0,0,0,9.305,0Z" transform="translate(0.917)" fill="#ffd7ac"/>
    <path id="Path_148044" data-name="Path 148044" d="M15.305,0A1.056,1.056,0,0,0,14.25,1.055V14.425a1.055,1.055,0,1,0,2.111,0V1.055A1.056,1.056,0,0,0,15.305,0Z" transform="translate(3.36)" fill="#ffd7ac"/>
  </g>
</svg>
