<svg xmlns="http://www.w3.org/2000/svg" width="38.9" height="38.9" viewBox="0 0 38.9 38.9">
  <g id="vuesax_bulk_briefcase" data-name="vuesax/bulk/briefcase" transform="translate(-136.08 -163.472) rotate(-9)">
    <g id="briefcase" transform="translate(108 188)">
      <path id="Vector" d="M27.04,7.381c-1.2-1.332-3.216-2-6.134-2h-.34V5.327c0-2.38,0-5.327-5.327-5.327H13.086C7.759,0,7.759,2.961,7.759,5.327V5.4h-.34c-2.932,0-4.93.666-6.134,2A6.442,6.442,0,0,0,.067,12.481l.014.1.142,1.488a.309.309,0,0,0,.071.057c.468.312.949.623,1.459.907.2.127.411.241.623.354a24.318,24.318,0,0,0,7.792,2.663c.128,1.332.708,2.89,3.811,2.89s3.712-1.544,3.811-2.918a23.841,23.841,0,0,0,8.2-2.947c.085-.042.142-.085.212-.127a18.09,18.09,0,0,0,1.856-1.2.171.171,0,0,0,.071-.071l.057-.51.071-.666c.014-.085.014-.156.028-.255A6.279,6.279,0,0,0,27.04,7.381Zm-11.333,9.7c0,1.5,0,1.728-1.743,1.728s-1.742-.269-1.742-1.714V15.314h3.485ZM9.785,5.383V5.327c0-2.408,0-3.3,3.3-3.3h2.153c3.3,0,3.3.907,3.3,3.3V5.4H9.785Z" transform="translate(2.837 2.508)" fill="#b42c4b"/>
      <path id="Vector-2" data-name="Vector" d="M25.982,1.275l-.212.128a24.136,24.136,0,0,1-8.2,2.947c-.113,1.36-.708,2.918-3.811,2.918s-3.7-1.544-3.811-2.89A23.65,23.65,0,0,1,2.153,1.714c-.212-.113-.425-.227-.623-.354C1.02,1.077.538.765.071.453A.309.309,0,0,1,0,.4L.864,9.619c.3,2.819,1.459,5.723,7.692,5.723H19.352c6.233,0,7.4-2.9,7.693-5.737L27.937,0a.171.171,0,0,1-.071.071A17.653,17.653,0,0,1,25.982,1.275Z" transform="translate(3.06 16.15)" fill="#ffd7ac"/>
      <path id="Vector-3" data-name="Vector" d="M0,0H34V34H0Z" fill="none" opacity="0"/>
      <path id="Vector-4" data-name="Vector" d="M6.729,2.125H1.063A1.07,1.07,0,0,1,0,1.063,1.07,1.07,0,0,1,1.063,0H6.729A1.07,1.07,0,0,1,7.792,1.063,1.07,1.07,0,0,1,6.729,2.125Z" transform="translate(13.104 26.354)" fill="#b42c4b"/>
    </g>
  </g>
</svg>
