<svg xmlns="http://www.w3.org/2000/svg" width="30" height="30" viewBox="0 0 30 30">
  <g id="vuesax_twotone_music-playlist" data-name="vuesax/twotone/music-playlist" transform="translate(-300 -508)">
    <g id="music-playlist" transform="translate(300 508)">
      <path id="Vector" d="M18.75,18.75H6.25C2.5,18.75,0,16.875,0,12.5V6.25C0,1.875,2.5,0,6.25,0h12.5C22.5,0,25,1.875,25,6.25V12.5C25,16.875,22.5,18.75,18.75,18.75Z" transform="translate(2.5 8.75)" fill="none" stroke="#b42c4b" stroke-linecap="round" stroke-linejoin="round" stroke-width="1.5"/>
      <path id="Vector-2" data-name="Vector" d="M0,0H15" transform="translate(7.5 5.625)" fill="none" stroke="#b42c4b" stroke-linecap="round" stroke-linejoin="round" stroke-width="1.5"/>
      <path id="Vector-3" data-name="Vector" d="M0,0H7.5" transform="translate(11.25 2.5)" fill="none" stroke="#b42c4b" stroke-linecap="round" stroke-linejoin="round" stroke-width="1.5"/>
      <g id="Group_112" data-name="Group 112" transform="translate(9.4 12.883)">
        <path id="Vector-4" data-name="Vector" d="M3.425,1.712A1.712,1.712,0,1,1,1.712,0,1.712,1.712,0,0,1,3.425,1.712Z" transform="translate(0 7.579)" fill="none" stroke="#ffd7ac" stroke-linecap="round" stroke-linejoin="round" stroke-width="1.5"/>
        <path id="Vector-5" data-name="Vector" d="M6.275,8.154V1.467c0-1.425-.888-1.625-1.8-1.375L1.05,1.029A1.366,1.366,0,0,0,0,2.4V9.292" transform="translate(3.425)" fill="none" stroke="#ffd7ac" stroke-linecap="round" stroke-linejoin="round" stroke-width="1.5"/>
        <path id="Vector-6" data-name="Vector" d="M3.425,1.712A1.713,1.713,0,1,1,1.712,0,1.713,1.713,0,0,1,3.425,1.712Z" transform="translate(6.275 6.442)" fill="none" stroke="#ffd7ac" stroke-linecap="round" stroke-linejoin="round" stroke-width="1.5"/>
        <path id="Vector-7" data-name="Vector" d="M0,1.712,6.275,0" transform="translate(3.425 2.692)" fill="none" stroke="#ffd7ac" stroke-linecap="round" stroke-linejoin="round" stroke-width="1.5"/>
      </g>
      <path id="Vector-8" data-name="Vector" d="M0,0H30V30H0Z" fill="none" opacity="0"/>
    </g>
  </g>
</svg>
