<svg id="translate" xmlns="http://www.w3.org/2000/svg" width="20" height="20" viewBox="0 0 20 20">
  <path id="Vector" d="M3.567,3.558,1.783,0,0,3.558" transform="translate(12.317 12)" fill="none" stroke="#b42c4b" stroke-linecap="round" stroke-linejoin="round" stroke-width="1"/>
  <path id="Vector-2" data-name="Vector" d="M0,0H2.933" transform="translate(12.642 14.925)" fill="none" stroke="#b42c4b" stroke-linecap="round" stroke-linejoin="round" stroke-width="1"/>
  <path id="Vector-3" data-name="Vector" d="M4.233,8.467A4.233,4.233,0,1,1,8.467,4.233,4.234,4.234,0,0,1,4.233,8.467Z" transform="translate(9.867 9.867)" fill="none" stroke="#b42c4b" stroke-linecap="round" stroke-linejoin="round" stroke-width="1"/>
  <path id="Vector-4" data-name="Vector" d="M2.517,0H5.783C7.508,0,8.342.833,8.3,2.517V5.783A2.158,2.158,0,0,1,5.783,8.3H2.517C.833,8.333,0,7.5,0,5.775V2.508A2.217,2.217,0,0,1,2.517,0Z" transform="translate(1.667 1.667)" fill="none" stroke="#b42c4b" stroke-linecap="round" stroke-linejoin="round" stroke-width="1"/>
  <g id="Group" transform="translate(4.117 4.308)">
    <path id="Vector-5" data-name="Vector" d="M3.383,0H0" transform="translate(0.008 0.567)" fill="none" stroke="#b42c4b" stroke-linecap="round" stroke-linejoin="round" stroke-width="1"/>
    <path id="Vector-6" data-name="Vector" d="M0,0V.567" transform="translate(1.692)" fill="none" stroke="#b42c4b" stroke-linecap="round" stroke-linejoin="round" stroke-width="1"/>
    <path id="Vector-7" data-name="Vector" d="M2.542,0A2.6,2.6,0,0,1,0,2.642" transform="translate(0 0.558)" fill="none" stroke="#b42c4b" stroke-linecap="round" stroke-linejoin="round" stroke-width="1"/>
    <path id="Vector-8" data-name="Vector" d="M1.542.842A1.937,1.937,0,0,1,0,0" transform="translate(1.85 2.358)" fill="none" stroke="#b42c4b" stroke-linecap="round" stroke-linejoin="round" stroke-width="1"/>
  </g>
  <path id="Vector-9" data-name="Vector" d="M0,0A5.829,5.829,0,0,0,5.833,5.833L4.958,4.375" transform="translate(1.667 12.5)" fill="none" stroke="#ffd7ac" stroke-linecap="round" stroke-linejoin="round" stroke-width="1"/>
  <path id="Vector-10" data-name="Vector" d="M5.833,5.833A5.829,5.829,0,0,0,0,0L.875,1.458" transform="translate(12.5 1.667)" fill="none" stroke="#ffd7ac" stroke-linecap="round" stroke-linejoin="round" stroke-width="1"/>
  <path id="Vector-11" data-name="Vector" d="M0,0H20V20H0Z" transform="translate(20 20) rotate(180)" fill="none" opacity="0"/>
</svg>
