<svg xmlns="http://www.w3.org/2000/svg" width="20" height="20" viewBox="0 0 20 20">
  <g id="vuesax_twotone_sms-tracking" data-name="vuesax/twotone/sms-tracking" transform="translate(-620 -252)">
    <g id="sms-tracking" transform="translate(620 252)">
      <path id="Vector" d="M0,4.167C0,1.25,1.667,0,4.167,0H12.5c2.5,0,4.167,1.25,4.167,4.167V10c0,2.917-1.667,4.167-4.167,4.167H4.167" transform="translate(1.667 2.917)" fill="none" stroke="#b0b0b0" stroke-linecap="round" stroke-linejoin="round" stroke-width="1.5"/>
      <path id="Vector-2" data-name="Vector" d="M8.333,0,5.725,2.083a2.638,2.638,0,0,1-3.125,0L0,0" transform="translate(5.833 7.5)" fill="none" stroke="#b0b0b0" stroke-linecap="round" stroke-linejoin="round" stroke-width="1.5" opacity="0.4"/>
      <path id="Vector-3" data-name="Vector" d="M0,0H5" transform="translate(1.667 13.75)" fill="none" stroke="#b0b0b0" stroke-linecap="round" stroke-linejoin="round" stroke-width="1.5" opacity="0.4"/>
      <path id="Vector-4" data-name="Vector" d="M0,0H2.5" transform="translate(1.667 10.417)" fill="none" stroke="#b0b0b0" stroke-linecap="round" stroke-linejoin="round" stroke-width="1.5" opacity="0.4"/>
      <path id="Vector-5" data-name="Vector" d="M0,0H20V20H0Z" fill="none" opacity="0"/>
    </g>
  </g>
</svg>
