<svg xmlns="http://www.w3.org/2000/svg" width="24" height="24" viewBox="0 0 24 24">
  <g id="Group_133561" data-name="Group 133561" transform="translate(-317 -283)">
    <rect id="Rectangle_110426" data-name="Rectangle 110426" width="24" height="24" transform="translate(317 283)" fill="#f1f1f1" opacity="0"/>
    <g id="vuesax_twotone_eye" data-name="vuesax/twotone/eye" transform="translate(209 95)">
      <g id="eye">
        <path id="Vector" d="M7.16,3.58A3.58,3.58,0,1,1,3.58,0,3.576,3.576,0,0,1,7.16,3.58Z" transform="translate(116.42 196.42)" fill="none" stroke="#b0b0b0" stroke-linecap="round" stroke-linejoin="round" stroke-width="1.5" opacity="0.4"/>
        <path id="Vector-2" data-name="Vector" d="M9.785,16.55c3.53,0,6.82-2.08,9.11-5.68a5.326,5.326,0,0,0,0-5.19C16.6,2.08,13.315,0,9.785,0S2.965,2.08.675,5.68a5.326,5.326,0,0,0,0,5.19C2.965,14.47,6.255,16.55,9.785,16.55Z" transform="translate(110.215 191.72)" fill="none" stroke="#b0b0b0" stroke-linecap="round" stroke-linejoin="round" stroke-width="1.5"/>
        <path id="Vector-3" data-name="Vector" d="M0,0H24V24H0Z" transform="translate(132 212) rotate(180)" fill="none" opacity="0"/>
      </g>
    </g>
  </g>
</svg>
