<svg xmlns="http://www.w3.org/2000/svg" width="29" height="29" viewBox="0 0 29 29">
  <g id="Group_133467" data-name="Group 133467" transform="translate(-286 -757)">
    <rect id="Rectangle_110395" data-name="Rectangle 110395" width="29" height="29" transform="translate(286 757)" fill="#f1f1f1" opacity="0"/>
    <g id="Iconly_Curved_Heart" data-name="Iconly/Curved/Heart" transform="translate(289 761.514)">
      <g id="Heart">
        <path id="Stroke_1" data-name="Stroke 1" d="M.45,10.993C-.849,6.853.67,1.707,4.928.308A5.825,5.825,0,0,1,11.5,2.4,5.66,5.66,0,0,1,18.062.308c4.256,1.4,5.784,6.545,4.486,10.685-2.022,6.561-9.076,9.979-11.048,9.979S2.539,17.631.45,10.993Z" transform="translate(0 0)" fill="#efefef"/>
        <path id="Stroke_3" data-name="Stroke 3" d="M0,0A2.649,2.649,0,0,1,2.321,2.993" transform="translate(16.026 4.96)" fill="none" stroke="#cecece" stroke-linecap="round" stroke-linejoin="round" stroke-miterlimit="10" stroke-width="1.5"/>
      </g>
    </g>
  </g>
</svg>
