<svg xmlns="http://www.w3.org/2000/svg" width="42" height="42" viewBox="0 0 42 42">
  <g id="Group_133524" data-name="Group 133524" transform="translate(-298 -457)">
    <rect id="Rectangle_110405" data-name="Rectangle 110405" width="42" height="42" rx="8" transform="translate(298 457)" fill="#ffd7ac" opacity="0.2"/>
    <g id="vuesax_bulk_global-search" data-name="vuesax/bulk/global-search" transform="translate(-379 276)">
      <g id="global-search" transform="translate(684 188)">
        <path id="Vector" d="M0,0H28V28H0Z" transform="translate(28 28) rotate(180)" fill="none" opacity="0"/>
        <path id="Vector-2" data-name="Vector" d="M8.5,7.3l-.84-.84a4.172,4.172,0,1,0-3.488,1.89,4.127,4.127,0,0,0,2.287-.688l.84.84a.849.849,0,0,0,.6.245.829.829,0,0,0,.595-.245A.849.849,0,0,0,8.5,7.3Z" transform="translate(16.917 16.917)" fill="#ffd7ac"/>
        <path id="Vector-3" data-name="Vector" d="M.023,0C.023.035,0,.082,0,.117a11.076,11.076,0,0,0,4.97,4.97c.035,0,.082-.023.117-.023A33.487,33.487,0,0,1,4.165.933,35.458,35.458,0,0,1,.023,0Z" transform="translate(2.345 17.068)" fill="#b42c4b"/>
        <path id="Vector-4" data-name="Vector" d="M5.238,5.238A11.083,11.083,0,0,0,0,0,33.318,33.318,0,0,1,1,4.235,31.441,31.441,0,0,1,5.238,5.238Z" transform="translate(17.01 2.263)" fill="#b42c4b"/>
        <path id="Vector-5" data-name="Vector" d="M0,5.145a33.97,33.97,0,0,1,4.247-1A35.573,35.573,0,0,1,5.168.023C5.133.023,5.087,0,5.052,0A11.13,11.13,0,0,0,0,5.145Z" transform="translate(2.252 2.357)" fill="#b42c4b"/>
        <path id="Vector-6" data-name="Vector" d="M7.747,5.1A31.793,31.793,0,0,0,6.615.6,1.548,1.548,0,0,1,6.58.35,11.468,11.468,0,0,0,3.873,0,10.986,10.986,0,0,0,1.155.35,1.92,1.92,0,0,1,1.132.6,33.461,33.461,0,0,0,0,5.1,35.826,35.826,0,0,1,7.747,5.1Z" transform="translate(8.377 1.155)" fill="#b42c4b"/>
        <path id="Vector-7" data-name="Vector" d="M5.1,0a31.4,31.4,0,0,0-4.5,1.132,1.548,1.548,0,0,1-.245.035A11.468,11.468,0,0,0,0,3.873,10.986,10.986,0,0,0,.35,6.592a1.921,1.921,0,0,1,.245.023A33.026,33.026,0,0,0,5.1,7.747,35.826,35.826,0,0,1,5.1,0Z" transform="translate(1.155 8.377)" fill="#b42c4b"/>
        <path id="Vector-8" data-name="Vector" d="M4.748,1.167A.954.954,0,0,1,4.5,1.132,33.461,33.461,0,0,0,0,0,34.3,34.3,0,0,1,0,7.735,31.793,31.793,0,0,0,4.5,6.6a1.588,1.588,0,0,1,.245-.023A11.567,11.567,0,0,0,5.1,3.862,10.943,10.943,0,0,0,4.748,1.167Z" transform="translate(18.235 8.377)" fill="#b42c4b"/>
        <path id="Vector-9" data-name="Vector" d="M0,0A31.4,31.4,0,0,0,1.132,4.5a1.588,1.588,0,0,1,.023.245,11.566,11.566,0,0,0,2.718.35,10.893,10.893,0,0,0,2.707-.35A2.061,2.061,0,0,1,6.615,4.5,33.025,33.025,0,0,0,7.747,0,35.773,35.773,0,0,1,3.873.245C2.578.233,1.283.14,0,0Z" transform="translate(8.377 18.247)" fill="#b42c4b"/>
        <path id="Vector-10" data-name="Vector" d="M.262.262a32.9,32.9,0,0,0,0,8.295,32.9,32.9,0,0,0,8.295,0,32.9,32.9,0,0,0,0-8.295A32.9,32.9,0,0,0,.262.262Z" transform="translate(7.846 7.846)" fill="#b42c4b"/>
        <circle id="Ellipse_7369" data-name="Ellipse 7369" cx="1.5" cy="1.5" r="1.5" transform="translate(19.5 19.6)" fill="#b42c4b"/>
      </g>
    </g>
  </g>
</svg>
