<svg xmlns="http://www.w3.org/2000/svg" width="30" height="30" viewBox="0 0 30 30">
  <g id="vuesax_twotone_key" data-name="vuesax/twotone/key" transform="translate(-684 -188)">
    <g id="key" transform="translate(684 188)">
      <path id="Vector" d="M0,0,2.875,2.875" transform="translate(8.613 21.863)" fill="none" stroke="#ffd7ac" stroke-linecap="round" stroke-linejoin="round" stroke-width="1.5"/>
      <path id="Vector-2" data-name="Vector" d="M3.75,1.875A1.875,1.875,0,1,1,1.875,0,1.875,1.875,0,0,1,3.75,1.875Z" transform="translate(16.25 10)" fill="none" stroke="#ffd7ac" stroke-linecap="round" stroke-linejoin="round" stroke-width="1.5"/>
      <path id="Vector-3" data-name="Vector" d="M22.241,16.153a9.468,9.468,0,0,1-9.5,2.337L6.853,24.366a2.419,2.419,0,0,1-1.863.612L2.266,24.6A2.36,2.36,0,0,1,.391,22.728L.016,20a2.519,2.519,0,0,1,.613-1.863L6.5,12.266a9.464,9.464,0,1,1,15.738,3.888Z" transform="translate(2.497 2.509)" fill="none" stroke="#b42c4b" stroke-linecap="round" stroke-linejoin="round" stroke-width="1.5"/>
      <path id="Vector-4" data-name="Vector" d="M0,0H30V30H0Z" transform="translate(30 30) rotate(180)" fill="none" opacity="0"/>
    </g>
  </g>
</svg>
