<svg xmlns="http://www.w3.org/2000/svg" width="30" height="30" viewBox="0 0 30 30">
  <g id="vuesax_twotone_milk" data-name="vuesax/twotone/milk" transform="translate(-428 -636)">
    <g id="milk" transform="translate(428 636)">
      <path id="Vector" d="M15,1.275v5a3.761,3.761,0,0,1-3.75,3.75H3.75A3.761,3.761,0,0,1,0,6.275V0L4.863.025A5.888,5.888,0,0,1,7.5.65a5.9,5.9,0,0,0,2.65.625Z" transform="translate(7.5 17.475)" fill="none" stroke="#b42c4b" stroke-linecap="round" stroke-linejoin="round" stroke-width="1.5"/>
      <path id="Vector-2" data-name="Vector" d="M15,7.288V12.5H10.15a5.9,5.9,0,0,1-2.65-.625,5.888,5.888,0,0,0-2.637-.625L0,11.225V7.288A2.861,2.861,0,0,1,.738,5.513l2.65-2.65a1.261,1.261,0,0,0,.362-.875V0h7.5V1.987a1.261,1.261,0,0,0,.362.875l2.65,2.65A2.861,2.861,0,0,1,15,7.288Z" transform="translate(7.5 6.25)" fill="none" stroke="#ffd7ac" stroke-linecap="round" stroke-linejoin="round" stroke-width="1.7"/>
      <path id="Vector-3" data-name="Vector" d="M0,1.25V0" transform="translate(22.5 18.75)" fill="none" stroke="#b42c4b" stroke-linecap="round" stroke-linejoin="round" stroke-width="1.5"/>
      <path id="Vector-4" data-name="Vector" d="M0,1.25V0" transform="translate(7.5 17.475)" fill="none" stroke="#b42c4b" stroke-linecap="round" stroke-linejoin="round" stroke-width="1.5"/>
      <path id="Vector-5" data-name="Vector" d="M8.125,3.75H1.875a1.875,1.875,0,0,1,0-3.75h6.25a1.875,1.875,0,0,1,0,3.75Z" transform="translate(10 2.5)" fill="none" stroke="#b42c4b" stroke-linecap="round" stroke-linejoin="round" stroke-width="1.5"/>
      <path id="Vector-6" data-name="Vector" d="M0,0H30V30H0Z" fill="none" opacity="0"/>
    </g>
  </g>
</svg>
