<svg xmlns="http://www.w3.org/2000/svg" width="30" height="30" viewBox="0 0 30 30">
  <g id="vuesax_twotone_global-search" data-name="vuesax/twotone/global-search" transform="translate(-684 -188)">
    <g id="global-search" transform="translate(684 188)">
      <g id="Group" transform="translate(2.496 2.496)">
        <g id="Group_515" data-name="Group 515" transform="translate(1.248 1.248)">
          <path id="Vector" d="M.577,0H1.825a35.615,35.615,0,0,0,0,22.511H.577" transform="translate(5.675)" fill="none" stroke="#ffd7ac" stroke-linecap="round" stroke-linejoin="round" stroke-width="1.5"/>
          <path id="Vector-2" data-name="Vector" d="M0,0A35.64,35.64,0,0,1,1.822,11.233" transform="translate(15.01)" fill="none" stroke="#ffd7ac" stroke-linecap="round" stroke-linejoin="round" stroke-width="1.5"/>
          <path id="Vector-3" data-name="Vector" d="M0,1.248V0A35.64,35.64,0,0,0,11.233,1.822" transform="translate(0 15.01)" fill="none" stroke="#ffd7ac" stroke-linecap="round" stroke-linejoin="round" stroke-width="1.5"/>
          <path id="Vector-4" data-name="Vector" d="M0,1.825a35.615,35.615,0,0,1,22.511,0" transform="translate(0 5.676)" fill="none" stroke="#ffd7ac" stroke-linecap="round" stroke-linejoin="round" stroke-width="1.5"/>
        </g>
        <path id="Vector-5" data-name="Vector" d="M25.007,12.5a12.5,12.5,0,1,0-12.5,12.5" fill="none" stroke="#b42c4b" stroke-linecap="round" stroke-linejoin="round" stroke-width="1.5"/>
      </g>
      <path id="Vector-6" data-name="Vector" d="M7.988,3.994A3.994,3.994,0,1,1,3.994,0,3.994,3.994,0,0,1,7.988,3.994Z" transform="translate(18.767 18.767)" fill="none" stroke="#b42c4b" stroke-linecap="round" stroke-linejoin="round" stroke-width="1.5"/>
      <path id="Vector-7" data-name="Vector" d="M1.248,1.248,0,0" transform="translate(26.256 26.256)" fill="none" stroke="#b42c4b" stroke-linecap="round" stroke-linejoin="round" stroke-width="1.5"/>
      <path id="Vector-8" data-name="Vector" d="M0,0H30V30H0Z" transform="translate(30 30) rotate(180)" fill="none" opacity="0"/>
    </g>
  </g>
</svg>
    