<svg xmlns="http://www.w3.org/2000/svg" width="20" height="20" viewBox="0 0 20 20">
  <g id="vuesax_twotone_call-calling" data-name="vuesax/twotone/call-calling" transform="translate(-172 -188)">
    <g id="call-calling" transform="translate(172 188)">
      <path id="Vector" d="M16.638,13.605a2.121,2.121,0,0,1-.208.908,3.438,3.438,0,0,1-.567.85,3.756,3.756,0,0,1-1.366.983,4.184,4.184,0,0,1-1.625.317,6.943,6.943,0,0,1-2.716-.608A14.634,14.634,0,0,1,7.29,14.4a23.953,23.953,0,0,1-2.733-2.333A23.673,23.673,0,0,1,2.233,9.348,14.853,14.853,0,0,1,.6,6.507,7.017,7.017,0,0,1,0,3.782,4.31,4.31,0,0,1,.3,2.174,3.835,3.835,0,0,1,1.258.783,2.441,2.441,0,0,1,2.991,0a1.566,1.566,0,0,1,.675.15,1.358,1.358,0,0,1,.558.467L6.157,3.341a2.851,2.851,0,0,1,.333.583,1.317,1.317,0,0,1,.117.508,1.131,1.131,0,0,1-.175.592,2.834,2.834,0,0,1-.467.592l-.633.658a.446.446,0,0,0-.133.333.756.756,0,0,0,.025.192c.025.067.05.117.067.167a6.914,6.914,0,0,0,.775,1.066c.375.433.775.875,1.208,1.316.45.442.883.85,1.325,1.225a6.394,6.394,0,0,0,1.075.766c.042.017.092.042.15.067a.575.575,0,0,0,.208.033.458.458,0,0,0,.342-.142l.633-.625a2.556,2.556,0,0,1,.6-.467,1.109,1.109,0,0,1,.592-.175,1.33,1.33,0,0,1,.508.108,3.222,3.222,0,0,1,.583.325l2.758,1.958a1.264,1.264,0,0,1,.458.533A1.709,1.709,0,0,1,16.638,13.605Z" transform="translate(1.669 1.669)" fill="none" stroke="#b0b0b0" stroke-width="1.2"/>
      <path id="Vector-2" data-name="Vector" d="M2.92,2.92a3.308,3.308,0,0,0-.976-1.894A2.85,2.85,0,0,0,0,0" transform="translate(12.497 4.582)" fill="none" stroke="#b0b0b0" stroke-linecap="round" stroke-linejoin="round" stroke-width="1.2" opacity="0.4"/>
      <path id="Vector-3" data-name="Vector" d="M5.84,5.84A5.836,5.836,0,0,0,0,0" transform="translate(12.491 1.669)" fill="none" stroke="#b0b0b0" stroke-linecap="round" stroke-linejoin="round" stroke-width="1.2" opacity="0.4"/>
      <path id="Vector-4" data-name="Vector" d="M0,0H20V20H0Z" fill="none" opacity="0"/>
    </g>
  </g>
</svg>
