<svg xmlns="http://www.w3.org/2000/svg" width="20" height="20" viewBox="0 0 20 20">
  <g id="vuesax_twotone_user-edit" data-name="vuesax/twotone/user-edit" transform="translate(-492 -188)">
    <g id="user-edit" transform="translate(492 188)">
      <path id="Vector" d="M8.306,4.153A4.153,4.153,0,1,1,4.153,0,4.153,4.153,0,0,1,8.306,4.153Z" transform="translate(5.847 1.661)" fill="none" stroke="#b42c4b" stroke-linecap="round" stroke-linejoin="round" stroke-width="1.3"/>
      <path id="Vector-2" data-name="Vector" d="M3.355.476.415,3.417a1.024,1.024,0,0,0-.249.49L.008,5.028a.527.527,0,0,0,.631.631L1.76,5.5a.988.988,0,0,0,.49-.249l2.94-2.94a1.134,1.134,0,0,0,0-1.844A1.13,1.13,0,0,0,3.355.476Z" transform="translate(12.666 12.663)" fill="none" stroke="#b42c4b" stroke-linecap="round" stroke-linejoin="round" stroke-width="1"/>
      <path id="Vector-3" data-name="Vector" d="M0,0A2.646,2.646,0,0,0,1.844,1.844" transform="translate(15.598 13.546)" fill="none" stroke="#b42c4b" stroke-linecap="round" stroke-linejoin="round" stroke-width="1"/>
      <path id="Vector-4" data-name="Vector" d="M0,5.815C0,2.6,3.2,0,7.135,0A8.557,8.557,0,0,1,9.6.357" transform="translate(2.832 12.524)" fill="none" stroke="#ffd7ac" stroke-linecap="round" stroke-linejoin="round" stroke-width="1.5"/>
      <path id="Vector-5" data-name="Vector" d="M0,0H20V20H0Z" fill="none" opacity="0"/>
    </g>
  </g>
</svg>
