<svg xmlns="http://www.w3.org/2000/svg" width="34" height="34" viewBox="0 0 34 34">
  <g id="vuesax_twotone_teacher" data-name="vuesax/twotone/teacher" transform="translate(-172 -252)">
    <g id="teacher" transform="translate(172 252)">
      <path id="Vector" d="M0,0H34V34H0Z" transform="translate(34 34) rotate(180)" fill="none" opacity="0"/>
      <g id="Group_133955" data-name="Group 133955" transform="translate(0.566 1.133)">
        <path id="Path_148001" data-name="Path 148001" d="M812.766,182.415c.1.161-.024.293-.065.426a6.974,6.974,0,0,0,.265,4.767c.077.195.168.29.4.259q3.768-.5,7.538-.986c.053-.007.1-.021.162-.033,0-.192-.156-.268-.251-.377a17.584,17.584,0,0,1-3.354-5.247,7.544,7.544,0,0,1-.5-2.373c-.017-.413.085-.711.578-.821a4.175,4.175,0,0,0,.037,2.019,12.719,12.719,0,0,0,2.44,4.513,30.517,30.517,0,0,0,2.274,2.587c.341.354.746.73.569,1.271s-.715.568-1.185.643c-2.171.345-4.341.692-6.514,1.024a2.557,2.557,0,0,1-3.058-2.215,8.322,8.322,0,0,1,.4-5.1c.053-.113.116-.222.18-.33C812.7,182.425,812.734,182.425,812.766,182.415Zm5.185,6.468c.281-.045.582-.07.646-.415.044-.239-.311-.458-.693-.435-.286.017-.62.08-.61.424C817.306,188.823,817.663,188.844,817.951,188.884Z" transform="translate(-803.866 -170.454)" fill="#b42c4b"/>
        <path id="Path_148002" data-name="Path 148002" d="M842.465,116.3l-.925.127v.06c.224,0,.45-.016.672,0s.491-.116.62.235c-1.2.135-2.374.286-3.536.53a20.815,20.815,0,0,0-9.812,4.6,15.767,15.767,0,0,0-2.2,2.425,8.3,8.3,0,0,1,1.1-1.636,18.114,18.114,0,0,1,10.257-6.226,27.76,27.76,0,0,1,3.148-.52A.6.6,0,0,1,842.465,116.3Z" transform="translate(-817.962 -113.56)" fill="#b42c4b"/>
        <path id="Path_148003" data-name="Path 148003" d="M816.66,99.734a20.453,20.453,0,0,1,2.958-8.708,10.545,10.545,0,0,1,2.449-2.692.948.948,0,0,1,.7-.2c2.331.206,4.662.4,6.993.606.093.008.184.036.388.078C823.535,89.953,818.993,93.476,816.66,99.734Zm10.974-10.8c-1.377-.127-2.767-.174-4.126-.406a2.105,2.105,0,0,0-2.113.855,15.628,15.628,0,0,0-3.552,6.452c-.065.235-.208.632-.028.7.269.1.382-.3.515-.5a15.934,15.934,0,0,1,4.658-4.841A20.744,20.744,0,0,1,827.634,88.93Z" transform="translate(-808.232 -88.129)" fill="#b42c4b"/>
        <path id="Path_148004" data-name="Path 148004" d="M870.427,365.85c.057-.031.116-.058.169-.094.108-.072.223-.175.2-.3-.033-.173-.207-.088-.315-.091-.434-.011-.868-.005-1.3,0-.134,0-.235,0-.257-.187-.115-.995.311-1.474,1.318-1.49a9.7,9.7,0,0,0,1.82-.062,4.238,4.238,0,0,1-.159,1.011c-.041.231-.006.34.258.32a3.343,3.343,0,0,1,.755,0c.453.069.588-.135.582-.549a1.293,1.293,0,0,1,.1-.732c.132-.175.429.035.664.02.488-.03.98-.01,1.47-.007.365,0,.521.164.49.554-.083,1.044-.072,1.044-1.113,1.043q-1.513,0-3.026,0c-.146,0-.3-.045-.4.144C871.416,365.974,870.924,365.941,870.427,365.85Zm4.33-.9c.552,0,.578-.034.593-.55.011-.4-.279-.227-.44-.233-.575-.021-.561-.009-.589.513C874.3,365.106,874.61,364.894,874.757,364.953Zm-4.439-.111c.472.112.724.013.7-.435-.025-.412-.347-.228-.537-.237-.556-.025-.623.041-.607.468S870.234,364.786,870.318,364.842Z" transform="translate(-856.072 -340.391)" fill="#f3c99c"/>
        <path id="Path_148005" data-name="Path 148005" d="M846.216,102.586c.2,0,.391.006.587,0,.144-.006.335-.031.343.14s-.2.106-.3.114a17.048,17.048,0,0,0-4.828,1.05,17.693,17.693,0,0,0-8.083,6.082,1.682,1.682,0,0,1-.245.277,10.033,10.033,0,0,1,1.666-2.494,17.134,17.134,0,0,1,9.838-5.318c.453-.091.911-.158,1.367-.234.111-.018.255-.042.279.1.032.189-.151.109-.238.14-.128.046-.263.071-.4.106Z" transform="translate(-823.823 -101.003)" fill="#b42c4b"/>
        <path id="Path_148006" data-name="Path 148006" d="M717.515,353.33c-.048.283-.087.557-.145.828-.04.19.024.236.21.246.59.033.6.032.718-.525q.2-.965.408-1.929a.817.817,0,0,1,.831-.493c.177.051.084.186.07.275-.09.58-.186,1.16-.295,1.737-.046.241-.021.356.273.347.643-.021,1.288-.015,1.931,0,.236.005.376-.047.38-.31a2.023,2.023,0,0,1,.061-.329c.092-.493.29-.625.791-.55.133.02.169.07.131.19a.254.254,0,0,0-.011.04c-.177,1.3-.177,1.3-1.473,1.3-.63,0-1.26,0-1.889,0-.179,0-.31.015-.4.214a.8.8,0,0,1-.79.454c-.448.009-.9,0-1.344,0-.1,0-.217.031-.271-.123A1.163,1.163,0,0,1,717.515,353.33Z" transform="translate(-716.663 -329.251)" fill="#f3c99c"/>
        <path id="Path_148007" data-name="Path 148007" d="M749.7,416.863c.155-.463.3-.914.457-1.363.074-.213.035-.326-.214-.3a.284.284,0,0,1-.042,0c-1.093-.04-1.093-.04-1.4,1-.21.725-.21.725-.951.673.307-1.02.612-2.03.914-3.042.25-.836.248-.84,1.095-.858q.525-.011,1.051.01c.292.012.394.183.316.458-.1.35-.218.7-.308,1.048-.054.211-.323.438.035.649.079.047,0,.21-.028.318a8.489,8.489,0,0,0-.28,1.011C750.285,416.861,750.118,417.007,749.7,416.863Zm-.2-1.926c.361.105.577-.086.646-.507a3.384,3.384,0,0,1,.151-.477c.235-.726.235-.709-.516-.722a.439.439,0,0,0-.514.4c-.058.271-.157.534-.235.8C748.881,414.939,748.882,414.939,749.5,414.937Z" transform="translate(-744.949 -385.597)" fill="#f3c99c"/>
        <path id="Path_148008" data-name="Path 148008" d="M873.569,432.092c.639-.683,1.257-1.307,1.828-1.971.266-.31.572-.229.881-.229.158,0,.114.12.083.215-.229.7-.444,1.414-.694,2.111-.115.319-.4.1-.657.164l.6-2.008a5.213,5.213,0,0,0-.831.8c-.326.327-.633.673-.957,1a.493.493,0,0,1-.9-.2l-.6-1.716c-.225.688-.429,1.275-.605,1.87-.051.171-.09.31-.29.245s-.046-.209-.022-.306c.157-.623.333-1.242.488-1.866.048-.192.086-.364.336-.311s.568-.168.7.251C873.112,430.773,873.337,431.4,873.569,432.092Z" transform="translate(-858.281 -401.07)" fill="#f3c99c"/>
        <path id="Path_148009" data-name="Path 148009" d="M1015.037,354.186c-.77,0-1.541,0-2.311,0-.2,0-.315-.022-.262-.274.14-.671.258-1.347.389-2.02.039-.2.7-.5.849-.392.1.077.03.184.016.273-.094.594-.184,1.19-.3,1.78-.045.233.021.291.246.289.952-.009,1.905-.012,2.857,0,.227,0,.336-.069.366-.289.017-.124.058-.245.087-.367a.613.613,0,0,1,.825-.532c.15.029.137.11.116.208-.081.383-.174.764-.246,1.149-.04.211-.191.169-.323.17C1016.578,354.188,1015.808,354.187,1015.037,354.186Z" transform="translate(-987.522 -329.284)" fill="#f3c99c"/>
        <path id="Path_148010" data-name="Path 148010" d="M799.211,354.151c-.756,0-1.512-.009-2.268.005-.254,0-.355-.044-.3-.325.135-.643.241-1.292.365-1.938a.858.858,0,0,1,.827-.434c.148.066.068.2.054.291-.089.567-.176,1.134-.29,1.7-.054.264-.03.374.284.368.924-.019,1.848-.016,2.772,0,.262,0,.387-.081.416-.335a2.728,2.728,0,0,1,.075-.327.617.617,0,0,1,.828-.53c.149.028.14.1.118.205-.082.383-.167.765-.249,1.148-.047.222-.223.173-.369.173C800.723,354.152,799.967,354.151,799.211,354.151Z" transform="translate(-789.891 -329.249)" fill="#f3c99c"/>
        <path id="Path_148011" data-name="Path 148011" d="M973.961,353.371a2.3,2.3,0,0,1-.1.775c-.037.208-.028.3.223.308.579.019.584.028.707-.547.14-.657.276-1.314.418-1.97a.905.905,0,0,1,.829-.43c.112.051.066.141.054.215-.139.828-.269,1.657-.431,2.481a.786.786,0,0,1-.852.657c-.448.015-.9,0-1.344.008-.2.005-.259-.054-.272-.258C973.156,354.058,973.426,353.427,973.961,353.371Z" transform="translate(-951.568 -329.295)" fill="#f3c99c"/>
        <path id="Path_148012" data-name="Path 148012" d="M797.093,438.255c.072-.231.2-.206.3-.206.7,0,1.4-.012,2.1,0,.469.01.54.128.408.574-.425,1.436-.311,1.217-1.638,1.232-.42,0-.839-.007-1.259,0-.317.008-.385-.13-.311-.419.159-.621.151-.623.786-.623.518,0,1.035,0,1.553,0,.158,0,.294,0,.36-.2.08-.242.123-.387-.233-.374C798.483,438.272,797.8,438.255,797.093,438.255Zm2.147.771c-.6,0-1.18,0-1.764,0-.333,0-.233.3-.277.467-.063.244.156.169.272.172.362.01.728-.025,1.086.012C799.02,439.726,799.236,439.542,799.24,439.026Z" transform="translate(-789.924 -408.553)" fill="#f3c99c"/>
        <path id="Path_148013" data-name="Path 148013" d="M1040.491,439.45c-.1.226-.206.188-.3.188-.713,0-1.427.007-2.14,0-.475-.005-.548-.11-.41-.561.42-1.369.265-1.272,1.709-1.269.406,0,.811,0,1.217,0,.284,0,.4.115.309.428-.177.637-.161.641-.815.641-.517,0-1.035.006-1.553,0a.319.319,0,0,0-.372.242c-.083.252-.063.346.235.338C1039.064,439.437,1039.756,439.45,1040.491,439.45Zm-1.215-.777v0c.28,0,.56.011.839,0,.3-.015.189-.291.255-.452.046-.112.013-.189-.126-.189-.545,0-1.092-.018-1.635.013-.275.016-.266.311-.28.5-.017.224.2.122.318.131C1038.856,438.685,1039.066,438.673,1039.276,438.673Z" transform="translate(-1010.535 -408.334)" fill="#f3c99c"/>
        <path id="Path_148014" data-name="Path 148014" d="M969.2,432.415a15.156,15.156,0,0,0,.667-2.232c.055-.253.181-.293.376-.256.272.051.124.243.078.355-.119.287-.037.364.26.352.5-.019,1.007,0,1.511-.007.356-.006.493.145.4.494-.008.027-.017.053-.024.08-.363,1.408-.183,1.2-1.561,1.213C970.346,432.419,969.79,432.415,969.2,432.415Zm1.524-.191c.252,0,.5,0,.756,0a.273.273,0,0,0,.3-.224c.089-.309.189-.615.287-.921.064-.2,0-.284-.216-.28a9.779,9.779,0,0,1-1.133-.006c-.411-.04-.582.114-.685.513C969.8,432.232,969.775,432.226,970.725,432.224Z" transform="translate(-947.917 -401.109)" fill="#f3c99c"/>
        <path id="Path_148015" data-name="Path 148015" d="M931.378,440.168c-.337,0-.673,0-1.01,0s-.451-.173-.36-.489c.085-.3.18-.59.26-.887a.5.5,0,0,1,.518-.407c.687-.009,1.374-.005,2.061,0,.345,0,.436.188.354.5-.374,1.421-.211,1.283-1.572,1.283Zm.445-1.613c-1.011,0-1.011,0-1.3.964-.016.053-.035.106-.054.158-.079.213-.015.309.222.3a11.86,11.86,0,0,1,1.212.005.528.528,0,0,0,.645-.459C932.818,438.55,932.835,438.555,931.823,438.555Z" transform="translate(-911.999 -408.862)" fill="#f3c99c"/>
        <path id="Path_148016" data-name="Path 148016" d="M1075.97,364.723c.262-.03.523-.077.786-.086a.483.483,0,0,0,.517-.444,2.64,2.64,0,0,0,.106-.491c-.013-.763.622-.942,1.175-1.379a9.406,9.406,0,0,1-.422,1.945c-.177.416-.563.482-.944.506-.4.026-.812.006-1.219.006Z" transform="translate(-1045.686 -339.214)" fill="#f3c99c"/>
        <path id="Path_148017" data-name="Path 148017" d="M1025.055,432.375c-.241.048-.238-.06-.181-.251.2-.654.394-1.309.554-1.973a.3.3,0,0,1,.426-.255c.259.064.081.247.05.365-.163.62-.347,1.235-.511,1.855C1025.344,432.306,1025.275,432.427,1025.055,432.375Z" transform="translate(-998.868 -401.075)" fill="#f3c99c"/>
        <path id="Path_148018" data-name="Path 148018" d="M836.667,432.619c.2-.726.419-1.448.6-2.177.069-.27.247-.285.436-.239.276.068.063.256.037.362-.142.568-.314,1.128-.472,1.692C837.15,432.691,837.152,432.692,836.667,432.619Z" transform="translate(-826.553 -401.354)" fill="#f3c99c"/>
        <path id="Path_148019" data-name="Path 148019" d="M1011.282,439.95c-.175,0-.312.026-.246-.19.147-.481.286-.965.426-1.448.067-.231.255-.124.383-.12.2.007.092.162.07.25-.106.42-.234.835-.33,1.258C1011.538,439.906,1011.448,440,1011.282,439.95Z" transform="translate(-986.211 -408.662)" fill="#f3c99c"/>
        <path id="Path_148020" data-name="Path 148020" d="M785.006,438.474c-.136.519-.274,1.025-.4,1.534-.067.269-.279.208-.437.18-.249-.044-.072-.225-.048-.323.089-.364.242-.714.308-1.08S784.689,438.387,785.006,438.474Z" transform="translate(-778.358 -408.909)" fill="#f3c99c"/>
        <path id="Path_148021" data-name="Path 148021" d="M1045.741,388.075c.251.159.527.029.806.017.177-.008.411.025.414.256s-.231.293-.4.263a2.238,2.238,0,0,0-.873,0c-.173.036-.409-.03-.412-.252C1045.269,388.094,1045.529,388.12,1045.741,388.075Z" transform="translate(-1017.577 -362.795)" fill="#f3c99c"/>
        <path id="Path_148022" data-name="Path 148022" d="M762.3,388.049a1.186,1.186,0,0,0,.782.023c.181-.036.448.008.445.259s-.263.295-.449.255a1.732,1.732,0,0,0-.79,0c-.178.042-.445-.011-.448-.258S762.1,388.1,762.3,388.049Z" transform="translate(-758.031 -362.772)" fill="#f3c99c"/>
        <path id="Path_148023" data-name="Path 148023" d="M841.159,388.8c-.2-.02-.414-.051-.416-.274s.223-.26.406-.261.41.017.423.241C841.588,388.775,841.328,388.754,841.159,388.8Z" transform="translate(-830.285 -362.97)" fill="#f3c99c"/>
        <path id="Path_148024" data-name="Path 148024" d="M1017.05,431.362c-.078-.031-.266.1-.252-.126.012-.2.168-.232.333-.211.108.014.281-.057.274.149C1017.4,431.4,1017.22,431.373,1017.05,431.362Z" transform="translate(-991.502 -402.121)" fill="#f3c99c"/>
        <path id="Path_148025" data-name="Path 148025" d="M791.785,432.971c-.006.108-.073.145-.168.137s-.224.048-.251-.077.071-.171.185-.168C791.643,432.864,791.753,432.834,791.785,432.971Z" transform="translate(-785.066 -403.806)" fill="#f3c99c"/>
        <path id="Path_148026" data-name="Path 148026" d="M876.213,390.355h-.94A1.837,1.837,0,0,1,876.213,390.355Z" transform="translate(-861.905 -364.821)" fill="#f3c99c"/>
        <path id="Path_148028" data-name="Path 148028" d="M839.239,92.793a20.743,20.743,0,0,0-4.647,2.253,15.935,15.935,0,0,0-4.658,4.841c-.133.208-.245.6-.515.5-.18-.065-.037-.463.028-.7A15.627,15.627,0,0,1,833,93.241a2.1,2.1,0,0,1,2.113-.855C836.472,92.619,837.862,92.667,839.239,92.793Zm-9.011,6.115c1.757-2.694,3.818-4.989,7.069-5.844-1.078-.118-2.143-.2-3.207-.29-.154-.013-.219.1-.3.2a22.9,22.9,0,0,0-3.506,5.5C830.233,98.59,830.122,98.7,830.228,98.909Zm-.109.047c.086.025.09-.027.1-.06,0-.011-.034-.053-.042-.05a.645.645,0,0,0-.1.058Z" transform="translate(-819.837 -91.992)" fill="#b42c4b"/>
        <path id="Path_148036" data-name="Path 148036" d="M839.476,103.534c-.106-.2.005-.319.057-.435a22.894,22.894,0,0,1,3.506-5.5c.08-.095.145-.21.3-.2,1.065.087,2.13.172,3.207.29C843.294,98.545,841.233,100.84,839.476,103.534Z" transform="translate(-829.085 -96.618)" fill="#fdfbfc"/>
        <path id="Path_148037" data-name="Path 148037" d="M838.2,169.547l-.042-.052a.64.64,0,0,1,.1-.058c.007,0,.046.039.042.05C838.295,169.52,838.291,169.572,838.2,169.547Z" transform="translate(-827.923 -162.584)" fill="#fdfbfc"/>
      </g>
    </g>
  </g>
</svg>
