<svg xmlns="http://www.w3.org/2000/svg" width="36" height="36" viewBox="0 0 36 36">
  <g id="Group_134000" data-name="Group 134000" transform="translate(-311 -284)">
    <rect id="Rectangle_110481" data-name="Rectangle 110481" width="36" height="36" rx="8" transform="translate(311 284)" fill="#ffd7ac" opacity="0.1"/>
    <g id="vuesax_twotone_musicnote" data-name="vuesax/twotone/musicnote" transform="translate(-365 -26)">
      <g id="musicnote" transform="translate(684 318)">
        <path id="Vector" d="M0,11.667V0" transform="translate(9.975 3.333)" fill="none" stroke="#ffd7ac" stroke-linecap="round" stroke-linejoin="round" stroke-width="1.5"/>
        <path id="Vector-2" data-name="Vector" d="M0,0H20V20H0Z" fill="none" opacity="0"/>
        <path id="Vector-3" data-name="Vector" d="M6.667,3.333A3.333,3.333,0,1,1,3.333,0,3.333,3.333,0,0,1,6.667,3.333Z" transform="translate(3.309 11.667)" fill="none" stroke="#b42c4b" stroke-linecap="round" stroke-linejoin="round" stroke-width="1.5"/>
        <path id="Vector-4" data-name="Vector" d="M2.192.115,5.875,1.34A2.543,2.543,0,0,1,7.5,3.59v.975A1.567,1.567,0,0,1,5.308,6.148L1.625,4.923A2.543,2.543,0,0,1,0,2.673V1.69A1.561,1.561,0,0,1,2.192.115Z" transform="translate(9.983 1.644)" fill="none" stroke="#b42c4b" stroke-linecap="round" stroke-linejoin="round" stroke-width="1.5"/>
      </g>
    </g>
  </g>
</svg>
