<svg xmlns="http://www.w3.org/2000/svg" width="42" height="42" viewBox="0 0 42 42">
  <g id="Group_133503" data-name="Group 133503" transform="translate(-298 -457)">
    <rect id="Rectangle_110405" data-name="Rectangle 110405" width="42" height="42" rx="8" transform="translate(298 457)" fill="#ffd7ac" opacity="0.2"/>
    <g id="vuesax_twotone_teacher" data-name="vuesax/twotone/teacher" transform="translate(133 212)">
      <g id="teacher" transform="translate(172 252)">
        <path id="Vector" d="M0,0H28V28H0Z" transform="translate(28 28) rotate(180)" fill="none" opacity="0"/>
        <g id="Group_133955" data-name="Group 133955" transform="translate(0.466 0.933)">
          <path id="Path_148001" data-name="Path 148001" d="M812.612,181.642c.084.132-.02.242-.054.35a5.743,5.743,0,0,0,.219,3.925c.064.16.139.239.33.214q3.1-.412,6.208-.812c.044-.006.086-.018.133-.027,0-.158-.129-.221-.206-.31a14.481,14.481,0,0,1-2.762-4.321,6.211,6.211,0,0,1-.413-1.954c-.014-.341.07-.586.476-.676a3.438,3.438,0,0,0,.031,1.662,10.474,10.474,0,0,0,2.009,3.716,25.121,25.121,0,0,0,1.873,2.13c.281.291.615.6.468,1.047s-.589.468-.976.529c-1.788.284-3.575.57-5.364.843a2.106,2.106,0,0,1-2.518-1.824,6.854,6.854,0,0,1,.333-4.2c.044-.093.1-.183.148-.272C812.553,181.65,812.585,181.65,812.612,181.642Zm4.27,5.327c.232-.037.48-.058.532-.342.036-.2-.256-.378-.57-.358-.235.014-.51.066-.5.349C816.35,186.919,816.645,186.936,816.882,186.969Z" transform="translate(-805.282 -171.791)" fill="#b42c4b"/>
          <path id="Path_148002" data-name="Path 148002" d="M839.786,116.233l-.762.1v.049c.185,0,.371-.013.554,0s.4-.1.51.194c-.986.111-1.955.236-2.912.437a17.142,17.142,0,0,0-8.081,3.79,12.984,12.984,0,0,0-1.811,2,6.837,6.837,0,0,1,.908-1.347,14.918,14.918,0,0,1,8.447-5.127,22.86,22.86,0,0,1,2.592-.428A.49.49,0,0,1,839.786,116.233Z" transform="translate(-819.607 -113.973)" fill="#b42c4b"/>
          <path id="Path_148003" data-name="Path 148003" d="M816.66,97.686a16.844,16.844,0,0,1,2.436-7.171,8.684,8.684,0,0,1,2.017-2.217.781.781,0,0,1,.576-.165c1.919.17,3.84.332,5.759.5.076.007.151.03.319.064C822.322,89.631,818.581,92.532,816.66,97.686Zm9.038-8.9c-1.134-.1-2.279-.144-3.4-.335a1.734,1.734,0,0,0-1.74.7,12.87,12.87,0,0,0-2.925,5.313c-.053.193-.171.521-.023.574.222.08.314-.244.424-.415a13.122,13.122,0,0,1,3.836-3.987A17.082,17.082,0,0,1,825.7,88.788Z" transform="translate(-809.719 -88.129)" fill="#b42c4b"/>
          <path id="Path_148004" data-name="Path 148004" d="M870.158,365.455c.047-.025.1-.048.14-.077.089-.06.184-.144.164-.246-.027-.143-.17-.072-.259-.075-.357-.009-.715,0-1.073,0-.11,0-.193,0-.211-.154-.095-.819.256-1.214,1.085-1.227a7.987,7.987,0,0,0,1.5-.051,3.487,3.487,0,0,1-.131.833c-.034.19,0,.28.213.263a2.754,2.754,0,0,1,.622,0c.373.057.484-.111.479-.452a1.065,1.065,0,0,1,.083-.6c.109-.144.353.029.547.017.4-.024.807-.009,1.211-.005.3,0,.429.135.4.456-.069.86-.059.86-.916.859q-1.246,0-2.492,0c-.12,0-.25-.037-.328.119C870.973,365.557,870.567,365.529,870.158,365.455Zm3.566-.738c.455,0,.476-.028.488-.453.009-.326-.23-.187-.362-.192-.473-.017-.462-.007-.485.423C873.346,364.842,873.6,364.667,873.724,364.716Zm-3.655-.091c.389.092.6.011.574-.358-.02-.339-.286-.188-.443-.2-.458-.02-.513.033-.5.385S870,364.578,870.069,364.625Z" transform="translate(-858.336 -344.488)" fill="#f3c99c"/>
          <path id="Path_148005" data-name="Path 148005" d="M844.005,102.516c.161,0,.322.005.483,0,.118-.005.276-.025.283.115s-.162.088-.251.094a14.04,14.04,0,0,0-3.976.864,14.571,14.571,0,0,0-6.657,5.009,1.387,1.387,0,0,1-.2.228,8.263,8.263,0,0,1,1.372-2.054,14.11,14.11,0,0,1,8.1-4.379c.373-.075.75-.13,1.125-.192.091-.015.21-.035.23.084.026.155-.124.089-.2.115-.105.038-.217.059-.326.087Z" transform="translate(-825.564 -101.212)" fill="#b42c4b"/>
          <path id="Path_148006" data-name="Path 148006" d="M717.365,353c-.04.233-.072.459-.119.682-.033.156.02.194.173.2.486.027.495.027.591-.433q.167-.794.336-1.588a.673.673,0,0,1,.685-.406c.146.042.069.153.058.226-.074.478-.153.955-.243,1.431-.037.2-.017.293.225.286.53-.017,1.06-.012,1.59,0,.194,0,.31-.038.313-.255a1.677,1.677,0,0,1,.05-.271c.076-.406.239-.514.651-.453.11.016.139.058.108.156a.212.212,0,0,0-.009.033c-.146,1.069-.146,1.069-1.213,1.069-.519,0-1.037,0-1.556,0-.147,0-.255.012-.327.176a.659.659,0,0,1-.651.374c-.369.007-.738,0-1.106,0-.086,0-.179.025-.223-.1A.957.957,0,0,1,717.365,353Z" transform="translate(-716.663 -333.168)" fill="#f3c99c"/>
          <path id="Path_148007" data-name="Path 148007" d="M749.32,416.177c.127-.381.248-.753.376-1.122.061-.176.029-.268-.176-.245a.234.234,0,0,1-.035,0c-.9-.033-.9-.033-1.149.828-.173.6-.173.6-.783.554.252-.84.5-1.672.753-2.505.206-.688.2-.692.9-.707q.432-.009.865.008c.24.01.324.151.26.377-.082.288-.18.572-.254.863-.044.174-.266.361.029.535.065.039,0,.173-.023.262a6.992,6.992,0,0,0-.23.833C749.8,416.175,749.665,416.3,749.32,416.177Zm-.167-1.586c.3.087.475-.071.532-.418a2.775,2.775,0,0,1,.124-.393c.194-.6.193-.584-.425-.595a.361.361,0,0,0-.423.333c-.048.223-.129.439-.194.659C748.647,414.592,748.647,414.593,749.153,414.591Z" transform="translate(-745.409 -390.429)" fill="#f3c99c"/>
          <path id="Path_148008" data-name="Path 148008" d="M873.171,431.7c.526-.562,1.036-1.076,1.506-1.623.219-.255.471-.188.725-.189.13,0,.093.1.068.177-.189.58-.365,1.165-.572,1.738-.094.263-.331.078-.541.135l.492-1.654a4.292,4.292,0,0,0-.685.655c-.268.27-.521.554-.788.825a.406.406,0,0,1-.742-.167l-.5-1.413c-.186.567-.354,1.05-.5,1.54-.042.14-.074.255-.239.2s-.038-.172-.018-.252c.13-.513.275-1.023.4-1.536.039-.158.071-.3.276-.256s.468-.138.574.207C872.8,430.614,872.98,431.131,873.171,431.7Z" transform="translate(-860.581 -406.153)" fill="#f3c99c"/>
          <path id="Path_148009" data-name="Path 148009" d="M1014.581,353.709c-.634,0-1.269,0-1.9,0-.168,0-.259-.018-.216-.226.115-.553.212-1.109.32-1.663.032-.163.579-.415.7-.323.083.064.024.151.013.225-.077.49-.151.98-.245,1.466-.037.192.017.24.2.238.784-.008,1.569-.01,2.353,0,.187,0,.277-.056.3-.238.014-.1.048-.2.072-.3a.5.5,0,0,1,.679-.438c.124.024.112.091.1.172-.067.316-.143.629-.2.946-.033.173-.157.139-.266.14C1015.85,353.71,1015.216,353.709,1014.581,353.709Z" transform="translate(-991.921 -333.201)" fill="#f3c99c"/>
          <path id="Path_148010" data-name="Path 148010" d="M798.756,353.673c-.623,0-1.245-.008-1.868,0-.21,0-.292-.036-.244-.268.111-.53.2-1.064.3-1.6a.707.707,0,0,1,.681-.357c.122.054.056.162.044.24-.073.467-.145.934-.239,1.4-.044.218-.025.308.234.3.761-.016,1.522-.013,2.283,0,.216,0,.318-.067.342-.276a2.25,2.25,0,0,1,.062-.269.508.508,0,0,1,.682-.436c.123.023.115.086.1.169-.067.315-.138.63-.2.945-.039.183-.184.142-.3.143C800,353.674,799.378,353.673,798.756,353.673Z" transform="translate(-791.081 -333.165)" fill="#f3c99c"/>
          <path id="Path_148011" data-name="Path 148011" d="M973.825,353.039a1.894,1.894,0,0,1-.083.638c-.03.171-.023.247.183.254.477.016.481.023.582-.45.115-.541.227-1.082.344-1.623a.746.746,0,0,1,.683-.354c.092.042.055.116.044.177-.115.682-.221,1.365-.355,2.043a.648.648,0,0,1-.7.541c-.369.013-.738,0-1.107.007-.161,0-.214-.044-.224-.212C973.162,353.605,973.384,353.086,973.825,353.039Z" transform="translate(-955.383 -333.212)" fill="#f3c99c"/>
          <path id="Path_148012" data-name="Path 148012" d="M797.018,438.218c.059-.19.162-.169.25-.17.576,0,1.152-.01,1.728,0,.386.008.445.105.336.473-.35,1.182-.256,1-1.349,1.014-.346,0-.691-.006-1.037,0-.261.006-.317-.107-.256-.345.131-.512.124-.513.648-.513.426,0,.853,0,1.279,0,.13,0,.242,0,.3-.163.066-.2.1-.318-.192-.308C798.163,438.232,797.6,438.218,797.018,438.218Zm1.768.635c-.49,0-.971,0-1.453,0-.274,0-.192.244-.228.385-.052.2.128.139.224.142.3.008.6-.021.895.009C798.6,439.429,798.782,439.278,798.786,438.853Z" transform="translate(-791.114 -413.757)" fill="#f3c99c"/>
          <path id="Path_148013" data-name="Path 148013" d="M1039.978,439.16c-.079.186-.169.155-.245.155-.587,0-1.175.006-1.762,0-.391,0-.451-.09-.337-.462.346-1.127.218-1.047,1.407-1.045.334,0,.668,0,1,0,.234,0,.326.1.254.352-.145.525-.133.528-.671.528-.426,0-.853,0-1.279,0a.262.262,0,0,0-.307.2c-.069.207-.052.285.193.279C1038.8,439.149,1039.372,439.16,1039.978,439.16Zm-1-.639v0c.23,0,.461.009.691,0,.25-.012.156-.239.21-.372.038-.092.01-.156-.1-.155-.449,0-.9-.015-1.347.011-.227.013-.219.256-.231.409-.014.184.166.1.262.108C1038.631,438.529,1038.8,438.52,1038.977,438.52Z" transform="translate(-1015.308 -413.534)" fill="#f3c99c"/>
          <path id="Path_148014" data-name="Path 148014" d="M969.2,431.974a12.478,12.478,0,0,0,.549-1.838c.045-.209.149-.241.309-.211.224.042.1.2.064.292-.1.236-.031.3.214.29.414-.016.83,0,1.244-.006.293,0,.406.12.326.407-.006.022-.014.044-.02.066-.3,1.159-.151.988-1.286,1C970.144,431.978,969.686,431.974,969.2,431.974Zm1.255-.158c.207,0,.415,0,.622,0a.225.225,0,0,0,.25-.185c.074-.254.156-.506.236-.758.052-.165,0-.234-.178-.23a8.06,8.06,0,0,1-.933,0c-.338-.033-.479.094-.564.423C969.693,431.823,969.674,431.818,970.456,431.816Z" transform="translate(-951.673 -406.193)" fill="#f3c99c"/>
          <path id="Path_148015" data-name="Path 148015" d="M931.131,439.853c-.277,0-.554,0-.831,0s-.371-.142-.3-.4c.07-.244.148-.485.215-.73a.415.415,0,0,1,.427-.335c.566-.007,1.131,0,1.7,0,.284,0,.359.154.291.412-.308,1.17-.174,1.056-1.294,1.056Zm.367-1.329c-.832,0-.832,0-1.073.794-.013.044-.029.087-.045.13-.065.176-.013.255.183.25a9.777,9.777,0,0,1,1,0,.434.434,0,0,0,.531-.378C932.316,438.52,932.331,438.524,931.5,438.524Z" transform="translate(-915.172 -414.071)" fill="#f3c99c"/>
          <path id="Path_148016" data-name="Path 148016" d="M1075.97,364.3c.216-.025.431-.063.647-.071a.4.4,0,0,0,.425-.366,2.175,2.175,0,0,0,.087-.4c-.01-.628.512-.775.968-1.135a7.746,7.746,0,0,1-.348,1.6c-.146.343-.464.4-.777.417-.333.021-.669,0-1,0Z" transform="translate(-1051.03 -343.292)" fill="#f3c99c"/>
          <path id="Path_148017" data-name="Path 148017" d="M1025.017,431.935c-.2.04-.2-.049-.149-.207.162-.539.324-1.078.457-1.624a.25.25,0,0,1,.351-.21c.213.052.067.2.041.3-.134.511-.286,1.017-.421,1.527C1025.256,431.877,1025.2,431.978,1025.017,431.935Z" transform="translate(-1003.452 -406.158)" fill="#f3c99c"/>
          <path id="Path_148018" data-name="Path 148018" d="M836.667,432.189c.168-.6.345-1.192.5-1.793.057-.223.2-.235.359-.2.228.056.052.211.03.3-.117.468-.258.929-.389,1.393C837.065,432.249,837.066,432.249,836.667,432.189Z" transform="translate(-828.338 -406.442)" fill="#f3c99c"/>
          <path id="Path_148019" data-name="Path 148019" d="M1011.236,439.634c-.144,0-.257.021-.2-.157.121-.4.235-.795.351-1.193.055-.19.21-.1.316-.1.167.006.076.133.057.206-.087.346-.192.688-.272,1.036C1011.446,439.6,1011.373,439.675,1011.236,439.634Z" transform="translate(-990.589 -413.868)" fill="#f3c99c"/>
          <path id="Path_148020" data-name="Path 148020" d="M784.835,438.466c-.112.428-.226.844-.33,1.264-.055.221-.23.171-.36.148-.205-.036-.059-.186-.039-.266.074-.3.2-.588.254-.89S784.574,438.4,784.835,438.466Z" transform="translate(-779.36 -414.119)" fill="#f3c99c"/>
          <path id="Path_148021" data-name="Path 148021" d="M1045.659,388.075c.207.131.434.024.664.014.146-.006.338.02.34.211s-.19.242-.332.217a1.843,1.843,0,0,0-.719,0c-.142.03-.337-.025-.339-.208C1045.27,388.091,1045.484,388.112,1045.659,388.075Z" transform="translate(-1022.465 -367.256)" fill="#f3c99c"/>
          <path id="Path_148022" data-name="Path 148022" d="M762.217,388.049a.977.977,0,0,0,.644.019c.149-.029.369.007.366.214s-.217.243-.37.21a1.427,1.427,0,0,0-.651,0c-.147.034-.366-.009-.369-.212S762.055,388.087,762.217,388.049Z" transform="translate(-758.703 -367.232)" fill="#f3c99c"/>
          <path id="Path_148023" data-name="Path 148023" d="M841.085,388.706c-.163-.016-.341-.042-.342-.226s.184-.214.334-.215.337.014.349.2C841.439,388.685,841.225,388.668,841.085,388.706Z" transform="translate(-832.131 -367.434)" fill="#f3c99c"/>
          <path id="Path_148024" data-name="Path 148024" d="M1017.006,431.3c-.064-.026-.219.079-.208-.1.01-.164.138-.191.274-.173.089.011.232-.047.225.123C1017.291,431.333,1017.146,431.311,1017.006,431.3Z" transform="translate(-995.966 -407.221)" fill="#f3c99c"/>
          <path id="Path_148025" data-name="Path 148025" d="M791.71,432.951c0,.089-.06.119-.138.113s-.184.039-.207-.064.058-.141.152-.139C791.593,432.863,791.684,432.839,791.71,432.951Z" transform="translate(-786.177 -408.933)" fill="#f3c99c"/>
          <path id="Path_148026" data-name="Path 148026" d="M876.047,390.343h-.774A1.512,1.512,0,0,1,876.047,390.343Z" transform="translate(-864.264 -369.315)" fill="#f3c99c"/>
          <path id="Path_148028" data-name="Path 148028" d="M837.491,92.715a17.083,17.083,0,0,0-3.827,1.855,13.123,13.123,0,0,0-3.836,3.987c-.11.171-.2.5-.424.415-.148-.054-.031-.381.023-.574a12.869,12.869,0,0,1,2.925-5.313,1.734,1.734,0,0,1,1.74-.7C835.212,92.571,836.357,92.61,837.491,92.715Zm-7.421,5.036c1.447-2.219,3.144-4.109,5.822-4.813-.888-.1-1.765-.167-2.641-.239-.127-.01-.18.084-.246.162a18.854,18.854,0,0,0-2.888,4.531C830.074,97.488,829.983,97.583,830.07,97.751Zm-.09.038c.071.021.074-.022.083-.049,0-.009-.028-.044-.034-.042a.528.528,0,0,0-.084.048Z" transform="translate(-821.513 -92.055)" fill="#b42c4b"/>
          <path id="Path_148036" data-name="Path 148036" d="M839.468,102.451c-.087-.168,0-.262.047-.359a18.856,18.856,0,0,1,2.888-4.531c.066-.078.119-.173.246-.162.877.072,1.754.142,2.641.239C842.613,98.343,840.915,100.233,839.468,102.451Z" transform="translate(-830.911 -96.755)" fill="#fdfbfc"/>
          <path id="Path_148037" data-name="Path 148037" d="M838.2,169.527l-.035-.043a.526.526,0,0,1,.084-.048c.006,0,.038.032.034.042C838.271,169.5,838.268,169.548,838.2,169.527Z" transform="translate(-829.73 -163.793)" fill="#fdfbfc"/>
        </g>
      </g>
    </g>
  </g>
</svg>
