<svg xmlns="http://www.w3.org/2000/svg" width="30" height="30" viewBox="0 0 30 30">
  <g id="vuesax_twotone_teacher" data-name="vuesax/twotone/teacher" transform="translate(-172 -252)">
    <g id="teacher" transform="translate(172 252)">
      <path id="Vector" d="M0,0H30V30H0Z" transform="translate(30 30) rotate(180)" fill="none" opacity="0"/>
      <g id="Group_133955" data-name="Group 133955" transform="translate(-716.163 -87.129)">
        <path id="Path_148001" data-name="Path 148001" d="M812.663,181.9c.09.142-.021.259-.057.376a6.154,6.154,0,0,0,.234,4.206c.068.172.149.256.353.229q3.325-.442,6.651-.87c.047-.006.092-.019.143-.029,0-.17-.138-.236-.221-.332a15.516,15.516,0,0,1-2.959-4.629,6.655,6.655,0,0,1-.443-2.094c-.015-.365.075-.628.51-.724a3.683,3.683,0,0,0,.033,1.781,11.222,11.222,0,0,0,2.153,3.982,26.925,26.925,0,0,0,2.007,2.283c.3.312.659.644.5,1.121s-.631.5-1.046.567c-1.915.3-3.83.611-5.748.9a2.256,2.256,0,0,1-2.7-1.954,7.343,7.343,0,0,1,.357-4.5c.047-.1.1-.2.158-.291C812.6,181.908,812.635,181.908,812.663,181.9Zm4.575,5.707c.248-.04.514-.062.57-.366.039-.211-.274-.4-.611-.384-.252.015-.547.071-.538.374C816.669,187.554,816.984,187.572,817.238,187.607Z" transform="translate(-88.147 -83.217)" fill="#b42c4b"/>
        <path id="Path_148002" data-name="Path 148002" d="M840.679,116.257l-.816.112v.053c.2,0,.4-.014.593,0s.434-.1.547.208c-1.056.119-2.094.253-3.12.468a18.366,18.366,0,0,0-8.658,4.061,13.909,13.909,0,0,0-1.94,2.14,7.325,7.325,0,0,1,.973-1.443,15.983,15.983,0,0,1,9.05-5.493,24.492,24.492,0,0,1,2.777-.459A.526.526,0,0,1,840.679,116.257Z" transform="translate(-102.396 -25.706)" fill="#b42c4b"/>
        <path id="Path_148003" data-name="Path 148003" d="M816.66,98.369a18.048,18.048,0,0,1,2.61-7.684,9.3,9.3,0,0,1,2.161-2.375.837.837,0,0,1,.617-.177c2.057.182,4.114.356,6.171.534.082.007.162.032.342.068C822.726,89.739,818.718,92.847,816.66,98.369Zm9.683-9.533c-1.215-.112-2.442-.154-3.64-.359a1.857,1.857,0,0,0-1.865.754,13.789,13.789,0,0,0-3.134,5.693c-.057.207-.183.558-.024.615.238.086.337-.261.454-.445a14.059,14.059,0,0,1,4.11-4.272A18.3,18.3,0,0,1,826.343,88.836Z" transform="translate(-92.561)" fill="#b42c4b"/>
        <path id="Path_148004" data-name="Path 148004" d="M870.247,365.586c.05-.027.1-.051.15-.083.1-.064.2-.154.176-.263-.029-.153-.182-.078-.278-.08-.383-.009-.766,0-1.149,0-.118,0-.207,0-.226-.165-.1-.878.274-1.3,1.163-1.314a8.557,8.557,0,0,0,1.606-.055,3.737,3.737,0,0,1-.14.892c-.036.2-.005.3.228.282a2.95,2.95,0,0,1,.666,0c.4.061.519-.119.513-.484a1.141,1.141,0,0,1,.089-.646c.117-.155.379.031.586.018.431-.026.865-.009,1.3-.006.322,0,.46.145.432.489-.074.922-.063.921-.982.921q-1.335,0-2.67,0c-.129,0-.268-.04-.351.127C871.121,365.7,870.686,365.666,870.247,365.586Zm3.821-.791c.487,0,.51-.03.523-.485.01-.349-.246-.2-.388-.206-.507-.019-.495-.008-.52.453C873.664,364.93,873.939,364.743,874.068,364.8Zm-3.916-.1c.417.1.639.012.615-.384-.022-.363-.306-.2-.474-.209-.491-.022-.55.036-.536.413S870.078,364.648,870.152,364.7Z" transform="translate(-140.919 -254.994)" fill="#f3c99c"/>
        <path id="Path_148005" data-name="Path 148005" d="M844.742,102.539c.172,0,.345.006.518,0,.127-.006.3-.027.3.124s-.174.094-.269.1a15.043,15.043,0,0,0-4.26.926,15.612,15.612,0,0,0-7.132,5.366,1.483,1.483,0,0,1-.216.244,8.854,8.854,0,0,1,1.47-2.2,15.118,15.118,0,0,1,8.68-4.692c.4-.08.8-.14,1.206-.206.1-.016.225-.037.246.09.028.166-.133.1-.21.124-.113.041-.232.063-.349.093Z" transform="translate(-108.321 -13.014)" fill="#b42c4b"/>
        <path id="Path_148006" data-name="Path 148006" d="M717.415,353.108c-.043.249-.077.492-.128.731-.036.167.021.208.185.217.52.029.53.029.633-.464q.179-.851.36-1.7a.721.721,0,0,1,.734-.435c.156.045.074.164.062.243-.08.512-.164,1.024-.26,1.533-.04.212-.018.314.241.306.567-.018,1.136-.013,1.7,0,.208,0,.332-.041.335-.274a1.8,1.8,0,0,1,.054-.291c.082-.435.256-.551.7-.485.118.018.149.062.116.168a.221.221,0,0,0-.01.036c-.156,1.145-.156,1.146-1.3,1.146-.556,0-1.112,0-1.667,0-.158,0-.274.013-.35.188a.706.706,0,0,1-.7.4c-.4.008-.79,0-1.185,0-.093,0-.192.027-.239-.109A1.026,1.026,0,0,1,717.415,353.108Z" transform="translate(0 -243.734)" fill="#f3c99c"/>
        <path id="Path_148007" data-name="Path 148007" d="M749.446,416.406c.136-.408.266-.807.4-1.2.065-.188.031-.287-.189-.263a.246.246,0,0,1-.037,0c-.964-.035-.964-.035-1.231.887-.186.64-.186.64-.839.593.271-.9.54-1.792.807-2.684.22-.737.219-.741.966-.757q.463-.01.927.008c.258.011.348.162.279.4-.088.309-.193.613-.272.924-.047.186-.285.386.031.573.07.041,0,.185-.025.28a7.5,7.5,0,0,0-.247.893C749.964,416.4,749.816,416.533,749.446,416.406Zm-.179-1.7c.319.093.509-.076.57-.447a2.98,2.98,0,0,1,.133-.421c.208-.64.207-.626-.455-.637a.387.387,0,0,0-.454.357c-.051.239-.138.471-.207.707C748.725,414.708,748.725,414.708,749.267,414.706Z" transform="translate(-28.593 -300.69)" fill="#f3c99c"/>
        <path id="Path_148008" data-name="Path 148008" d="M873.3,431.831c.564-.6,1.109-1.153,1.613-1.739.235-.273.5-.2.777-.2.139,0,.1.106.073.19-.2.622-.392,1.248-.613,1.863-.1.282-.355.084-.579.145l.527-1.772a4.6,4.6,0,0,0-.733.7c-.287.289-.558.594-.844.884a.435.435,0,0,1-.8-.179l-.533-1.514c-.2.607-.379,1.125-.534,1.65-.045.151-.079.274-.256.216s-.041-.185-.019-.27c.139-.55.294-1.1.431-1.646.042-.169.076-.321.3-.274s.5-.148.615.222C872.9,430.667,873.1,431.221,873.3,431.831Z" transform="translate(-143.151 -316.33)" fill="#f3c99c"/>
        <path id="Path_148009" data-name="Path 148009" d="M1014.733,353.868c-.68,0-1.359,0-2.039,0-.18,0-.278-.02-.231-.242.123-.592.227-1.189.343-1.782.034-.175.62-.445.749-.346.089.068.026.162.014.241-.083.524-.162,1.05-.263,1.571-.039.206.018.257.217.255.84-.008,1.681-.01,2.521,0,.2,0,.3-.06.323-.255.015-.109.051-.216.077-.324a.541.541,0,0,1,.728-.469c.133.026.121.1.1.184-.072.338-.153.674-.217,1.014-.035.186-.168.149-.285.15C1016.093,353.869,1015.413,353.868,1014.733,353.868Z" transform="translate(-273.792 -243.767)" fill="#f3c99c"/>
        <path id="Path_148010" data-name="Path 148010" d="M798.908,353.832c-.667,0-1.334-.008-2,0-.224,0-.313-.038-.261-.287.119-.568.213-1.14.322-1.71a.757.757,0,0,1,.73-.383c.13.058.06.173.047.257-.078.5-.156,1-.256,1.5-.047.233-.027.33.251.325.815-.017,1.631-.014,2.446,0,.231,0,.341-.071.367-.3a2.413,2.413,0,0,1,.067-.288.544.544,0,0,1,.731-.467c.131.025.124.092.1.181-.072.338-.148.675-.22,1.013-.042.2-.2.153-.325.153C800.242,353.833,799.575,353.832,798.908,353.832Z" transform="translate(-74.021 -243.731)" fill="#f3c99c"/>
        <path id="Path_148011" data-name="Path 148011" d="M973.87,353.15a2.03,2.03,0,0,1-.089.684c-.032.183-.025.265.2.272.511.017.516.025.623-.483.123-.58.243-1.16.369-1.739a.8.8,0,0,1,.732-.379c.1.045.059.125.048.189-.123.73-.237,1.462-.381,2.189a.694.694,0,0,1-.752.58c-.395.013-.791,0-1.186.007-.173,0-.229-.048-.24-.227C973.16,353.756,973.4,353.2,973.87,353.15Z" transform="translate(-237.449 -243.778)" fill="#f3c99c"/>
        <path id="Path_148012" data-name="Path 148012" d="M797.043,438.23c.063-.2.173-.181.267-.182.617,0,1.234-.01,1.851,0,.414.009.476.113.36.507-.375,1.267-.274,1.074-1.445,1.087-.37,0-.741-.006-1.111,0-.28.007-.339-.115-.274-.37.14-.548.133-.55.694-.549.457,0,.913,0,1.37,0,.139,0,.259,0,.318-.175.071-.213.108-.341-.205-.33C798.27,438.245,797.67,438.23,797.043,438.23Zm1.895.68c-.525,0-1.041,0-1.556,0-.293,0-.206.261-.245.412-.056.215.138.149.24.152.32.008.642-.022.958.01C798.743,439.528,798.934,439.366,798.937,438.911Z" transform="translate(-74.055 -323.894)" fill="#f3c99c"/>
        <path id="Path_148013" data-name="Path 148013" d="M1040.149,439.256c-.084.2-.181.166-.262.166-.629,0-1.259.006-1.888,0-.419,0-.484-.1-.361-.5.371-1.208.234-1.122,1.508-1.12.358,0,.716,0,1.074,0,.251,0,.349.1.273.377-.156.562-.142.566-.719.566-.457,0-.914,0-1.37,0a.281.281,0,0,0-.328.214c-.074.222-.056.305.207.3C1038.89,439.245,1039.5,439.256,1040.149,439.256Zm-1.072-.685v0c.247,0,.494.01.74,0,.268-.013.167-.256.225-.4.041-.1.011-.167-.111-.166-.481,0-.963-.016-1.443.012-.243.014-.234.274-.247.438-.015.2.177.108.28.115C1038.706,438.581,1038.892,438.571,1039.077,438.571Z" transform="translate(-297.054 -323.672)" fill="#f3c99c"/>
        <path id="Path_148014" data-name="Path 148014" d="M969.2,432.121a13.373,13.373,0,0,0,.589-1.969c.048-.224.16-.258.331-.226.24.045.109.215.068.313-.1.253-.033.321.229.311.444-.017.889,0,1.333-.006.314,0,.435.128.349.436-.007.024-.015.047-.021.071-.32,1.242-.162,1.059-1.377,1.071C970.212,432.125,969.721,432.121,969.2,432.121Zm1.345-.169c.222,0,.445,0,.667,0a.241.241,0,0,0,.268-.2c.079-.272.167-.542.253-.813.056-.176,0-.25-.191-.247a8.631,8.631,0,0,1-1-.005c-.362-.035-.514.1-.6.453C969.728,431.96,969.707,431.954,970.546,431.952Z" transform="translate(-233.758 -316.369)" fill="#f3c99c"/>
        <path id="Path_148015" data-name="Path 148015" d="M931.213,439.958c-.3,0-.594,0-.891,0s-.4-.152-.317-.431c.075-.261.158-.52.23-.782a.445.445,0,0,1,.457-.359c.606-.008,1.212,0,1.818,0,.3,0,.385.166.312.442-.33,1.254-.186,1.132-1.387,1.132Zm.393-1.423c-.892,0-.892,0-1.15.851-.014.047-.031.093-.048.139-.07.188-.013.273.2.268a10.463,10.463,0,0,1,1.069,0,.466.466,0,0,0,.569-.405C932.484,438.53,932.5,438.534,931.606,438.534Z" transform="translate(-197.451 -324.206)" fill="#f3c99c"/>
        <path id="Path_148016" data-name="Path 148016" d="M1075.97,364.441c.231-.027.462-.068.693-.076a.426.426,0,0,0,.456-.392,2.331,2.331,0,0,0,.093-.433c-.011-.673.549-.831,1.037-1.216a8.3,8.3,0,0,1-.372,1.716c-.156.367-.5.425-.833.446-.357.023-.717.005-1.075.005Z" transform="translate(-332.586 -253.804)" fill="#f3c99c"/>
        <path id="Path_148017" data-name="Path 148017" d="M1025.03,432.081c-.213.043-.21-.053-.159-.221.173-.577.347-1.155.489-1.74a.268.268,0,0,1,.376-.225c.228.056.072.218.044.322-.144.547-.306,1.089-.451,1.637C1025.285,432.02,1025.224,432.128,1025.03,432.081Z" transform="translate(-285.261 -316.335)" fill="#f3c99c"/>
        <path id="Path_148018" data-name="Path 148018" d="M836.667,432.332c.18-.641.37-1.277.534-1.921.061-.239.218-.252.385-.211.244.06.055.226.032.319-.125.5-.277,1-.417,1.493C837.093,432.4,837.095,432.4,836.667,432.332Z" transform="translate(-111.08 -316.617)" fill="#f3c99c"/>
        <path id="Path_148019" data-name="Path 148019" d="M1011.251,439.739c-.154,0-.275.023-.217-.168.13-.424.252-.851.376-1.278.059-.2.225-.11.338-.106.179.006.081.143.061.22-.093.371-.206.737-.291,1.11C1011.477,439.7,1011.4,439.783,1011.251,439.739Z" transform="translate(-272.466 -324.004)" fill="#f3c99c"/>
        <path id="Path_148020" data-name="Path 148020" d="M784.892,438.469c-.12.458-.242.9-.354,1.354-.059.237-.246.183-.386.159-.22-.039-.063-.2-.042-.285.079-.321.214-.63.272-.953S784.612,438.393,784.892,438.469Z" transform="translate(-62.364 -324.254)" fill="#f3c99c"/>
        <path id="Path_148021" data-name="Path 148021" d="M1045.686,388.075c.221.141.465.025.711.015.156-.007.362.022.365.226s-.2.259-.355.232a1.975,1.975,0,0,0-.771,0c-.153.032-.361-.026-.364-.223C1045.27,388.092,1045.5,388.115,1045.686,388.075Z" transform="translate(-304.173 -277.641)" fill="#f3c99c"/>
        <path id="Path_148022" data-name="Path 148022" d="M762.244,388.049a1.047,1.047,0,0,0,.69.02c.16-.032.4.007.392.229s-.232.26-.4.225a1.529,1.529,0,0,0-.7,0c-.157.037-.393-.01-.395-.228S762.071,388.09,762.244,388.049Z" transform="translate(-41.816 -277.617)" fill="#f3c99c"/>
        <path id="Path_148023" data-name="Path 148023" d="M841.11,388.738c-.175-.017-.366-.045-.367-.242s.2-.23.358-.23.362.015.374.213C841.489,388.715,841.26,388.7,841.11,388.738Z" transform="translate(-114.853 -277.817)" fill="#f3c99c"/>
        <path id="Path_148024" data-name="Path 148024" d="M1017.021,431.322c-.069-.028-.235.085-.223-.111.011-.176.148-.2.294-.186.1.012.248-.05.241.131C1017.326,431.356,1017.171,431.331,1017.021,431.322Z" transform="translate(-277.815 -317.392)" fill="#f3c99c"/>
        <path id="Path_148025" data-name="Path 148025" d="M791.735,432.958c-.005.095-.065.128-.148.121s-.2.042-.222-.068.063-.151.163-.149C791.61,432.863,791.707,432.837,791.735,432.958Z" transform="translate(-69.144 -319.096)" fill="#f3c99c"/>
        <path id="Path_148026" data-name="Path 148026" d="M876.1,390.347h-.83A1.621,1.621,0,0,1,876.1,390.347Z" transform="translate(-146.815 -279.688)" fill="#f3c99c"/>
        <path id="Path_148028" data-name="Path 148028" d="M838.073,92.741a18.3,18.3,0,0,0-4.1,1.988A14.06,14.06,0,0,0,829.864,99c-.117.184-.216.531-.454.445-.159-.057-.033-.408.024-.615a13.789,13.789,0,0,1,3.134-5.693,1.857,1.857,0,0,1,1.865-.754C835.632,92.587,836.859,92.629,838.073,92.741Zm-7.951,5.4c1.55-2.377,3.369-4.4,6.238-5.157-.951-.1-1.891-.179-2.83-.256-.136-.011-.193.09-.264.174a20.2,20.2,0,0,0-3.094,4.854C830.127,97.856,830.029,97.957,830.123,98.137Zm-.1.041c.076.022.079-.024.089-.053,0-.01-.03-.047-.037-.044a.567.567,0,0,0-.09.051Z" transform="translate(-104.291 -3.905)" fill="#b42c4b"/>
        <path id="Path_148036" data-name="Path 148036" d="M839.471,102.812c-.094-.18,0-.281.05-.384a20.2,20.2,0,0,1,3.094-4.854c.071-.083.128-.185.264-.174.939.077,1.879.152,2.83.256C842.84,98.41,841.021,100.435,839.471,102.812Z" transform="translate(-113.639 -8.581)" fill="#fdfbfc"/>
        <path id="Path_148037" data-name="Path 148037" d="M838.2,169.534l-.037-.046a.567.567,0,0,1,.09-.051c.007,0,.04.035.037.044C838.279,169.51,838.276,169.556,838.2,169.534Z" transform="translate(-112.465 -75.261)" fill="#fdfbfc"/>
      </g>
    </g>
  </g>
</svg>
