<svg xmlns="http://www.w3.org/2000/svg" width="42" height="42" viewBox="0 0 42 42">
  <g id="Group_133524" data-name="Group 133524" transform="translate(-298 -457)">
    <rect id="Rectangle_110405" data-name="Rectangle 110405" width="42" height="42" rx="8" transform="translate(298 457)" fill="#ffd7ac" opacity="0.2"/>
    <g id="vuesax_bulk_note-2" data-name="vuesax/bulk/note-2" transform="translate(197 212)">
      <g id="note-2" transform="translate(108 252)">
        <path id="Vector" d="M17.14,9.262,16,14.138c-.98,4.212-2.917,5.915-6.557,5.565a12.266,12.266,0,0,1-1.89-.315l-1.96-.467C.725,17.767-.78,15.363.363,10.487L1.507,5.6A12.22,12.22,0,0,1,2.37,3.032C3.735.208,6.057-.55,9.953.372L11.9.827C16.79,1.97,18.283,4.385,17.14,9.262Z" transform="translate(8.13 2.918)" fill="#b42c4b"/>
        <path id="Vector-2" data-name="Vector" d="M15.253,16.672a10.934,10.934,0,0,1-2.742,1.26l-1.843.607c-4.632,1.493-7.07.245-8.575-4.387L.6,9.543C-.894,4.912.343,2.462,4.975.968L6.818.362A11.927,11.927,0,0,1,8.183,0,12.22,12.22,0,0,0,7.32,2.567L6.176,7.455c-1.143,4.877.362,7.28,5.227,8.435l1.96.467A12.266,12.266,0,0,0,15.253,16.672Z" transform="translate(2.317 5.95)" fill="#ffd7ac"/>
        <path id="Vector-3" data-name="Vector" d="M6.536,3.176a1.594,1.594,0,0,1-.222-.023L.656,1.718A.873.873,0,0,1,1.088.026L6.746,1.461a.871.871,0,0,1-.21,1.715Z" transform="translate(13.869 9.085)" fill="#ffd7ac"/>
        <path id="Vector-4" data-name="Vector" d="M4.273,2.6a1.594,1.594,0,0,1-.222-.023L.656,1.718A.873.873,0,1,1,1.088.026L4.483.89a.874.874,0,0,1,.63,1.062A.85.85,0,0,1,4.273,2.6Z" transform="translate(12.714 13.6)" fill="#ffd7ac"/>
        <path id="Vector-5" data-name="Vector" d="M0,0H28V28H0Z" fill="none" opacity="0"/>
      </g>
    </g>
  </g>
</svg>
