<svg xmlns="http://www.w3.org/2000/svg" width="20" height="20" viewBox="0 0 20 20">
  <g id="instagram" transform="translate(-317 -211)">
    <rect id="Rectangle_110427" data-name="Rectangle 110427" width="20" height="20" transform="translate(317 211)" fill="#f1f1f1" opacity="0"/>
    <g id="instagram-2" data-name="instagram" transform="translate(318.219 212.666)">
      <path id="Path_150890" data-name="Path 150890" d="M17.07,4.9a6.09,6.09,0,0,0-.387-2.022A4.27,4.27,0,0,0,14.244.44,6.106,6.106,0,0,0,12.222.052C11.33.01,11.047,0,8.784,0S6.238.01,5.349.049A6.092,6.092,0,0,0,3.327.436,4.067,4.067,0,0,0,1.849,1.4,4.1,4.1,0,0,0,.888,2.875,6.107,6.107,0,0,0,.5,4.9C.458,5.789.449,6.072.449,8.335S.458,10.882.5,11.77a6.09,6.09,0,0,0,.388,2.022,4.269,4.269,0,0,0,2.439,2.439,6.107,6.107,0,0,0,2.022.387c.889.039,1.172.049,3.435.049s2.546-.01,3.435-.049a6.089,6.089,0,0,0,2.022-.387,4.263,4.263,0,0,0,2.439-2.439,6.111,6.111,0,0,0,.387-2.022c.039-.889.049-1.172.049-3.435s0-2.546-.042-3.435Zm-1.5,6.805a4.568,4.568,0,0,1-.287,1.547A2.765,2.765,0,0,1,13.7,14.834a4.585,4.585,0,0,1-1.547.286c-.879.039-1.143.049-3.367.049S6.3,15.16,5.42,15.121a4.566,4.566,0,0,1-1.547-.286,2.565,2.565,0,0,1-.957-.622,2.591,2.591,0,0,1-.622-.957,4.585,4.585,0,0,1-.286-1.547c-.039-.879-.049-1.143-.049-3.367s.01-2.491.049-3.367a4.566,4.566,0,0,1,.286-1.547,2.533,2.533,0,0,1,.625-.957,2.587,2.587,0,0,1,.957-.622,4.588,4.588,0,0,1,1.547-.287c.879-.039,1.143-.049,3.367-.049s2.491.01,3.367.049a4.568,4.568,0,0,1,1.547.287,2.563,2.563,0,0,1,.957.622,2.591,2.591,0,0,1,.622.957,4.587,4.587,0,0,1,.287,1.547c.039.879.049,1.143.049,3.367s-.01,2.484-.049,3.363Zm0,0" fill="#b42c4b"/>
      <path id="Path_150891" data-name="Path 150891" d="M129.231,124.5a4.282,4.282,0,1,0,4.282,4.282A4.283,4.283,0,0,0,129.231,124.5Zm0,7.059a2.777,2.777,0,1,1,2.777-2.777A2.778,2.778,0,0,1,129.231,131.559Zm0,0" transform="translate(-120.447 -120.446)" fill="#ffd7ac"/>
      <path id="Path_150892" data-name="Path 150892" d="M364.449,89.6a1,1,0,1,1-1-1A1,1,0,0,1,364.449,89.6Zm0,0" transform="translate(-350.214 -85.717)" fill="#ffd7ac"/>
    </g>
  </g>
</svg>
