<svg xmlns="http://www.w3.org/2000/svg" width="22.978" height="21.608" viewBox="0 0 22.978 21.608">
  <g id="Group_134097" data-name="Group 134097" transform="translate(5783.608 -3751.392)">
    <g id="Group_134094" data-name="Group 134094" transform="translate(-5785.167 3738.798)">
      <g id="Group_134099" data-name="Group 134099" opacity="0.7">
        <g id="Group_134082" data-name="Group 134082" transform="translate(6 19)" opacity="0.7">
          <path id="Path_148038" data-name="Path 148038" d="M9.937,21.461H7.293a.793.793,0,1,1,0-1.586H9.937a.264.264,0,0,0,.264-.264V14.851a.264.264,0,0,0-.264-.264H7.293a.793.793,0,1,1,0-1.586H9.937a1.853,1.853,0,0,1,1.851,1.851V19.61A1.853,1.853,0,0,1,9.937,21.461Z" transform="translate(-6.5 -13)" fill="#b0b0b0"/>
          <path id="Path_148039" data-name="Path 148039" d="M10.995,17.836h-3.7a.793.793,0,0,1,0-1.586h3.7a.793.793,0,0,1,0,1.586Z" transform="translate(-6.5 -12.813)" fill="#b0b0b0"/>
        </g>
        <path id="Path_148040" data-name="Path 148040" d="M16.995,21.461H14.351A1.853,1.853,0,0,1,12.5,19.61V14.851A1.853,1.853,0,0,1,14.351,13h2.644a.793.793,0,0,1,0,1.586H14.351a.264.264,0,0,0-.264.264V19.61a.264.264,0,0,0,.264.264H16.2V18.288h-.793a.793.793,0,1,1,0-1.586h1.586a.793.793,0,0,1,.793.793v3.173A.793.793,0,0,1,16.995,21.461Z" transform="translate(0.263 6)" fill="#b0b0b0" opacity="0.7"/>
      </g>
      <g id="Group_134089" data-name="Group 134089" transform="translate(18.358 19)" opacity="0.7">
        <g id="Group_134081" data-name="Group 134081" transform="translate(3.006 0)" opacity="0.7">
          <path id="Path_148051" data-name="Path 148051" d="M13.586,9.115a.4.4,0,0,1-.3-.131L12.1,7.662a.4.4,0,0,1,.59-.531l.895.995.895-.995a.4.4,0,0,1,.59.531l-1.19,1.322A.4.4,0,0,1,13.586,9.115Z" transform="translate(-12 -4.745)" fill="#b0b0b0"/>
          <path id="Path_148053" data-name="Path 148053" d="M14.647,0c-.219,0-.4.129-.4.288V3.942c0,.159.178.288.4.288s.4-.129.4-.288V.288C15.043.129,14.866,0,14.647,0Z" transform="translate(-13.06)" fill="#b0b0b0"/>
        </g>
        <g id="Group_134090" data-name="Group 134090" transform="translate(3.173 4.37) rotate(180)" opacity="0.7">
          <path id="Path_148051-2" data-name="Path 148051" d="M1.587,2.115a.4.4,0,0,1-.3-.131L.1.662A.4.4,0,0,1,.692.131l.895.995L2.481.131a.4.4,0,0,1,.59.531L1.882,1.984A.4.4,0,0,1,1.587,2.115Z" transform="translate(0 2.255)" fill="#b0b0b0"/>
          <path id="Path_148053-2" data-name="Path 148053" d="M.4,0C.178,0,0,.129,0,.288V3.942c0,.159.178.288.4.288s.4-.129.4-.288V.288C.793.129.616,0,.4,0Z" transform="translate(1.19)" fill="#b0b0b0"/>
        </g>
      </g>
    </g>
    <g id="vuesax_twotone_sms-tracking" data-name="vuesax/twotone/sms-tracking" transform="translate(-5142 4025) rotate(180)">
      <g id="sms-tracking" transform="translate(620 252)">
        <path id="Vector" d="M0,4.5C0,1.35,1.8,0,4.5,0h9c2.7,0,4.5,1.35,4.5,4.5v6.3c0,3.151-1.8,4.5-4.5,4.5H1.261" transform="translate(1.801 3.151)" fill="none" stroke="#b0b0b0" stroke-linecap="round" stroke-linejoin="round" stroke-width="1.5"/>
        <path id="Vector-2" data-name="Vector" d="M0,0H21.608V21.608H0Z" fill="none" opacity="0"/>
      </g>
    </g>
  </g>
</svg>
