<svg id="linked_in" data-name="linked in" xmlns="http://www.w3.org/2000/svg" width="20" height="20" viewBox="0 0 20 20">
  <g id="youtube">
    <path id="BG_127" data-name="BG 127" d="M0,0H20V20H0Z" fill="none" opacity="0.58"/>
    <path id="Vector" d="M0,0H20V20H0Z" fill="none" opacity="0"/>
    <g id="linkedin_1_" data-name="linkedin (1)" transform="translate(3.27 -1.62)">
      <g id="Group_134518" data-name="Group 134518" transform="translate(-1 4.267)">
        <g id="Group_134517" data-name="Group 134517" transform="translate(0 0)">
          <path id="Path_150896" data-name="Path 150896" d="M1.087,4.267A2.067,2.067,0,0,0-1,6.328,2.066,2.066,0,0,0-.382,7.8a1.965,1.965,0,0,0,1.443.593h.052A1.953,1.953,0,0,0,2.5,7.8a2.066,2.066,0,0,0,.618-1.469A1.925,1.925,0,0,0,2.53,4.885,1.95,1.95,0,0,0,1.087,4.267ZM2.143,7.436a1.419,1.419,0,0,1-1.082.438A1.564,1.564,0,0,1-.021,7.436,1.5,1.5,0,0,1-.485,6.328,1.54,1.54,0,0,1,1.087,4.782a1.5,1.5,0,0,1,1.056.438,1.54,1.54,0,0,1,.464,1.108A1.5,1.5,0,0,1,2.143,7.436Z" transform="translate(1 -5.267)" fill="#ffd7ac"/>
          <path id="Path_150896_-_Outline" data-name="Path 150896 - Outline" d="M1.087,4.117a2.1,2.1,0,0,1,1.552.666,2.082,2.082,0,0,1,.633,1.549A2.218,2.218,0,0,1,2.61,7.9a2.113,2.113,0,0,1-1.5.637H1.065A2.121,2.121,0,0,1-.488,7.9,2.218,2.218,0,0,1-1.15,6.328,2.189,2.189,0,0,1-.488,4.754,2.205,2.205,0,0,1,1.087,4.117ZM1.113,8.24A1.815,1.815,0,0,0,2.4,7.691a1.92,1.92,0,0,0,.574-1.363V6.321a1.785,1.785,0,0,0-.549-1.33,1.81,1.81,0,0,0-1.337-.574A1.917,1.917,0,0,0-.85,6.328,1.92,1.92,0,0,0-.276,7.691a1.815,1.815,0,0,0,1.329.549h.059ZM1.087,4.632a1.656,1.656,0,0,1,1.162.482,1.686,1.686,0,0,1,.508,1.214,1.648,1.648,0,0,1-.51,1.216,1.556,1.556,0,0,1-1.191.48,1.711,1.711,0,0,1-1.181-.48,1.648,1.648,0,0,1-.51-1.216,1.69,1.69,0,0,1,1.722-1.7Zm.052,3.094a1.277,1.277,0,0,0,.9-.4l0,0a1.347,1.347,0,0,0,.415-1,1.392,1.392,0,0,0-.42-1,1.354,1.354,0,0,0-.95-.394,1.39,1.39,0,0,0-1.422,1.4,1.347,1.347,0,0,0,.415,1l0,0a1.4,1.4,0,0,0,.976.394h.009Z" transform="translate(1 -5.267)" fill="#ffd7ac"/>
          <path id="Path_150897" data-name="Path 150897" d="M10.367,157.867H8.28a.754.754,0,0,0-.747.773v9.018a.793.793,0,0,0,.773.773h2.061a.788.788,0,0,0,.773-.747V158.64A.793.793,0,0,0,10.367,157.867Zm.258,9.817a.254.254,0,0,1-.258.232H8.306a.277.277,0,0,1-.258-.258V158.64a.254.254,0,0,1,.232-.258h2.087a.277.277,0,0,1,.258.258Z" transform="translate(-7.275 -153.229)" fill="#b42c4b"/>
          <path id="Path_150897_-_Outline" data-name="Path 150897 - Outline" d="M8.28,157.717h2.087a.947.947,0,0,1,.923.923v9.044a.934.934,0,0,1-.923.9H8.306a.947.947,0,0,1-.923-.923V158.64A.9.9,0,0,1,8.28,157.717Zm2.087,10.564a.643.643,0,0,0,.623-.6V158.64a.639.639,0,0,0-.623-.623H8.28a.6.6,0,0,0-.6.623v9.018a.639.639,0,0,0,.623.623ZM8.28,158.232h2.087a.424.424,0,0,1,.408.408v9.044a.4.4,0,0,1-.408.382H8.306a.424.424,0,0,1-.408-.408V158.64A.4.4,0,0,1,8.28,158.232Zm2.087,9.533c.051,0,.108-.043.108-.082V158.64a.13.13,0,0,0-.108-.108H8.28c-.039,0-.082.056-.082.108v9.018a.13.13,0,0,0,.108.108Z" transform="translate(-7.275 -153.229)" fill="#b42c4b"/>
          <path id="Path_150898" data-name="Path 150898" d="M175.538,149.333H175a3.481,3.481,0,0,0-2.577,1.134v-.361a.554.554,0,0,0-.515-.515h-2.577a.529.529,0,0,0-.515.49v9.611a.506.506,0,0,0,.515.464h2.834a.506.506,0,0,0,.515-.464v-5.565a1.454,1.454,0,0,1,1.417-1.52,1.519,1.519,0,0,1,1.082.438,1.353,1.353,0,0,1,.361,1.056v5.54a.554.554,0,0,0,.515.515h2.577a.554.554,0,0,0,.515-.515v-6.648A3.581,3.581,0,0,0,175.538,149.333Zm3.092,10.281-.026.026h-2.525l-.026-5.54a1.9,1.9,0,0,0-.49-1.417,2.027,2.027,0,0,0-1.443-.593,1.987,1.987,0,0,0-1.932,2.036v5.514h-2.834v-9.533H171.9l.026.026v1.623l.7-.7.026-.026a2.94,2.94,0,0,1,2.37-1.185h.541a3.075,3.075,0,0,1,3.066,3.143Z" transform="translate(-163.686 -144.953)" fill="#b42c4b"/>
          <path id="Path_150898_-_Outline" data-name="Path 150898 - Outline" d="M175,149.183h.541a3.718,3.718,0,0,1,2.674,1.1,3.824,3.824,0,0,1,1.083,2.708v6.648a.7.7,0,0,1-.665.665h-2.577a.7.7,0,0,1-.665-.665V154.1a1.211,1.211,0,0,0-.311-.945l-.006-.005a1.367,1.367,0,0,0-.976-.394,1.308,1.308,0,0,0-1.267,1.37v5.565a.651.651,0,0,1-.665.614h-2.834a.651.651,0,0,1-.665-.614V150.08a.68.68,0,0,1,.665-.64H171.9a.7.7,0,0,1,.665.663A3.67,3.67,0,0,1,175,149.183ZM178.63,160a.408.408,0,0,0,.365-.365v-6.648a3.446,3.446,0,0,0-3.457-3.509H175a3.334,3.334,0,0,0-2.465,1.083l-.262.295v-.755a.407.407,0,0,0-.365-.365h-2.577a.38.38,0,0,0-.365.34v9.611a.359.359,0,0,0,.365.314h2.834a.359.359,0,0,0,.365-.314v-5.565a1.6,1.6,0,0,1,1.567-1.67,1.665,1.665,0,0,1,1.185.479,1.488,1.488,0,0,1,.407,1.165v5.54a.407.407,0,0,0,.365.365ZM175.023,149.7h.541a3.221,3.221,0,0,1,3.216,3.293v6.684l-.114.114H175.93L175.9,154.1a1.763,1.763,0,0,0-.446-1.312,1.876,1.876,0,0,0-1.337-.549,1.826,1.826,0,0,0-1.782,1.886v5.664H169.2v-9.833h2.763l.114.114v1.323l.457-.457A3.1,3.1,0,0,1,175.023,149.7Zm3.457,9.791v-6.5A2.924,2.924,0,0,0,175.564,150h-.541a2.79,2.79,0,0,0-2.248,1.122l-.016.019-.977.978v-1.861H169.5v9.233h2.534v-5.364a2.146,2.146,0,0,1,2.079-2.185,2.176,2.176,0,0,1,1.553.637,2.043,2.043,0,0,1,.533,1.523l.025,5.39Z" transform="translate(-163.686 -144.953)" fill="#b42c4b"/>
        </g>
      </g>
    </g>
  </g>
</svg>
