<svg xmlns="http://www.w3.org/2000/svg" width="32" height="32" viewBox="0 0 32 32">
  <g id="Super_4G_icon" data-name="Super 4G icon" transform="translate(-307 -735)">
    <rect id="Rectangle_110565" data-name="Rectangle 110565" width="32" height="32" transform="translate(307 735)" fill="#fff" opacity="0"/>
    <g id="Group_133876" data-name="Group 133876" transform="translate(1790.384 1900.359)">
      <path id="Path_147981" data-name="Path 147981" d="M-1469.026-1149.339c-.1.513-.2,1.026-.3,1.54s-.2,1.054-.3,1.581q-.348,1.862-.7,3.724-.021.115-.047.229c-.019.088.006.128.1.125.208-.006.416,0,.623-.005.169,0,.187-.015.195-.182a11.315,11.315,0,0,1,.165-1.417,13.914,13.914,0,0,1,2.034-5.334,9.721,9.721,0,0,1,2.145-2.382,8.164,8.164,0,0,1,2.121-1.206,9.745,9.745,0,0,1,2.847-.6c.155-.01.312,0,.467,0l7.505,0a.976.976,0,0,1,.143.006.252.252,0,0,1,.22.328c-.186.689-.375,1.376-.563,2.064-.029.1-.059.208-.083.313-.046.205-.147.348-.38.347a.953.953,0,0,0-.266.007c-.335-.032-.67-.005-1.005-.008-.219,0-.439.008-.658.012l-.143,0-.985.015c-.039,0-.077-.006-.116-.006l-3.8.027a2.119,2.119,0,0,0-.4.009,4.3,4.3,0,0,0-2.507.907,7.114,7.114,0,0,0-1.861,2.466,11.269,11.269,0,0,0-.686,1.8,7.038,7.038,0,0,0-.266,1.161,9.108,9.108,0,0,0-.2,1.556c0,.035,0,.071-.006.106a3.3,3.3,0,0,0-.041.553,6.554,6.554,0,0,0,.042,1.288,3.719,3.719,0,0,0,.69,2.048,1.869,1.869,0,0,0,1.523.707,4.484,4.484,0,0,0,.892-.069.175.175,0,0,0,.164-.154c.053-.287.1-.573.16-.859.047-.242.113-.482.143-.726.049-.409.17-.8.222-1.212.034-.269.112-.532.165-.8.049-.246.077-.5.142-.741.021-.076-.043-.072-.089-.072-.281,0-.563,0-.844,0a2.748,2.748,0,0,1-.311-.015.4.4,0,0,1-.352-.515c.084-.376.174-.752.245-1.131a3.012,3.012,0,0,1,.23-.852.4.4,0,0,1,.315-.227,2.108,2.108,0,0,1,.3-.02h3.792a.447.447,0,0,1,.274.06.351.351,0,0,1,.16.32,6.158,6.158,0,0,1-.145.83c-.156.85-.325,1.7-.492,2.548-.126.645-.257,1.289-.384,1.934q-.3,1.521-.595,3.043a1.648,1.648,0,0,1-.321.742,1.465,1.465,0,0,1-.771.476,10.882,10.882,0,0,1-3,.4c-.03,0-.06,0-.09,0l-1.038-.094-.053-.007c-.051-.011-.1-.023-.152-.031a5.225,5.225,0,0,1-2.043-.775,5.239,5.239,0,0,1-2.04-2.706c-.086-.24-.13-.493-.239-.724-.032-.065-.094-.053-.148-.054-.489,0-.978,0-1.468,0-.094,0-.117.05-.131.125-.082.429-.165.858-.246,1.287q-.25,1.319-.5,2.639c-.012.064-.027.127-.043.19-.064.246-.115.284-.372.284h-3.13c-.313,0-.411-.109-.353-.417.2-1.08.411-2.159.615-3.238.047-.246.084-.495.135-.74.022-.106-.019-.13-.112-.128-.186,0-.372,0-.558,0l-6.22,0a2.3,2.3,0,0,1-.414-.03.6.6,0,0,1-.487-.706q.141-.746.284-1.491c.024-.123.04-.247.066-.369a.881.881,0,0,1,.192-.366l4.382-5.605q1.995-2.552,3.988-5.106a1.585,1.585,0,0,1,.247-.3.9.9,0,0,1,.594-.184c1.221,0,2.441,0,3.662.008a.728.728,0,0,1,.748.454,1.2,1.2,0,0,1,.007.641q-.09.487-.183.975,0,.038,0,.076l-.019.081a.553.553,0,0,0-.04.2l-.013.059-.027.073-.13.783a.414.414,0,0,0-.035.175l-.015.06A.455.455,0,0,0-1469.026-1149.339Zm-7.209,7.2h1.7c.268,0,.268,0,.318-.266,0-.021.01-.042.015-.063q.359-1.681.717-3.361c.247-1.164.549-2.315.814-3.475.03-.132.079-.259.113-.39.011-.043.035-.1-.016-.13s-.081.034-.106.07c-.052.074-.1.15-.149.226-.684,1.061-1.363,2.125-2.1,3.153-.615.863-1.276,1.692-1.924,2.53-.4.52-.81,1.036-1.214,1.554-.03.038-.1.066-.068.125s.087.025.133.025Q-1477.118-1142.14-1476.235-1142.141Z" transform="translate(0 0)" fill="#b42c4b"/>
      <path id="Path_147982" data-name="Path 147982" d="M-550.17-1008.462q-.118.6-.236,1.208c-.036.187-.071.373-.107.56-.015.079.006.129.1.123.22-.014.441.011.66-.018h.122l.031,0c.055,0,.064.05.093.078-.021.114-.045.228-.063.343a.108.108,0,0,1-.12.106c-.444,0-.887,0-1.331,0a.246.246,0,0,1-.192-.061c.15-.789.3-1.579.453-2.367.022-.113.011-.251.158-.3l.009,0,.008,0h.232c.218,0,.252.04.209.24l-.015.038Z" transform="translate(-907.295 -140.719)" fill="#ebccab"/>
      <path id="Path_147983" data-name="Path 147983" d="M-406.082-1007.993l-.364,0c-.146,0-.293,0-.44-.006a.128.128,0,0,0-.149.124c-.014.1-.029.2-.047.293-.025.135-.012.154.123.154.216,0,.431,0,.647,0,.109,0,.15.044.129.151s-.038.211-.057.317a.8.8,0,0,1-.232.033l-.609,0a.135.135,0,0,0-.155.134,3.978,3.978,0,0,1-.069.395c-.022.094,0,.126.1.124.259,0,.518,0,.778-.005a.2.2,0,0,1,.165.055,1.878,1.878,0,0,0-.049.278c0,.131-.067.174-.188.165a1.087,1.087,0,0,0-.128.005h-1.143c-.067-.016-.142.012-.2-.035a2.16,2.16,0,0,1,.078-.589c.055-.265.09-.534.139-.8.063-.336.138-.669.2-1.005.042-.247.076-.289.323-.291.333,0,.665,0,1,0,.367,0,.408.062.275.409A.137.137,0,0,1-406.082-1007.993Z" transform="translate(-1046.813 -141)" fill="#ebccab"/>
      <path id="Path_147984" data-name="Path 147984" d="M-482.45-1008.226c-.158,0-.317-.007-.475,0-.107,0-.141-.047-.113-.142.038-.127.014-.278.143-.37h1.745c.064,0,.131-.012.181.045h0l.007.025v.054c-.046.125-.016.272-.115.381l-.127.015-.39,0c-.119-.021-.177.032-.194.148s-.042.245-.063.368l-.006.077a.245.245,0,0,0-.019.047c-.089.471-.179.942-.263,1.413a.165.165,0,0,1-.175.163,1.634,1.634,0,0,1-.423-.017l0,0a.783.783,0,0,1,.013-.228c.027-.119.048-.239.067-.358.08-.5.171-.993.282-1.484C-482.36-1008.151-482.336-1008.237-482.45-1008.226Z" transform="translate(-973.692 -140.768)" fill="#ebccab"/>
    </g>
    <path id="Path_150893" data-name="Path 150893" d="M-17.488,2.031a2.826,2.826,0,0,1-.672-.078l.078-.84a2.38,2.38,0,0,0,.648.094A.8.8,0,0,0-16.8.973a1.344,1.344,0,0,0,.23-.883V-3.762h1.055v2.93h.785V0h-.785V.031A1.757,1.757,0,0,1-17.488,2.031Zm2.637-2.863h1.121v-2.93h1.055V0h-2.176ZM-13.8,1.754a.54.54,0,0,1-.391-.16.536.536,0,0,1-.16-.395.54.54,0,0,1,.16-.391A.54.54,0,0,1-13.8.648a.532.532,0,0,1,.391.16.525.525,0,0,1,.164.391.525.525,0,0,1-.164.391A.525.525,0,0,1-13.8,1.754Zm3.43.262a7.226,7.226,0,0,1-1.219-.105l.066-.863a5.816,5.816,0,0,0,1.246.137q1.387,0,1.387-1.062V0h-.625q-2.145,0-2.145-1.855a1.974,1.974,0,0,1,.508-1.4,2.1,2.1,0,0,1,1.613-.609,4.689,4.689,0,0,1,1.672.277V-.832h.781V0h-.781V.016A1.807,1.807,0,0,1-8.445,1.43,2.782,2.782,0,0,1-10.367,2.016Zm1.48-4.9a1.774,1.774,0,0,0-.762-.145.868.868,0,0,0-.7.3,1.148,1.148,0,0,0-.254.773q0,1.121,1.2,1.121h.512ZM-7.2-.832h.4a.661.661,0,0,0,.555-.2,1.341,1.341,0,0,0,.168-.789V-3.281h1.055V-1.8a2.1,2.1,0,0,0,.1.785.448.448,0,0,0,.453.246q.641,0,.641-1.023V-3.6h1.016v2.008a.752.752,0,0,0,.2.617,1.331,1.331,0,0,0,.75.145h.207a7.441,7.441,0,0,0,.059-.961A9.717,9.717,0,0,0-1.84-3.937l1.031-.141A9.458,9.458,0,0,1-.551-1.863,13.279,13.279,0,0,1-.672,0h-1.32a3.178,3.178,0,0,1-.969-.109.909.909,0,0,1-.512-.441A1.191,1.191,0,0,1-4.68.063.978.978,0,0,1-5.742-.559,1.039,1.039,0,0,1-6.809,0H-7.2Z" transform="translate(339 743.874)" fill="#b42c4b"/>
  </g>
</svg>
