<svg xmlns="http://www.w3.org/2000/svg" width="24" height="24" viewBox="0 0 24 24">
  <g id="lock" transform="translate(-108 -316)">
    <path id="Vector" d="M0,8V6C0,2.69,1,0,6,0s6,2.69,6,6V8" transform="translate(114 318)" fill="none" stroke="#868686" stroke-linecap="round" stroke-linejoin="round" stroke-width="1.5" opacity="0.4"/>
    <path id="Vector-2" data-name="Vector" d="M15,12H5c-4,0-5-1-5-5V5C0,1,1,0,5,0H15c4,0,5,1,5,5V7C20,11,19,12,15,12Z" transform="translate(110 326)" fill="none" stroke="#868686" stroke-linecap="round" stroke-linejoin="round" stroke-width="1.5"/>
    <path id="Vector-3" data-name="Vector" d="M0,0H24V24H0Z" transform="translate(108 316)" fill="none" opacity="0"/>
    <path id="Vector-4" data-name="Vector" d="M.495.5H.5" transform="translate(123.502 331.5)" fill="none" stroke="#868686" stroke-linecap="round" stroke-linejoin="round" stroke-width="2" opacity="0.4"/>
    <path id="Vector-5" data-name="Vector" d="M.495.5H.5" transform="translate(119.501 331.5)" fill="none" stroke="#868686" stroke-linecap="round" stroke-linejoin="round" stroke-width="2" opacity="0.4"/>
    <path id="Vector-6" data-name="Vector" d="M.495.5H.5" transform="translate(115.5 331.5)" fill="none" stroke="#868686" stroke-linecap="round" stroke-linejoin="round" stroke-width="2" opacity="0.4"/>
  </g>
</svg>
