<svg xmlns="http://www.w3.org/2000/svg" width="34" height="34" viewBox="0 0 34 34">
  <g id="vuesax_bulk_note" data-name="vuesax/bulk/note" transform="translate(-428 -252)">
    <g id="note" transform="translate(428 252)">
      <path id="Vector" d="M0,0H34V34H0Z" fill="none" opacity="0"/>
      <path id="Vector-2" data-name="Vector" d="M22.667,5.667V19.479c0,4.25-2.536,5.667-5.667,5.667H5.667C2.536,25.146,0,23.729,0,19.479V5.667C0,1.063,2.536,0,5.667,0A3.169,3.169,0,0,0,6.6,2.252a3.169,3.169,0,0,0,2.253.935h4.958A3.192,3.192,0,0,0,17,0C20.131,0,22.667,1.063,22.667,5.667Z" transform="translate(5.667 6.021)" fill="#b42c4b"/>
      <path id="Vector-3" data-name="Vector" d="M11.333,3.188A3.192,3.192,0,0,1,8.146,6.375H3.188A3.188,3.188,0,0,1,3.188,0H8.146a3.192,3.192,0,0,1,3.187,3.188Z" transform="translate(11.333 2.833)" fill="#ffd7ac"/>
      <g id="Group" transform="translate(10.271 17.354)">
        <path id="Vector-4" data-name="Vector" d="M6.729,2.125H1.063A1.07,1.07,0,0,1,0,1.063,1.07,1.07,0,0,1,1.063,0H6.729A1.07,1.07,0,0,1,7.792,1.063,1.07,1.07,0,0,1,6.729,2.125Z" fill="#ffd7ac"/>
      </g>
      <g id="Group-2" data-name="Group" transform="translate(10.271 23.021)">
        <path id="Vector-5" data-name="Vector" d="M12.4,2.125H1.063A1.07,1.07,0,0,1,0,1.063,1.07,1.07,0,0,1,1.063,0H12.4a1.07,1.07,0,0,1,1.063,1.063A1.07,1.07,0,0,1,12.4,2.125Z" fill="#ffd7ac"/>
      </g>
      <path id="Vector-6" data-name="Vector" d="M0,0H34V34H0Z" fill="none" opacity="0"/>
    </g>
  </g>
</svg>
