<svg xmlns="http://www.w3.org/2000/svg" width="29" height="29" viewBox="0 0 29 29">
  <g id="Group_133468" data-name="Group 133468" transform="translate(-313 -757)">
    <rect id="Rectangle_110395" data-name="Rectangle 110395" width="29" height="29" transform="translate(313 757)" fill="#f1f1f1" opacity="0"/>
    <g id="Iconly_Curved_Category" data-name="Iconly/Curved/Category" transform="translate(317 761)">
      <g id="Category">
        <path id="Stroke_1" data-name="Stroke 1" d="M8.388,4.193A4.194,4.194,0,1,1,4.193,0,4.194,4.194,0,0,1,8.388,4.193Z" transform="translate(12.163)" fill="#efefef"/>
        <path id="Stroke_3" data-name="Stroke 3" d="M8.388,4.193A4.194,4.194,0,1,1,4.193,0,4.194,4.194,0,0,1,8.388,4.193Z" fill="#efefef"/>
        <path id="Stroke_5" data-name="Stroke 5" d="M8.388,4.193A4.194,4.194,0,1,1,4.193,0,4.193,4.193,0,0,1,8.388,4.193Z" transform="translate(12.163 12.084)" fill="#efefef"/>
        <path id="Stroke_7" data-name="Stroke 7" d="M8.388,4.193A4.194,4.194,0,1,1,4.193,0,4.193,4.193,0,0,1,8.388,4.193Z" transform="translate(0 12.084)" fill="#efefef"/>
      </g>
    </g>
  </g>
</svg>
