<svg xmlns="http://www.w3.org/2000/svg" width="49" height="24" viewBox="0 0 49 24">
  <g id="Group_134514" data-name="Group 134514" transform="translate(-114 -565)">
    <path id="Rectangle_110557" data-name="Rectangle 110557" d="M12,0H49a0,0,0,0,1,0,0V12A12,12,0,0,1,37,24H0a0,0,0,0,1,0,0V12A12,12,0,0,1,12,0Z" transform="translate(114 565)" fill="#ffd7ac"/>
    <path id="Path_148244" data-name="Path 148244" d="M-23.6-8.461h1.318v7.418h1.271V0H-23.6ZM-21.047-10l2.689-.381v.668l-2.689.387Zm.012-1.184,2.689-.387v.686l-2.689.381Zm-.152,10.143h1.717v-4.6h1.318v4.6h1.26V0h-4.295Zm1.535,3.574a.7.7,0,0,1-.516-.211.711.711,0,0,1-.217-.521.692.692,0,0,1,.217-.516.692.692,0,0,1,.516-.217.711.711,0,0,1,.521.217.7.7,0,0,1,.211.516.721.721,0,0,1-.211.521A.721.721,0,0,1-19.652,2.531Zm2.578-3.574h2.338v-4.6h1.324V0h-3.662Zm3.586,2.83a.732.732,0,0,1-.205.521.669.669,0,0,1-.5.211.675.675,0,0,1-.5-.211.732.732,0,0,1-.205-.521.7.7,0,0,1,.205-.5.667.667,0,0,1,.5-.217.669.669,0,0,1,.5.211A.7.7,0,0,1-13.488,1.787Zm-1.869,0a.73.73,0,0,1-.2.521.682.682,0,0,1-.51.211.662.662,0,0,1-.492-.211.732.732,0,0,1-.205-.521.711.711,0,0,1,.205-.5.654.654,0,0,1,.492-.217.682.682,0,0,1,.51.211A.716.716,0,0,1-15.357,1.787Zm4.09,1.283a4.269,4.269,0,0,1-1.154-.152l.135-1.061a3.39,3.39,0,0,0,1.09.17,1.353,1.353,0,0,0,1.078-.4A2.256,2.256,0,0,0-9.732.146V-5.643h1.318v4.6h1.26V0h-1.26V.059Q-8.414,3.07-11.268,3.07ZM-7.342,0V-1.043h.826a2.737,2.737,0,0,1,.686.07,2.1,2.1,0,0,1-.791-1.881A2.852,2.852,0,0,1-5.854-4.9a2.989,2.989,0,0,1,2.279-.885q2.643,0,2.643,2.713V0Zm5.121-2.865q0-1.875-1.447-1.875a1.514,1.514,0,0,0-1.2.51A1.914,1.914,0,0,0-5.3-2.918q0,1.875,2.016,1.875h1.066Zm-.551-3.8a.666.666,0,0,1-.5-.205.689.689,0,0,1-.211-.516.688.688,0,0,1,.211-.5.669.669,0,0,1,.5-.211.675.675,0,0,1,.5.211.7.7,0,0,1,.205.5.7.7,0,0,1-.205.51A.675.675,0,0,1-2.771-6.662Zm-1.869,0a.659.659,0,0,1-.492-.205.712.712,0,0,1-.205-.516.7.7,0,0,1,.205-.5A.662.662,0,0,1-4.641-8.1a.675.675,0,0,1,.5.211.685.685,0,0,1,.205.5.692.692,0,0,1-.205.51A.675.675,0,0,1-4.641-6.662Z" transform="translate(151 580)" fill="#292929"/>
  </g>
</svg>
