<svg xmlns="http://www.w3.org/2000/svg" width="30" height="30" viewBox="0 0 30 30">
  <g id="vuesax_twotone_sms-notification" data-name="vuesax/twotone/sms-notification" transform="translate(-684 -252)">
    <g id="sms-notification" transform="translate(684 252)">
      <path id="Vector" d="M25,8.75V15c0,4.375-2.5,6.25-6.25,6.25H6.25C2.5,21.25,0,19.375,0,15V6.25C0,1.875,2.5,0,6.25,0H15" transform="translate(2.5 4.375)" fill="none" stroke="#b42c4b" stroke-linecap="round" stroke-linejoin="round" stroke-width="1.5"/>
      <path id="Vector-2" data-name="Vector" d="M0,0,3.913,3.125a3.957,3.957,0,0,0,4.688,0L10.075,1.95" transform="translate(8.75 11.25)" fill="none" stroke="#ffd7ac" stroke-linecap="round" stroke-linejoin="round" stroke-width="1.5"/>
      <path id="Vector-3" data-name="Vector" d="M6.25,3.125A3.125,3.125,0,1,1,3.125,0,3.125,3.125,0,0,1,6.25,3.125Z" transform="translate(21.25 3.75)" fill="none" stroke="#ffd7ac" stroke-linecap="round" stroke-linejoin="round" stroke-width="1.5"/>
      <path id="Vector-4" data-name="Vector" d="M0,0H30V30H0Z" fill="none" opacity="0"/>
    </g>
  </g>
</svg>
