<svg id="telegram" xmlns="http://www.w3.org/2000/svg" width="20" height="20" viewBox="0 0 20 20">
  <g id="youtube">
    <path id="BG_127" data-name="BG 127" d="M0,0H20V20H0Z" fill="none" opacity="0.58"/>
    <path id="Vector" d="M0,0H20V20H0Z" fill="none" opacity="0"/>
    <g id="Group_134551" data-name="Group 134551" transform="translate(19.285 129.112)">
      <path id="Path_151006" data-name="Path 151006" d="M2167.444,1331.614h-1.2c-.016-.047-.058-.028-.089-.031a7.951,7.951,0,0,1-1.233-.22,7.659,7.659,0,1,1,9.527-8.524,2.215,2.215,0,0,0,.082.519v1.2c-.038.014-.027.048-.03.076-.025.268-.063.533-.114.8a7.679,7.679,0,0,1-6.4,6.105A2.93,2.93,0,0,0,2167.444,1331.614Zm-.569-14.359a6.7,6.7,0,1,0,6.7,6.7A6.712,6.712,0,0,0,2166.875,1317.254Z" transform="translate(-2176.161 -1443.061)" fill="#b42c4b"/>
      <path id="Path_151007" data-name="Path 151007" d="M2225.151,1415.053c-.085-.021-.141.032-.2.057-.22.091-.437.189-.656.283a.5.5,0,0,1-.5-.039q-.917-.588-1.836-1.173a.482.482,0,0,1,.091-.865q4.022-1.575,8.044-3.152a.5.5,0,0,1,.692.567c-.311,1.622-.6,3.249-.891,4.874-.114.631-.231,1.262-.346,1.894a.48.48,0,0,1-.736.37q-1.014-.5-2.025-1.014a.152.152,0,0,0-.215.033c-.284.294-.578.578-.865.869a.486.486,0,0,1-.864-.357c.005-.558.01-1.116,0-1.674a.647.647,0,0,1,.235-.567.483.483,0,0,0,.062-.065C2225.146,1415.087,2225.146,1415.075,2225.151,1415.053Zm3.563,1.7.98-5.393-6.438,2.52c.226.144.436.259.623.4a.434.434,0,0,0,.509.038c.911-.409,1.83-.8,2.745-1.2a.483.483,0,0,1,.557.05.47.47,0,0,1,0,.733q-.9.9-1.8,1.8c-.037.037-.089.064-.088.13,0,.147,0,.293,0,.482.158-.16.283-.292.414-.419a.47.47,0,0,1,.587-.1c.13.061.258.128.387.193Z" transform="translate(-2236.172 -1533.134)" fill="#ffd7ac"/>
    </g>
  </g>
</svg>
