<svg id="twitter" xmlns="http://www.w3.org/2000/svg" width="20" height="20" viewBox="0 0 20 20">
  <g id="youtube">
    <path id="BG_127" data-name="BG 127" d="M0,0H20V20H0Z" fill="none" opacity="0.58"/>
    <path id="Vector" d="M0,0H20V20H0Z" fill="none" opacity="0"/>
    <g id="Group_134554" data-name="Group 134554" transform="translate(-1480.732 -1313.947)">
      <path id="Path_151002" data-name="Path 151002" d="M1498.39,1319.928v8.1c-.047.015-.031.057-.036.088a4.011,4.011,0,0,1-2.909,3.353c-.231.068-.474.073-.7.147h-8.074c-.058-.057-.136-.046-.206-.056a3.8,3.8,0,0,1-1.672-.671,3.926,3.926,0,0,1-1.707-3.331c-.013-2.4-.007-4.793,0-7.19a4.011,4.011,0,0,1,4.105-4.062q3.55,0,7.1,0a3.992,3.992,0,0,1,1.051.122,3.932,3.932,0,0,1,2.92,2.88A6.034,6.034,0,0,0,1498.39,1319.928Zm-7.64-2.631h-3.558a3.043,3.043,0,0,0-1.321.265,2.943,2.943,0,0,0-1.8,2.823c-.017,2.387-.005,4.773,0,7.16a3.04,3.04,0,0,0,3.094,3.083c2.382.016,4.764,0,7.145,0a3.079,3.079,0,0,0,1.028-.161,2.991,2.991,0,0,0,2.065-2.9c.01-2.407,0-4.813,0-7.22a3.033,3.033,0,0,0-3.108-3.057C1493.112,1317.293,1491.931,1317.3,1490.75,1317.3Z" transform="translate(0 -0.008)" fill="#b42c4b"/>
      <path id="Path_151003" data-name="Path 151003" d="M1553.861,1414.1a6.151,6.151,0,0,1-1.146-1.068,3.21,3.21,0,0,1-.778-2.2,9.013,9.013,0,0,1,.22-1.969,2.216,2.216,0,0,1,.064-.214.488.488,0,0,1,.839-.18,6.392,6.392,0,0,0,.873.813,4.924,4.924,0,0,0,1.939.843c.084.017.105,0,.115-.09a2.349,2.349,0,0,1,3.715-1.618.341.341,0,0,0,.284.073,4.345,4.345,0,0,0,.955-.222.475.475,0,0,1,.643.53,2.6,2.6,0,0,1-.418,1.106c-.147.2-.273.416-.416.619a.542.542,0,0,0-.1.29,5.644,5.644,0,0,1-1.555,3.609,5.382,5.382,0,0,1-3.042,1.649,5.861,5.861,0,0,1-3.841-.557c-.132-.069-.263-.141-.389-.221a.5.5,0,0,1-.23-.58.49.49,0,0,1,.492-.338,4.25,4.25,0,0,0,1.275-.1A2.515,2.515,0,0,0,1553.861,1414.1Zm-.871-4.3c-.016.179-.036.327-.042.476a5.043,5.043,0,0,0,.009,1.058,2.484,2.484,0,0,0,.668,1.244,6.128,6.128,0,0,0,1.419,1.106.486.486,0,0,1,.035.843,4.071,4.071,0,0,1-.886.516c-.042.018-.1.018-.121.075a4.977,4.977,0,0,0,1.872-.026,4.362,4.362,0,0,0,2.613-1.552,4.792,4.792,0,0,0,1.118-2.882,1.081,1.081,0,0,1,.217-.62c.135-.182.253-.375.394-.586-.168.022-.308.031-.442.061a.574.574,0,0,1-.561-.159,1.441,1.441,0,0,0-.6-.344,1.34,1.34,0,0,0-1.681,1.563.491.491,0,0,1-.511.623,5.845,5.845,0,0,1-2.4-.654A6.151,6.151,0,0,1,1552.989,1409.8Z" transform="translate(-65.847 -88.117)" fill="#ffd7ac"/>
    </g>
  </g>
</svg>
