<svg id="youtube" xmlns="http://www.w3.org/2000/svg" width="20" height="20" viewBox="0 0 20 20">
  <g id="youtube-2" data-name="youtube">
    <path id="BG_127" data-name="BG 127" d="M0,0H20V20H0Z" fill="none" opacity="0.58"/>
    <path id="Vector" d="M12.5,13.333H4.167A3.937,3.937,0,0,1,0,9.167v-5A3.937,3.937,0,0,1,4.167,0H12.5a3.937,3.937,0,0,1,4.167,4.167v5A3.937,3.937,0,0,1,12.5,13.333Z" transform="translate(1.667 3.333)" fill="none" stroke="#b42c4b" stroke-linecap="round" stroke-linejoin="round" stroke-width="1.5"/>
    <path id="Vector-2" data-name="Vector" d="M1.517.22,3.575,1.453a.921.921,0,0,1,0,1.717L1.517,4.4C.683,4.9,0,4.52,0,3.545V1.07C0,.1.683-.28,1.517.22Z" transform="translate(8 7.689)" fill="none" stroke="#ffd7ac" stroke-linecap="round" stroke-linejoin="round" stroke-width="1.5"/>
    <path id="Vector-3" data-name="Vector" d="M0,0H20V20H0Z" fill="none" opacity="0"/>
  </g>
</svg>
